<svg height="48" viewBox="0 0 48 48" width="48" xmlns="http://www.w3.org/2000/svg" xmlns:xlink="http://www.w3.org/1999/xlink"><radialGradient id="a" cx="26.496358%" cy="104.486983%" gradientTransform="matrix(.74319854 -.66907094 .44693939 .49645663 -.398955 .703456)" r="135.495521%"><stop offset="0" stop-color="#ffd148"/><stop offset=".0874672203" stop-color="#fec863"/><stop offset=".388685533" stop-color="#f67032"/><stop offset=".647481425" stop-color="#d33082"/><stop offset="1" stop-color="#4a65d4"/></radialGradient><g fill="none" fill-rule="evenodd"><rect fill="url(#a)" height="48" rx="12" width="48"/><path d="m13.4049861.00129065c2.0095734.00453905 2.4709822.02220242 3.537252.07075687 1.2768571.05812278 2.1489048.2605307 2.9119524.55651486.7888571.30591683 1.4578571.71529505 2.1248095 1.3808792.6669048.66563169 1.0770952 1.33330693 1.3836667 2.12060198.2965238.76153664.4993333 1.63185743.5575714 2.90618614.0136222.29796436.0248178.54860151.0339775.79908168l.0073616.21575904c.0194971.61744269.0276453 1.3134476.0300419 2.76366298l.0007623.8419368.0000472.315813c0 .1083833-.0000154.2136069-.0000472.3158083l-.0007623.8419248c-.0023966 1.4501952-.0105448 2.1461931-.0300419 2.7636334l-.0073616.2157583c-.0091597.2504796-.0203553.5011168-.0339775.7990811-.0582381 1.2743287-.2610476 2.1446495-.5575714 2.9061861-.3065715.7872951-.7167619 1.4549703-1.3836667 2.120602-.6669524.6655842-1.3359524 1.0749624-2.1248095 1.3809268-.7630476.2959366-1.6350953.4983445-2.9119524.5564673-.2878929.0131097-.5316913.0239674-.7737735.0329229l-.2430795.0083344c-.6550574.0206031-1.3983611.028508-3.0335237.030346h-1.7912595c-1.72602936-.0019401-2.4583346-.01064-3.14205446-.0338986l-.32395397-.0121368c-.1820895-.0073818-.37114903-.015857-.58440299-.0255679-1.27685715-.0581228-2.14890477-.2605307-2.91195238-.5564673-.78885715-.3059644-1.45785715-.7153426-2.12480953-1.3809268-.66690476-.6656317-1.07709524-1.3333069-1.38361905-2.120602-.29657142-.7615366-.49938095-1.6318574-.55761904-2.9061861-.0486508-1.0641584-.06634921-1.5246535-.07089727-3.5302475v-2.8119369c.00454806-2.00562153.02224647-2.46611658.07089727-3.530275.05823809-1.27432871.26104762-2.1446495.55761904-2.90618614.30652381-.78729505.71671429-1.45497029 1.38361905-2.12060198.66695238-.66558415 1.33595238-1.07496237 2.12480953-1.3808792.76304761-.29598416 1.63509523-.49839208 2.91195238-.55651486.25590476-.01165306.47696952-.02152681.69295809-.02986683l.21539887-.00783788c.61174935-.02081037 1.26239392-.0299656 2.62892256-.03305216zm-.8046788 2.15607807h-1.2081473l-.1400268.00010097-.6393294.00089775c-1.4189635.00299564-2.04394414.01237861-2.67613734.03531412l-.21209724.00815694c-.17880202.00723213-.36502954.0155714-.57585493.0251714-1.16961905.05322772-1.80480953.24826931-2.22752381.4122297-.55995238.21718812-.95957143.47662575-1.37933334.89560396-.41980952.4189307-.6797619.81775842-.89738095 1.37660198-.16428571.42187723-.35971429 1.05580991-.41304762 2.22311288-.01154286.2524895-.02126667.46962819-.02943733.68103122l-.0076628.21058799c-.02149435.63260946-.02980813 1.30244335-.03212076 2.80911057v2.2743734c.00231263 1.5066458.01062641 2.176473.03212076 2.8090805l.0076628.2105875c.00817066.2114026.01789447.4285413.02943733.6810308.05333333 1.167303.24876191 1.8012356.41304762 2.2231129.21761905.5588435.47761905.9576713.89738095 1.3766019.41976191.4189783.81938096.6784159 1.37933334.895604.42271428.1639604 1.05790476.359002 2.22752381.4122297.21080158.0096.39700661.0179393.5757888.0251714l.21207478.008157c.63213015.0229355 1.25708888.0323184 2.67613333.0353141l.5035245.0007718.1358448.0001259 1.3482706.000101c.0947764-.0000592.1866899-.0001344.2758778-.0002269l.5035193-.0007718c1.4190318-.0029957 2.0440007-.0123786 2.6761227-.0353141l.2120713-.008157c.1787787-.0072321.3649784-.0155714.5757721-.0251714 1.169619-.0532277 1.8048095-.2482693 2.2275238-.4122297.5599524-.2171881.9595714-.4766257 1.3793333-.895604.4198096-.4189306.6797619-.8177584.897381-1.3766019.1642857-.4218773.3597143-1.0558099.4130476-2.2231129.0519429-1.1362028.06705-1.5565516.069552-3.9596919v-1.7563835c-.002502-2.40317498-.0176091-2.82352381-.069552-3.95972658-.0533333-1.16730297-.2487619-1.80123565-.4130476-2.22311288-.2176191-.55884356-.4775714-.95767128-.897381-1.37660198-.4197619-.41897821-.8193809-.67841584-1.3793333-.89560396-.4227143-.16396039-1.0579048-.35900198-2.2275238-.4122297-1.054127-.048-1.4933069-.06448185-3.464062-.06864246l-.5034864-.00077181c-.0891818-.00009249-.1810889-.00016771-.2758586-.00022691zm-.6040692 3.66707484c3.4021905 0 6.1601905 2.75253862 6.1601905 6.14803964 0 3.3954534-2.758 6.147992-6.1601905 6.147992-3.4022381 0-6.1602381-2.7525386-6.1602381-6.147992 0-3.39550102 2.758-6.14803964 6.1602381-6.14803964zm0 2.15719604c-2.2084762 0-3.99876191 1.7867406-3.99876191 3.9908436 0 2.2040554 1.79028571 3.990796 3.99876191 3.990796 2.2084286 0 3.9987143-1.7867406 3.9987143-3.990796 0-2.204103-1.7902857-3.9908436-3.9987143-3.9908436zm6.4035714-3.83681584c.7950476 0 1.4395715.64324753 1.4395715 1.43672079 0 .79347327-.6445239 1.43667327-1.4395715 1.43667327-.795 0-1.4395238-.6432-1.4395238-1.43667327 0-.79347326.6445238-1.43672079 1.4395238-1.43672079z" fill="#fff" transform="translate(12 12.0076)"/></g></svg>