<?xml version="1.0" encoding="UTF-8"?>
<svg width="48px" height="48px" viewBox="0 0 48 48" version="1.1" xmlns="http://www.w3.org/2000/svg" xmlns:xlink="http://www.w3.org/1999/xlink">
    <title>icon/youtube</title>
    <g id="Main" stroke="none" stroke-width="1" fill="none" fill-rule="evenodd">
        <g id="Styleguide" transform="translate(-778, -3137)">
            <g id="info-copy" transform="translate(176, 2833)">
                <g id="Group-24-Copy" transform="translate(490, 304)">
                    <g id="Red-Square" transform="translate(112, 0)">
                        <rect id="Background" fill="#FF0000" x="0" y="0" width="48" height="48" rx="12"></rect>
                        <g id="s/YouTube/White" transform="translate(12.0009, 15.4302)" fill="#FFFFFF">
                            <path d="M12.4551313,2.07949977e-16 C14.1096883,0.00966185316 19.7828798,0.0745342958 21.375607,0.510106411 C22.4084252,0.791719314 23.2215616,1.6214889 23.4975616,2.67522162 C23.953512,4.41137579 23.994962,7.86238695 23.9987302,8.47549514 L23.9987302,8.66397734 C23.994962,9.27706684 23.953512,12.7279866 23.4975616,14.4643921 C23.2215616,15.5179866 22.4084252,16.3477562 21.375607,16.6295073 C20.5792434,16.8472346 18.7627637,16.9723119 16.9385553,17.0441648 L16.3920733,17.0641634 C14.6672246,17.1226856 13.0267686,17.136731 12.338701,17.1401018 L12.1540872,17.1408509 C12.1289321,17.1409298 12.1066683,17.1409889 12.0874223,17.1410333 L11.9107917,17.1410333 C11.8915457,17.1409889 11.8692819,17.1409298 11.8441268,17.1408509 L11.6595128,17.1401018 C10.8990161,17.1363761 8.97507185,17.1196104 7.05963292,17.0441648 L6.51360847,17.0209728 C4.88230368,16.9463699 3.33925018,16.8254618 2.62247068,16.6295073 C1.58978886,16.3477562 0.776516134,15.5179866 0.500516134,14.4643921 C0.0598839029,12.7858668 0.00647393545,9.50522314 1.39265769e-15,8.73457712 L1.3927119e-15,8.40489326 C0.00647393545,7.63422493 0.0598839029,4.35350398 0.500516134,2.67522162 C0.776516134,1.6214889 1.58978886,0.791719314 2.62247068,0.510106411 C4.21531401,0.0745342958 9.88852278,0.00966185316 11.5430823,3.75567633e-16 Z M9.54452068,4.95191747 L9.54452068,12.1875857 L15.817248,8.56988982 L9.54452068,4.95191747 Z" id="Fill-2"></path>
                        </g>
                    </g>
                </g>
            </g>
        </g>
    </g>
</svg>