<?xml version="1.0" encoding="UTF-8"?>
<svg width="102px" height="40px" viewBox="0 0 102 40" version="1.1" xmlns="http://www.w3.org/2000/svg" xmlns:xlink="http://www.w3.org/1999/xlink">
    <title>Group 8</title>
    <defs>
        <path d="M16.5043808,1.75770948 C14.8096424,0.607836385 12.7749565,0 10.6204777,0 C8.46590462,0 6.43121868,0.607836385 4.73638595,1.75770948 C3.13418043,2.84483449 1.84560575,4.38445144 1.01007434,6.21005856 C0.174542931,8.03566567 -0.152010437,10.0252952 0.0655031583,11.9637153 C0.295656312,14.0139949 1.15448601,15.9753973 2.54917639,17.6355516 L10.6203834,27.2436387 L18.6915904,17.6355516 C20.0862807,15.975302 20.9451104,14.0139949 21.1752636,11.9637153 C21.3928715,10.0251998 21.0662238,8.03566567 20.2306924,6.21005856 C19.395161,4.38445144 18.1066807,2.84483449 16.5043808,1.75770948" id="path-1"></path>
    </defs>
    <g id="2.0" stroke="none" stroke-width="1" fill="none" fill-rule="evenodd">
        <g id="Menu" transform="translate(-64, -48)">
            <g id="Group-8" transform="translate(64, 48)">
                <g id="Group-4">
                    <g id="Group" transform="translate(6.4056, 36.3439)" fill="#FFFFFF">
                        <path d="M14.719729,0 C14.9588981,0.148809212 15.0894706,0.308847784 15.0894706,0.475672443 C15.0894706,1.26455515 12.1775745,1.90414393 8.5854659,1.90414393 C4.99351775,1.90414393 2.08154138,1.26455515 2.08154138,0.475672443 C2.08154138,0.308847784 2.21211392,0.148809212 2.45128305,0 C0.935181769,0.387938022 0,0.919030182 0,1.50489577 C0,2.69294586 3.84386976,3.65608561 8.5854659,3.65608561 C13.3271422,3.65608561 17.1709318,2.69294586 17.1709318,1.50489577 C17.1709318,0.919030182 16.2358302,0.387938022 14.719729,0" id="Fill-3"></path>
                    </g>
                    <g id="Group-10">
                        <path d="M28.1581783,8.59354603 C27.0027346,6.08470917 25.2108297,3.96201494 22.9759025,2.45508217 C20.5938674,0.848982886 17.7584303,0 14.7761683,0 C11.7939063,0 8.95846923,0.848982886 6.57643408,2.45508217 C4.34160123,3.96201494 2.54969632,6.08470917 1.39425263,8.59354603 C0.238808941,11.1023829 -0.211479117,13.8487074 0.0920784444,16.5356838 C0.415546061,19.3995671 1.60694108,22.1205785 3.53746149,24.4044421 L13.0756043,35.6881878 C13.5003207,36.1906567 14.1201745,36.4787705 14.7762627,36.4787705 C15.4322565,36.4787705 16.0521103,36.1906567 16.4768267,35.6881878 L26.0149695,24.4044421 C27.9454899,22.1205785 29.1368849,19.3995671 29.4603525,16.5356838 C29.7639101,13.8488022 29.3135277,11.1023829 28.1581783,8.59354603" id="Fill-1" fill="#FFFFFF"></path>
                        <g id="Group-9" transform="translate(4.1558, 4.1558)">
                            <mask id="mask-2" fill="white">
                                <use xlink:href="#path-1"></use>
                            </mask>
                            <use id="Fill-3" fill="#FFFFFF" xlink:href="#path-1"></use>
                            <g id="flag-2" mask="url(#mask-2)">
                                <g transform="translate(-9.6969, -0.9235)" id="flag">
                                    <path d="M52.6402511,1.84875693 L52.6402511,35.1587623 C47.93002,37.5808346 42.2504008,38.064505 36.8479272,36.8540889 C36.4328303,36.8540889 24.7964466,34.1901814 19.1168274,33.5849734 C16.8996632,33.4646759 14.6837418,33.2216005 12.4678204,33.3431382 C8.17268608,33.5849734 4.01674595,34.0698839 0,35.1587623 L0,1.84875693 C4.01674595,0.759878541 8.17268608,0.274968004 12.4678204,0.033132826 C14.6837418,-0.0884048532 16.8996632,0.154670505 19.1168274,0.274968004 C19.553052,0.320854679 20.0253179,0.380383338 20.5236828,0.44859326 C26.5177316,1.27331323 36.4651433,3.54408354 36.8479272,3.54408354 C42.2504008,4.75573979 47.93002,4.27082925 52.6402511,1.84875693 Z" id="Path" fill="#FF0000" fill-rule="nonzero"></path>
                                    <path d="M52.6402511,19.1852387 L52.6402511,24.597386 C47.9499048,26.4998228 42.5026903,26.8061473 37.2990655,25.7011466 C36.8603553,25.7011466 24.5764701,23.0372391 18.5811785,22.432031 C16.2409765,22.3117335 13.9007746,22.0686582 11.5618155,22.1901959 C7.59602453,22.4022667 3.74208604,22.7991244 0,23.6250846 L0,18.2327802 C3.74208604,17.4055799 7.59602453,17.0087221 11.5618155,16.7966513 C13.9007746,16.6763538 16.2434621,16.8760228 18.5811785,17.0397267 C24.6634664,17.4651085 36.8727833,20.2406323 37.2990655,20.3088422 C42.9302152,21.207973 47.9673041,20.9500155 52.6402511,19.1852387 L52.6402511,19.1852387 Z" id="Path" fill="#FFFFFF" fill-rule="nonzero"></path>
                                    <path d="M52.6402511,30.2389667 L52.6402511,35.5308164 C47.93002,37.9528887 42.2504008,38.4365591 36.8479272,37.226143 C36.4328303,37.226143 24.7964466,34.5622355 19.1168274,33.9570275 C16.8996632,33.83673 14.6837418,33.5936546 12.4678204,33.7151923 C8.17268608,33.9570275 4.01674595,34.441938 0,35.5308164 L0,29.265425 C3.74208604,28.4394649 7.59602453,28.0426072 11.5618155,27.8305363 C13.9007746,27.7102388 16.2409765,27.952074 18.5811785,28.0736117 C24.5764701,28.6788197 36.8603553,31.3427272 37.2990655,31.3427272 C42.5026903,32.447728 47.9499048,32.1401632 52.6402511,30.2389667 L52.6402511,30.2389667 Z" id="Path" fill="#FFFFFF" fill-rule="nonzero"></path>
                                    <path d="M52.6402511,8.66602859 L52.6402511,14.0608133 C47.948662,15.9620099 42.5014474,16.2695746 37.2990655,15.1645739 C36.8889398,15.1645739 26.2120015,12.855358 19.9022802,12.0480005 L19.9780913,6.66313725 C26.2965123,7.47917595 36.8901826,9.76978915 37.2990655,9.76978915 C42.5014474,10.8747899 47.948662,10.5684653 52.6402511,8.66602859 L52.6402511,8.66602859 Z" id="Path" fill="#FFFFFF" fill-rule="nonzero"></path>
                                    <path d="M20.5236828,0.44859326 L20.5236828,0.449833441 L20.2999779,17.2021903 C11.3617239,16.1753209 3.54448003,17.6722187 0,18.5465458 L0,1.84875693 C4.01674595,0.759878541 8.17268608,0.274968004 12.4678204,0.033132826 C14.6837418,-0.0884048532 16.8996632,0.154670505 19.1168274,0.274968004 C19.553052,0.320854679 20.0253179,0.380383338 20.5236828,0.44859326 L20.5236828,0.44859326 Z" id="Path" fill="#1272F4" fill-rule="nonzero"></path>
                                    <g id="Group" transform="translate(2.8572, 2.129)" fill="#FFFFFF" fill-rule="nonzero">
                                        <polygon id="Path" points="2.2606624 1.18065174 2.95911885 2.59321722 4.52256761 2.82017023 3.39161501 3.92021025 3.6588181 5.47291611 2.2606624 4.73996949 0.863749517 5.47291611 1.1297098 3.92021025 0 2.82017023 1.56220596 2.59321722"></polygon>
                                        <polygon id="Path" points="2.90692104 8.23355768 3.60537748 9.64612315 5.16758344 9.87307617 4.03663084 10.9731162 4.30383392 12.525822 2.90692104 11.7928754 1.50876534 12.525822 1.77596843 10.9731162 0.645015826 9.87307617 2.20722179 9.64612315"></polygon>
                                        <polygon id="Path" points="7.8594992 3.89912718 8.55919845 5.31169265 10.1214044 5.53864567 8.99045181 6.6374455 9.25765489 8.19015136 7.8594992 7.45720475 6.46258631 8.19015136 6.7297894 6.6374455 5.5988368 5.53864567 7.16104276 5.31169265"></polygon>
                                        <polygon id="Path" points="13.4595788 0 14.1580352 1.41256548 15.7202412 1.63951849 14.5892886 2.73831832 14.8564917 4.29102419 13.4595788 3.55807757 12.0614231 4.29102419 12.3286262 2.73831832 11.1976736 1.63951849 12.7598796 1.41256548"></polygon>
                                        <polygon id="Path" points="12.9264154 8.01280557 13.6261147 9.42537104 15.1883206 9.65232406 14.057368 10.7511239 14.3245711 12.3038298 12.9264154 11.5708831 11.5295025 12.3038298 11.7967056 10.7511239 10.665753 9.65232406 12.227959 9.42537104"></polygon>
                                    </g>
                                </g>
                            </g>
                        </g>
                    </g>
                </g>
                <g id="Group-31" transform="translate(37.6705, 4.7573)" fill="#FFFFFF">
                    <path d="M2.36169065,13.8117883 C3.18584421,14.2756542 4.16633427,14.5075452 5.30324396,14.5075452 C6.44031988,14.5075452 7.4592915,14.2756542 8.36032505,13.8117883 C9.26135861,13.3479224 9.9885187,12.6950122 10.5420547,11.8528065 C11.0954244,11.0106845 11.419484,10.0204401 11.5139009,8.88207321 L12.2509515,0 L9.54568992,0 L8.81030159,8.86240724 C8.77206938,9.3230094 8.6601986,9.74411224 8.47518792,10.1256321 C8.2898448,10.5073193 8.04856628,10.8362013 7.75118615,11.1126128 C7.45388912,11.3889406 7.1141211,11.6028394 6.73246387,11.7540582 C6.35072352,11.905528 5.94421535,11.9810956 5.51293935,11.9810956 C5.09471217,11.9810956 4.70707076,11.9070344 4.35026447,11.7589956 C3.99329195,11.6109569 3.68751735,11.3988154 3.43277444,11.1224876 C3.17786531,10.8460761 2.98795094,10.5171941 2.862782,10.1355069 C2.73761305,9.75398707 2.69447714,9.32962051 2.73329115,8.86240724 L3.46867948,0 L3.42961613,0.000334739938 C1.95310464,0.011046418 0.662268731,1.21853706 0.539011397,2.70436396 L0.0263672731,8.88207321 C-0.0681327867,10.0204401 0.0913620372,11.0106845 0.505184199,11.8528065 C0.918673906,12.6950122 1.53762021,13.3479224 2.36169065,13.8117883 M22.4156007,13.6390625 C23.096051,14.2179115 23.9982481,14.5075452 25.1222752,14.5075452 C25.8998852,14.5075452 26.6218923,14.3496317 27.2885457,14.0338045 C27.955033,13.7179774 28.516631,13.2114322 28.9730903,12.5139179 C29.182287,12.1980907 29.3299798,11.8939795 29.4165009,11.601082 C29.5027727,11.3084357 29.561534,10.9941149 29.5927016,10.6586218 C29.623786,10.323045 29.658195,9.9282192 29.6958454,9.47431185 L30.4820161,0 L30.4624013,0 C28.9791576,0 27.6762703,1.21067067 27.552348,2.70411291 L26.9905838,9.47431185 C26.9605798,9.83616572 26.9275007,10.1552566 26.8915125,10.4315844 C26.8554412,10.7079122 26.7904465,10.9415607 26.6961958,11.1322788 C26.5468408,11.435051 26.324429,11.6553936 26.0287112,11.7935575 C25.7329933,11.9317214 25.4609628,12.0007615 25.2127027,12.0007615 C24.8532368,12.0007615 24.5244398,11.8676187 24.2264778,11.601082 C23.9282666,11.3346291 23.7649485,11.0204756 23.7361081,10.6586218 L21.4520658,11.1970509 C21.4606265,11.130354 21.4678574,11.0626529 21.4735091,10.9941149 C21.5193877,10.4414592 21.4474114,9.96939222 21.2578295,9.57791386 C21.0680814,9.18651919 20.7413622,8.8509424 20.2779213,8.57135086 C19.814231,8.29175933 19.1893005,8.0467297 18.4030467,7.8360109 C17.5971781,7.62554317 16.9987609,7.45449106 16.6077949,7.32285458 C16.2169121,7.19130178 15.9629172,7.0630127 15.8458103,6.93790365 C15.7287033,6.81304565 15.677921,6.65831212 15.6932139,6.47403778 C15.7188959,6.16490545 15.8870346,5.92799325 16.1981284,5.76346858 C16.508973,5.59911127 16.9082503,5.53325118 17.3956279,5.56613938 C17.8953894,5.60555501 18.2828646,5.74053889 18.5578872,5.97075628 C18.8327436,6.20114104 18.976613,6.51353709 18.9896619,6.90836285 L21.7555132,6.4148725 C21.7174472,5.77007969 21.5204682,5.21089662 21.1645762,4.73715592 C20.8084348,4.26341523 20.3208909,3.89829764 19.7018615,3.64163579 C19.0826659,3.38505763 18.3581654,3.25676855 17.5284433,3.25676855 C16.672291,3.25676855 15.9177866,3.39334244 15.2645144,3.66632286 C14.6112422,3.93947065 14.0906192,4.32760161 13.7025622,4.83088311 C13.3144221,5.3341646 13.0920104,5.92799325 13.0352438,6.61228537 C12.9898639,7.15841358 13.0655803,7.62386947 13.2623931,8.00873671 C13.4591227,8.39368764 13.80421,8.72415965 14.2975718,9.00057115 C14.7907674,9.27689897 15.4594987,9.52703339 16.3034332,9.75063967 C17.0510393,9.95466366 17.6010014,10.1191883 17.9532364,10.2440463 C18.3055546,10.3691554 18.5286312,10.4957708 18.6226326,10.6240599 C18.7163846,10.7523489 18.7547,10.921811 18.7372461,11.1322788 C18.7094031,11.4678556 18.5568898,11.7294548 18.2800387,11.9169092 C18.0031045,12.1043635 17.6227771,12.1980907 17.1393058,12.1980907 C16.5512777,12.1980907 16.0777801,12.0568305 15.7189791,11.7738079 C15.360178,11.4910363 15.1459945,11.0994742 15.0763454,10.5993728 L12.3171431,11.0138645 C12.4013371,12.1257869 12.828125,12.9861522 13.5977561,13.5946258 C14.3672209,14.2032666 15.4186068,14.5075452 16.7516644,14.5075452 C18.1369173,14.5075452 19.2476462,14.1951492 20.0836019,13.5699387 C20.6476933,13.14825 21.0414019,12.6196957 21.2661409,11.9851961 C21.5203851,12.6519981 21.903289,13.2033984 22.4156007,13.6390625 M38.5289081,13.1110437 L38.4375664,14.2114176 L40.7900943,14.2114176 L41.6745051,3.5528795 L41.6745051,3.5528795 C40.1912614,3.5528795 38.8883741,4.76355017 38.7644518,6.2569924 L38.5401285,8.96110531 C38.4855229,9.61912035 38.3678342,10.1503526 38.1872285,10.5549695 C38.0066228,10.9595864 37.7933536,11.2655387 37.5475038,11.4727428 C37.3014878,11.6800305 37.0449164,11.8198681 36.7776234,11.8921719 C36.510081,11.9646431 36.2620703,12.000795 36.033425,12.000795 C35.4649286,12.000795 35.0360629,11.8725059 34.7470772,11.6158441 C34.4578422,11.3592659 34.2606139,11.0401751 34.1550597,10.6585715 C34.0495056,10.2771354 33.9992219,9.89712186 34.0046243,9.51869836 C34.0098604,9.14044223 34.0225768,8.82955252 34.0427734,8.58602921 L34.4605019,3.5528795 L34.4408871,3.5528795 C32.9575603,3.5528795 31.654756,4.76355017 31.5308338,6.2569924 L31.2588864,9.53351061 C31.2441753,9.71117383 31.233703,9.99411276 31.2277188,10.3822437 C31.2214853,10.7704584 31.2610473,11.199846 31.3462387,11.6701556 C31.4312638,12.1406326 31.6012309,12.59295 31.8560569,13.0271913 C32.1107167,13.4614327 32.4877196,13.8201066 32.9870656,14.1028781 C33.4863284,14.3856497 34.150904,14.5272447 34.9807924,14.5272447 C36.0197944,14.5272447 36.8994678,14.3002073 37.6200619,13.8462163 C37.9588326,13.6328196 38.260784,13.3869531 38.5289081,13.1110437 M52.6862555,6.09413305 C52.6011473,5.62382344 52.431097,5.17133873 52.1764372,4.73709734 C51.9216943,4.30293964 51.5446914,3.94443317 51.0453455,3.66141055 C50.5459995,3.37863899 49.8814239,3.237044 49.0517017,3.237044 C48.0126998,3.237044 47.1328601,3.46399767 46.4124323,3.91798872 C46.0736616,4.13138543 45.7716271,4.37725191 45.503586,4.65324499 L45.5948447,3.55287113 L43.2228682,3.55287113 L42.3383743,14.2114929 L45.043719,14.2114929 L45.4924488,8.80318338 C45.5476362,8.1387246 45.6653249,7.60581862 45.8455981,7.20446543 C46.0259544,6.80319593 46.2390575,6.49874996 46.4850735,6.29154593 C46.7309232,6.08425823 46.9874946,5.9445043 47.2549539,5.87203311 C47.5221638,5.79972928 47.7703408,5.76349368 47.9991523,5.76349368 C48.5675655,5.76349368 48.9963481,5.89178276 49.2855,6.14844461 C49.5744026,6.40502277 49.7718803,6.7241973 49.8774344,7.10571715 C49.9829886,7.48740436 50.033106,7.86725051 50.027953,8.24559032 C50.0225506,8.62401382 50.0098343,8.93490354 49.9897208,9.17817579 L49.5719923,14.2114929 L52.2772539,14.2114929 L52.7736078,8.23077808 C52.7883189,8.05311486 52.7986249,7.7703433 52.8048585,7.38204497 C52.8109257,6.99391401 52.7712806,6.56461004 52.6862555,6.09413305 M59.8548788,8.88210669 L64.1198485,3.5528795 L62.2203723,3.5528795 C61.3464338,3.5528795 60.4916113,3.98101188 59.9289329,4.70053537 L56.8131737,8.68477749 L57.5338509,3.34739939e-05 L57.510496,3.34739939e-05 C56.0287484,3.34739939e-05 54.726609,1.20836097 54.6007752,2.70038056 L53.6296769,14.2114176 L56.3545533,14.2114176 L56.7804269,9.07951956 L60.0203578,14.2114176 L63.4901805,14.2114176 L59.8548788,8.88210669 Z M14.4418153,19.4280048 C15.3761774,19.4280048 16.1940974,19.5727798 16.8954092,19.8622461 C17.5966379,20.1518799 18.104129,20.651814 18.41755,21.3623832 C18.5939169,21.7571253 18.6853417,22.1518673 18.6918246,22.5466094 C18.6982243,22.9414352 18.6812692,23.3822877 18.6407929,23.8690832 L18.1003058,30.382704 L15.7675589,30.382704 L15.8763545,29.0718624 C15.4141603,29.571127 14.9371718,29.9485463 14.4448074,30.2001034 C13.8203756,30.5191942 13.0507445,30.6787815 12.1359141,30.6787815 C11.3779189,30.6787815 10.7480016,30.5323327 10.2463285,30.2396027 C9.74457224,29.9468726 9.37845723,29.5553942 9.14798347,29.0651676 C8.91750971,28.575192 8.82683287,28.0339175 8.87595295,27.4417626 C8.91692791,26.9482722 9.02938049,26.4976286 9.21356003,26.0896643 C9.39765645,25.6817837 9.67093367,25.3216035 10.0334748,25.0090401 C10.3959328,24.6965603 10.8701785,24.4350448 11.4561287,24.2244097 C11.8602266,24.0797183 12.3379631,23.9514292 12.8897536,23.8395424 C13.4412949,23.7277393 14.06448,23.6207899 14.7591427,23.5187779 C15.16723,23.4588594 15.6000021,23.3949241 16.0562121,23.3269719 C16.0415841,22.8886299 15.9276355,22.5517979 15.7112911,22.3196557 C15.4352711,22.0236619 14.9444027,21.8756232 14.2386859,21.8756232 C13.8466395,21.8756232 13.4302408,21.9710241 12.9897392,22.1618258 C12.5489883,22.3526276 12.223682,22.6913844 12.0134048,23.1782637 L9.66611308,22.4084455 C10.0071278,21.5269079 10.5698063,20.8097275 11.3540653,20.2569882 C12.1383244,19.7043326 13.167519,19.4280048 14.4418153,19.4280048 Z M11.7714946,16.1712613 L6.24976554,24.5993435 L5.76986814,30.3827291 L3.06452342,30.3827291 L3.54450393,24.5993435 L0.751723801,18.8906049 C0.160121843,17.6813569 1.1522478,16.1712613 2.53833179,16.1712613 L5.15258411,21.5202382 L8.65457181,16.1712613 L11.7714946,16.1712613 Z M15.8535814,25.5020283 C15.4084254,25.576759 15.0251059,25.6427865 14.7055345,25.6997759 C14.208017,25.7886494 13.8059139,25.869238 13.4994743,25.9416255 C13.1927024,26.0140967 12.9215861,26.0930117 12.6858762,26.178454 C12.4155911,26.2838134 12.1955065,26.3972903 12.0253732,26.5189682 C11.8550736,26.6407299 11.7264139,26.7740401 11.639394,26.9186477 C11.5521248,27.0634228 11.5011763,27.2246 11.4864652,27.4022633 C11.4662686,27.6457029 11.5092383,27.8546643 11.6157898,28.0289801 C11.7221751,28.2033796 11.8826673,28.3366061 12.0972663,28.4286596 C12.3116992,28.5208804 12.5725094,28.5668235 12.8796969,28.5668235 C13.3698173,28.5668235 13.7902885,28.4797074 14.14136,28.3053079 C14.4923483,28.1309921 14.7765965,27.9319892 14.9946033,27.7082156 C15.2124438,27.4846093 15.3635441,27.2970712 15.4480706,27.1456851 C15.6093108,26.8562187 15.7172752,26.5189682 15.7721301,26.1340173 C15.8055418,25.8994483 15.8326368,25.6889806 15.8535814,25.5020283 Z M36.8636376,16.1712446 L35.68434,30.3827124 L33.3319783,30.3827124 L33.3829269,29.7685483 C33.3048002,29.8271277 33.2254268,29.8843683 33.1433107,29.9385961 C32.396702,30.4320865 31.4973307,30.6787898 30.4452799,30.6787898 C29.4715221,30.6787898 28.6393065,30.4320865 27.948467,29.9385961 C27.2575444,29.4451058 26.7429887,28.7740359 26.4052154,27.9253028 C26.0671096,27.0765697 25.9424393,26.1192134 26.0308721,25.0533178 C26.1209672,23.9678399 26.4084568,23.0022825 26.8936735,22.1568131 C27.3787239,21.3115111 28.0172019,20.6452949 28.8091074,20.158332 C29.6007636,19.6714528 30.5031269,19.4280131 31.5161144,19.4280131 C32.4518063,19.4280131 33.2311616,19.6416609 33.8545961,20.0682869 L34.0274722,17.9851166 C34.1105857,16.9833237 34.9845242,16.1712446 35.979476,16.1712446 L36.8636376,16.1712446 Z M25.6127364,19.6994119 C25.9347181,19.6763985 26.2542895,19.6845997 26.5712014,19.724099 L26.3631682,22.230799 C26.0767591,22.1387455 25.7379053,22.1074473 25.34669,22.1370718 C24.9553916,22.1666963 24.5966737,22.2571598 24.2704532,22.4084622 C23.9448145,22.5532372 23.6642233,22.7457127 23.4285965,22.9858049 C23.1931359,23.2260645 23.0062136,23.5089198 22.8681621,23.8346217 C22.7299443,24.16024 22.6440881,24.527115 22.6101777,24.9349119 L22.1581234,30.3827207 L19.4724765,30.3827207 L20.2064519,21.537971 C20.2895655,20.5361781 21.163504,19.724099 22.1584558,19.724099 L22.7093322,19.724099 L22.5668756,21.4412312 C22.6679416,21.2827318 22.7779839,21.1310109 22.8985816,20.9873238 C23.1523272,20.6848026 23.4541954,20.4346682 23.8037708,20.2372553 C24.0717288,20.0794254 24.359634,19.9559901 24.6676527,19.8672003 C24.975422,19.7784105 25.2905884,19.722509 25.6127364,19.6994119 Z M31.7100182,21.8163826 C31.115341,21.8163826 30.6147484,21.962915 30.2081571,22.2554777 C29.8016489,22.5482915 29.4863994,22.9398535 29.2629071,23.4299128 C29.0392487,23.9201394 28.9029425,24.4612465 28.8537393,25.0533178 C28.8040375,25.6521675 28.8470903,26.1966221 28.9828146,26.686765 C29.1186221,27.1769917 29.3574072,27.5667963 29.6994193,27.8562627 C30.041182,28.1458127 30.4997193,28.2905041 31.0747816,28.2905041 C31.6692926,28.2905041 32.1559222,28.1556875 32.5345042,27.8858872 C32.91292,27.6161704 33.2009083,27.2378306 33.3980536,26.7508677 C33.5952819,26.2640722 33.7207002,25.698278 33.7742253,25.0533178 C33.8276673,24.4086924 33.7961673,23.8428982 33.6798084,23.3559353 C33.5634494,22.869056 33.3447778,22.4907999 33.0241259,22.2209158 C32.703474,21.9511991 32.2652996,21.8163826 31.7100182,21.8163826 Z M44.8905574,24.742562 C44.4268671,24.4629704 43.8019367,24.2179408 43.015766,24.007222 C42.2098143,23.7967543 41.611397,23.6257022 41.2205142,23.4940657 C40.8295482,23.3625129 40.5755534,23.2342238 40.4584464,23.1091148 C40.3414226,22.9843404 40.2905571,22.8296069 40.30585,22.6453326 C40.3315321,22.3362002 40.4996707,22.099288 40.8108477,21.9347634 C41.1216922,21.7704061 41.5208864,21.704546 42.008264,21.7374342 C42.5081087,21.7768498 42.8955839,21.9118337 43.1705233,22.1420511 C43.4454628,22.3724358 43.5893323,22.6848319 43.6023811,23.079574 L46.3682325,22.5861673 C46.3300834,21.9413745 46.1331875,21.3821077 45.7772123,20.908367 C45.4210709,20.4346263 44.9336102,20.0695087 44.3144977,19.8128469 C43.695302,19.5563524 42.9708847,19.4280633 42.1410794,19.4280633 C41.2849272,19.4280633 40.5304227,19.5646372 39.8772337,19.837534 C39.2238784,20.1106818 38.7032553,20.4988127 38.3152815,21.0020942 C37.9270583,21.5054594 37.7046465,22.099288 37.64788,22.7835802 C37.6025831,23.3296247 37.6782164,23.7950806 37.8751123,24.1799478 C38.0717589,24.5648988 38.4168462,24.8954544 38.910208,25.1718659 C39.4034035,25.4481938 40.0721348,25.6983282 40.9161525,25.9219345 C41.6637585,26.1259585 42.2136375,26.2904831 42.5659557,26.4152574 C42.9182738,26.5403665 43.1412674,26.6669819 43.2352688,26.795271 C43.3291039,26.92356 43.3674192,27.0930221 43.3499654,27.3034899 C43.3220393,27.6390667 43.169526,27.9006659 42.8926749,28.0881203 C42.6157407,28.2756583 42.2354964,28.3693855 41.7520251,28.3693855 C41.1639139,28.3693855 40.6904162,28.2280416 40.3316983,27.945019 C39.9728142,27.6622474 39.7586307,27.2706854 39.6890647,26.7705839 L36.9298624,27.1850756 C37.0139733,28.2970817 37.4407611,29.157447 38.2104753,29.7658369 C38.9799402,30.3744778 40.031243,30.6787564 41.3643006,30.6787564 C42.7496365,30.6787564 43.8602824,30.3663603 44.696238,29.7411498 C45.5322768,29.116274 45.9955515,28.2575824 46.0862284,27.165326 C46.1320239,26.6126703 46.0601307,26.140687 45.8705488,25.7492087 C45.6807175,25.357814 45.3540815,25.0222372 44.8905574,24.742562" id="Combined-Shape"></path>
                </g>
            </g>
        </g>
    </g>
</svg>