<svg xmlns="http://www.w3.org/2000/svg" version="1.1" xmlns:xlink="http://www.w3.org/1999/xlink" xmlns:svgjs="http://svgjs.dev/svgjs" width="29px" height="40px"><svg width="29px" height="40px" viewBox="0 0 29 40" version="1.1" xmlns="http://www.w3.org/2000/svg" xmlns:xlink="http://www.w3.org/1999/xlink">
    <title>logo/dark</title>
    <g id="SvgjsG1757" stroke="none" stroke-width="1" fill="none" fill-rule="evenodd">
        <g id="SvgjsG1756" transform="translate(-64, -32)">
            <g id="SvgjsG1755" transform="translate(24, 8)">
                <g id="SvgjsG1754" transform="translate(40, 24)">
                    <g id="SvgjsG1753" transform="translate(0, 0)">
                        <g id="SvgjsG1752">
                            <path d="M27.5504259,16.3769687 C27.263737,18.9917595 26.2041022,21.4802803 24.4861786,23.573409 L15.1771219,34.915891 C14.9455973,35.1979735 14.6534748,35.24 14.499954,35.24 C14.3465252,35.24 14.0544947,35.1979735 13.8228781,34.915891 L4.51382135,23.573409 C2.79598994,21.4802803 1.73635512,18.9917595 1.44957407,16.3769687 C1.18001461,13.9191339 1.58117655,11.4043108 2.60959146,9.10428982 C3.63800638,6.8043641 5.23077399,4.8599958 7.21558622,3.48160325 C9.32730414,2.01505991 11.8461701,1.24 14.500046,1.24 C17.153922,1.24 19.672788,2.01505991 21.7844138,3.48150795 C23.7693181,4.8599958 25.3619936,6.8042688 26.3904085,9.10428982 C27.4188235,11.4043108 27.8199854,13.9191339 27.5504259,16.3769687" id="SvgjsPath1751" fill="#FFFFFF"></path>
                            <path d="M26.9885729,16.4571768 C26.7142266,18.9593944 25.7002117,21.3407782 24.0562491,23.3437926 L15.1479702,34.1979528 C14.9264133,34.467891 14.6468674,34.5081081 14.4999559,34.5081081 C14.3531326,34.5081081 14.0736748,34.467891 13.8520298,34.1979528 L4.94375095,23.3437926 C3.29987641,21.3407782 2.28586149,18.9593944 2.01142706,16.4571768 C1.7534728,14.1051578 2.13736373,11.6986041 3.12150285,9.49760465 C4.10564197,7.2966964 5.62983701,5.43603795 7.52919819,4.1169886 C9.55000144,2.71358356 11.960424,1.97189189 14.5000441,1.97189189 C17.0396641,1.97189189 19.4500867,2.71358356 21.4708018,4.1168974 C23.3702511,5.43603795 24.894358,7.29660521 25.8784972,9.49760465 C26.8626363,11.6986041 27.2465272,14.1051578 26.9885729,16.4571768 M27.6318192,8.59383567 C26.4979741,6.08491425 24.7395652,3.96214848 22.5464153,2.45516491 C20.2089074,0.8490115 17.426473,0 14.4999583,0 C11.5734435,0 8.79100909,0.8490115 6.45350118,2.45516491 C4.26044393,3.96214848 2.50203499,6.08491425 1.36818995,8.59383567 C0.2343449,11.1027571 -0.20752595,13.8491742 0.0903572274,16.5362411 C0.407778282,19.4002209 1.57690262,22.1213241 3.47133593,24.4052646 L12.8311828,35.6893906 C13.24796,36.1918765 13.8562269,36.48 14.5000508,36.48 C15.1437822,36.48 15.7520491,36.1918765 16.1688263,35.6893906 L25.5286732,24.4052646 C27.4231065,22.1213241 28.5922308,19.4002209 28.9096519,16.5362411 C29.207535,13.849269 28.7655716,11.1027571 27.6318192,8.59383567" id="SvgjsPath1750" fill="#2C2833"></path>
                            <g id="SvgjsG1749" transform="translate(4, 4)">
                                <path d="M8.78357052,21.5085179 C10.1114726,21.644103 11.7514193,21.8830137 13.5018255,22.1721488 L14.562,22.351 L10.499982,27.2436387 L5.57322573,21.3110208 Z M10.5000753,0 C12.6301291,0 14.6417482,0.607836385 16.3172737,1.75770948 C17.9014085,2.84483449 19.1752816,4.38445144 20.0013408,6.21005856 C20.1946707,6.63732146 20.3604429,7.07356332 20.4982091,7.5160287 C19.9470837,7.40986043 19.3816371,7.30094823 18.8069078,7.19180891 L17.0606877,6.86532542 L15.7121107,6.62127614 C13.7439528,6.27104049 12.2663944,5.9779527 10.6230081,5.76327175 L10.5480564,11.148135 C12.4674992,11.3965527 14.3373578,11.7635105 16.6528889,12.1852847 L17.346746,12.312641 C17.9339169,12.4212101 18.5175411,12.5310771 19.0908872,12.6404157 L20.773192,12.965809 C20.4144525,14.6501365 19.6320947,16.2479867 18.4796872,17.6355516 L18.5297543,17.5734546 L17.3481744,17.3521801 L15.9225674,17.0957943 C13.3086049,16.6374529 10.729061,16.253837 8.78357052,16.1162135 C6.47235647,15.9525097 4.15622755,15.7528406 1.84378477,15.8731381 L1.33325309,15.904252 C0.649393862,14.67339 0.217340569,13.338534 0.064760561,11.9637153 C-0.150287123,10.0252952 0.17256417,8.03566567 0.998623311,6.21005856 C1.82468245,4.38445144 3.0986488,2.84483449 4.68269041,1.75770948 C6.35830914,0.607836385 8.36992821,0 10.5000753,0 Z" id="SvgjsPath1748" fill="#FF0000"></path>
                                <path d="M10.5000753,0 L10.6980862,0.00175511246 L10.4828842,16.2786771 C7.25457502,15.9035407 4.17417873,15.8652238 1.3936181,16.0103259 C0.674980184,14.7516633 0.221816028,13.3788601 0.064760561,11.9637153 C-0.150287123,10.0252952 0.17256417,8.03566567 0.998623311,6.21005856 C1.82468245,4.38445144 3.0986488,2.84483449 4.68269041,1.75770948 C6.35830914,0.607836385 8.36992821,0 10.5000753,0 Z" id="SvgjsPath1747" fill="#1272F4" fill-rule="nonzero"></path>
                                <polygon id="SvgjsPolygon1746" fill="#FFFFFF" fill-rule="nonzero" points="5.01175539 12.9348108 3.4147424 13.8441907 3.77142211 12.0180835 2.427737 10.754022 4.24518598 10.5348099 5.01175539 8.8441907 5.77830894 10.5348099 7.5957491 10.754022 6.25208414 12.0180835 6.60875705 13.8441907"></polygon>
                                <polygon id="SvgjsPolygon1745" fill="#FFFFFF" fill-rule="nonzero" points="6.68908139 6.43481113 5.0920684 7.344191 5.44874811 5.51808381 4.105063 4.25402231 5.92251198 4.03481021 6.68908139 2.344191 7.45563494 4.03481021 9.2730751 4.25402231 7.92941014 5.51808381 8.28608305 7.344191"></polygon>
                            </g>
                            <path d="M21.1253764,36.3439144 C21.3645455,36.4927236 21.4951181,36.6527622 21.4951181,36.8195868 C21.4951181,37.6084695 18.5832219,38.2480583 14.9911134,38.2480583 C11.3991652,38.2480583 8.48718884,37.6084695 8.48718884,36.8195868 C8.48718884,36.6527622 8.61776139,36.4927236 8.85693052,36.3439144 C7.34082923,36.7318524 6.40564746,37.2629446 6.40564746,37.8488102 C6.40564746,39.0368602 10.2495172,40 14.9911134,40 C19.7327897,40 23.5765793,39.0368602 23.5765793,37.8488102 C23.5765793,37.2629446 22.6414777,36.7318524 21.1253764,36.3439144" id="SvgjsPath1744" fill="#2C2833"></path>
                        </g>
                    </g>
                </g>
            </g>
        </g>
    </g>
</svg><style>@media (prefers-color-scheme: light) { :root { filter: none; } }
@media (prefers-color-scheme: dark) { :root { filter: none; } }
</style></svg>