<?xml version="1.0" encoding="UTF-8"?>
<svg width="139px" height="128px" viewBox="0 0 139 128" version="1.1" xmlns="http://www.w3.org/2000/svg" xmlns:xlink="http://www.w3.org/1999/xlink">
    <title>Group 66</title>
    <defs>
        <linearGradient x1="50%" y1="0%" x2="50%" y2="100%" id="linearGradient-1">
            <stop stop-color="#FFFFFF" stop-opacity="0.144258086" offset="0%"></stop>
            <stop stop-color="#FFFFFF" stop-opacity="0.478010271" offset="86.0795455%"></stop>
            <stop stop-color="#DDE0EB" stop-opacity="0.552201705" offset="100%"></stop>
        </linearGradient>
        <path d="M103.039398,0 L103.164703,40.7521307 L0.125304603,41.0696639 L0,0.317533209 L103.039398,0 Z M102.018,4.712 L1.049,5.023 L1.139,34.164 L1.16316375,34.2187447 C1.57755104,35.0296179 2.84259257,35.0024608 3.71891607,34.634515 C4.63696927,34.249048 5.62085186,33.6530372 6.5542822,33.9993214 C7.10989246,34.2054126 7.51719597,34.7177148 8.08386252,34.8908569 C9.35571695,35.2796316 10.4406311,33.8353389 11.7452732,33.5781064 C13.4839063,33.2353843 15.0836369,35.063999 16.8329451,34.7806871 C17.6635646,34.646219 18.3495628,34.0521164 19.1590865,33.8229988 C21.3582712,33.2002725 23.431516,35.3777157 25.7168635,35.3875114 C27.4192778,35.39489 28.9036163,34.202105 30.5862055,33.9429643 C32.4637412,33.6538005 34.3307289,34.5661996 35.826632,35.7382482 C37.3224081,36.9104241 38.5928646,38.3617137 40.1576471,39.4400036 C40.2241278,39.4858493 40.3005449,39.5307469 40.3788295,39.5616949 L40.3500783,39.6704876 C40.3313709,39.7474596 40.3133599,39.8298198 40.2951758,39.910852 L46.406,39.891 L53.025464,35.997707 L53.1953841,35.9971833 C53.22335,35.9970971 53.2546789,35.9970006 53.2893043,35.9968939 L53.5360848,35.9961334 C55.7707555,35.9892468 64.99424,35.9608235 74.31372,35.9321153 L75.5034312,35.9284505 C84.2240145,35.901588 92.7716672,35.8752684 95.491016,35.8669281 C99.5407335,35.8544243 101.345134,34.4778408 102.107954,33.5301581 L102.018,4.712 Z M40.5317818,39.2970118 C40.5838861,39.0877402 40.9140497,39.4022202 40.7484596,39.539996 C40.6449657,39.6261059 40.5093038,39.6132749 40.3788295,39.5616949 C40.422992,39.4043437 40.4704687,39.2972076 40.5317818,39.2970118 Z" id="path-2"></path>
        <filter x="-7.8%" y="-19.5%" width="115.5%" height="139.0%" filterUnits="objectBoundingBox" id="filter-3">
            <feGaussianBlur stdDeviation="7.5" in="SourceAlpha" result="shadowBlurInner1"></feGaussianBlur>
            <feOffset dx="0" dy="1" in="shadowBlurInner1" result="shadowOffsetInner1"></feOffset>
            <feComposite in="shadowOffsetInner1" in2="SourceAlpha" operator="arithmetic" k2="-1" k3="1" result="shadowInnerInner1"></feComposite>
            <feColorMatrix values="0 0 0 0 1   0 0 0 0 1   0 0 0 0 1  0 0 0 0.5 0" type="matrix" in="shadowInnerInner1"></feColorMatrix>
        </filter>
        <linearGradient x1="50%" y1="0%" x2="50%" y2="100%" id="linearGradient-4">
            <stop stop-color="#FFFFFF" stop-opacity="0.144258086" offset="0%"></stop>
            <stop stop-color="#FFFFFF" stop-opacity="0.478010271" offset="86.0795455%"></stop>
            <stop stop-color="#DDE0EB" stop-opacity="0.552201705" offset="100%"></stop>
        </linearGradient>
        <path d="M8.91589208,20.1673534 C8.9067681,17.1913701 11.309414,14.7713243 14.2822847,14.7621386 C17.2552826,14.7530051 19.6726702,17.1581665 19.6818462,20.1341498 C19.6909702,23.1102604 17.2883244,25.5301789 14.3154536,25.5393646 C11.3425828,25.5484981 8.92506816,23.1433367 8.91589208,20.1673534" id="path-5"></path>
        <filter x="-79.0%" y="-78.9%" width="257.9%" height="257.7%" filterUnits="objectBoundingBox" id="filter-6">
            <feGaussianBlur stdDeviation="7.5" in="SourceAlpha" result="shadowBlurInner1"></feGaussianBlur>
            <feOffset dx="0" dy="1" in="shadowBlurInner1" result="shadowOffsetInner1"></feOffset>
            <feComposite in="shadowOffsetInner1" in2="SourceAlpha" operator="arithmetic" k2="-1" k3="1" result="shadowInnerInner1"></feComposite>
            <feColorMatrix values="0 0 0 0 1   0 0 0 0 1   0 0 0 0 1  0 0 0 0.5 0" type="matrix" in="shadowInnerInner1"></feColorMatrix>
        </filter>
        <linearGradient x1="50%" y1="0%" x2="50%" y2="100%" id="linearGradient-7">
            <stop stop-color="#FFFFFF" stop-opacity="0.144258086" offset="0%"></stop>
            <stop stop-color="#FFFFFF" stop-opacity="0.478010271" offset="86.0795455%"></stop>
            <stop stop-color="#DDE0EB" stop-opacity="0.552201705" offset="100%"></stop>
        </linearGradient>
        <path d="M72.7163434,20.7690381 C72.7068394,17.6827578 75.1984439,15.1731514 78.2814963,15.1637101 C81.3645487,15.1541961 83.8715304,17.6484093 83.8810882,20.7346896 C83.8904658,23.8208427 81.3988613,26.3304491 78.315936,26.3400176 C75.2328836,26.3495316 72.725902,23.8553184 72.7163434,20.7690381" id="path-8"></path>
        <filter x="-76.1%" y="-76.1%" width="252.3%" height="252.1%" filterUnits="objectBoundingBox" id="filter-9">
            <feGaussianBlur stdDeviation="7.5" in="SourceAlpha" result="shadowBlurInner1"></feGaussianBlur>
            <feOffset dx="0" dy="1" in="shadowBlurInner1" result="shadowOffsetInner1"></feOffset>
            <feComposite in="shadowOffsetInner1" in2="SourceAlpha" operator="arithmetic" k2="-1" k3="1" result="shadowInnerInner1"></feComposite>
            <feColorMatrix values="0 0 0 0 1   0 0 0 0 1   0 0 0 0 1  0 0 0 0.5 0" type="matrix" in="shadowInnerInner1"></feColorMatrix>
        </filter>
        <linearGradient x1="50%" y1="0%" x2="50%" y2="100%" id="linearGradient-10">
            <stop stop-color="#FFFFFF" stop-opacity="0.144258086" offset="0%"></stop>
            <stop stop-color="#FFFFFF" stop-opacity="0.478010271" offset="86.0795455%"></stop>
            <stop stop-color="#DDE0EB" stop-opacity="0.552201705" offset="100%"></stop>
        </linearGradient>
        <path d="M82.4717788,31.1135602 C82.2693344,31.2303453 82.0344836,31.4248598 82.1093359,31.6464715 C82.1921945,31.8916184 82.5400228,31.8701187 82.7775424,31.9727827 C83.2903254,32.1942672 83.2026376,32.9571865 82.9381763,33.4497701 C82.7870737,33.7315554 82.611571,34.0973038 82.8201155,34.3396518 C82.9471992,34.487605 83.1638771,34.5102496 83.3584423,34.5224624 C84.0187696,34.5638079 84.8069432,34.5457431 85.1734528,33.9942581 C85.2664781,33.8543196 85.3221408,33.6900827 85.4302891,33.5613393 C85.8768615,33.0294457 86.7204436,33.449134 87.303504,33.8263319 C88.284972,34.4615256 89.7041165,34.8551344 90.5324486,34.0296244 C90.7711119,33.7917289 90.9300937,33.4740685 91.2040863,33.2777729 C91.7322465,32.8996845 92.4825491,33.1093379 93.0232906,33.4689798 C93.5641591,33.8286218 94.0240753,34.3260396 94.6298837,34.559737 C95.9676946,35.0759829 97.6148274,33.8253142 97.5343834,32.3923438 C97.4538122,30.9592462 95.7585147,29.8982578 94.414985,30.3992377 C93.8222663,30.6203406 93.2961394,31.0820105 92.6636435,31.0863358 C91.9903536,31.0910428 91.4428767,30.5807761 90.8533351,30.2551011 C89.7390645,29.6394988 88.2876407,29.6922938 87.2210266,30.3872793 C86.693756,30.7306376 86.0699018,31.2377239 85.5228061,30.9271876 C85.3429826,30.8250325 85.2189488,30.6497277 85.0682274,30.5081353 C84.1489034,29.6439514 83.2975692,30.6372604 82.4717788,31.1135602" id="path-11"></path>
        <filter x="-55.1%" y="-175.2%" width="210.1%" height="450.4%" filterUnits="objectBoundingBox" id="filter-12">
            <feGaussianBlur stdDeviation="7.5" in="SourceAlpha" result="shadowBlurInner1"></feGaussianBlur>
            <feOffset dx="0" dy="1" in="shadowBlurInner1" result="shadowOffsetInner1"></feOffset>
            <feComposite in="shadowOffsetInner1" in2="SourceAlpha" operator="arithmetic" k2="-1" k3="1" result="shadowInnerInner1"></feComposite>
            <feColorMatrix values="0 0 0 0 1   0 0 0 0 1   0 0 0 0 1  0 0 0 0.5 0" type="matrix" in="shadowInnerInner1"></feColorMatrix>
        </filter>
        <linearGradient x1="50%" y1="0%" x2="50%" y2="100%" id="linearGradient-13">
            <stop stop-color="#FFFFFF" stop-opacity="0.144258086" offset="0%"></stop>
            <stop stop-color="#FFFFFF" stop-opacity="0.478010271" offset="86.0795455%"></stop>
            <stop stop-color="#DDE0EB" stop-opacity="0.552201705" offset="100%"></stop>
        </linearGradient>
        <linearGradient x1="50%" y1="0%" x2="50%" y2="100%" id="linearGradient-14">
            <stop stop-color="#FFFFFF" stop-opacity="0.144258086" offset="0%"></stop>
            <stop stop-color="#FFFFFF" stop-opacity="0.478010271" offset="86.0795455%"></stop>
            <stop stop-color="#DDE0EB" stop-opacity="0.552201705" offset="100%"></stop>
        </linearGradient>
        <path d="M44.834508,40.6023583 C44.9316,40.598669 45.028692,40.5944709 45.1254027,40.5891278 C45.178905,40.5860746 45.2321531,40.5826397 45.2855283,40.5790776 C45.3756307,40.5732257 45.465606,40.5666104 45.5553272,40.5592318 C45.6093378,40.5547792 45.6632213,40.5501994 45.7171048,40.5452379 C45.8094947,40.5367144 45.9015034,40.5270459 45.9933849,40.5169958 C46.0425664,40.5115255 46.0918749,40.506564 46.1409292,40.5007121 C46.2583546,40.4867182 46.3755258,40.4711978 46.4923158,40.4546596 C46.5145555,40.4516064 46.5369222,40.449062 46.5590348,40.4457544 C46.6950145,40.4260358 46.8303587,40.4041545 46.9651946,40.381001 C47.0160281,40.3722231 47.0666074,40.3625546 47.1173138,40.3532678 C47.2033496,40.3376201 47.2893853,40.321718 47.3751668,40.3046709 C47.4332441,40.2932214 47.4911943,40.2810086 47.5491445,40.2687958 C47.6275552,40.2523848 47.7057117,40.235465 47.7836141,40.217909 C47.8434705,40.2044241 47.9031999,40.1906846 47.9628022,40.1765636 C48.0393066,40.1583716 48.1155569,40.1394163 48.1918072,40.1200793 C48.250774,40.1051949 48.3099951,40.090565 48.3688349,40.0749173 C48.4513122,40.053036 48.5334084,40.0300098 48.6155045,40.0068563 C48.6850193,39.9872649 48.7545341,39.9676735 48.8236677,39.9471916 C48.9288931,39.9160235 49.0337372,39.8842193 49.1382001,39.8510157 C49.2022503,39.830661 49.2657922,39.8090342 49.3295882,39.7879162 C49.3950364,39.7661621 49.4606116,39.7445352 49.5258056,39.7218906 C49.5935412,39.6984827 49.6610227,39.6743115 49.7285042,39.6498859 C49.7886148,39.628259 49.8485984,39.6063777 49.9083277,39.5839876 C49.9779696,39.5580353 50.0474845,39.5315742 50.1167451,39.5046043 C50.1727891,39.4828502 50.2284518,39.4605873 50.2841145,39.4381971 C50.3556626,39.4094461 50.4272108,39.3806951 50.4983777,39.3510536 C50.5469237,39.3306989 50.5950885,39.3095809 50.6433803,39.2888445 C50.9148312,39.1723139 51.182978,39.0489136 51.4478206,38.9182619 C51.4864541,38.8991794 51.5253417,38.8804785 51.5638481,38.8611415 C51.64264,38.8215771 51.7209236,38.7809949 51.7990802,38.7401583 C51.8393657,38.7191676 51.8795242,38.6980496 51.9195556,38.6768044 C51.9983475,38.6348228 52.0767582,38.5923324 52.1547876,38.5492059 C52.1911336,38.5291056 52.2272254,38.5087509 52.2634443,38.4883962 C52.3454133,38.4423437 52.4273823,38.3960368 52.5085889,38.3485849 C52.5301931,38.3358633 52.5516703,38.3228871 52.5732745,38.3101655 C52.8658214,38.1375322 53.1536661,37.9563754 53.4363004,37.7666951 C53.4500255,37.7575355 53.4637505,37.7485031 53.4773485,37.7393435 C53.56313,37.6814599 53.6482762,37.6224313 53.7330411,37.5628938 C53.7573141,37.5459739 53.7815871,37.5289269 53.805733,37.5118798 C53.8887187,37.4531057 53.9713231,37.393441 54.0534192,37.3331402 C54.075786,37.3167292 54.0980257,37.3000638 54.1203924,37.2835256 C54.2059198,37.2201716 54.2910659,37.1561816 54.3755766,37.0911738 C54.3833287,37.0851946 54.3909538,37.0790882 54.3987059,37.0732362 C54.6897277,36.8484441 54.9746495,36.6143651 55.2528359,36.3712537 C54.1037444,33.9854293 51.9193014,32.1147058 49.3781342,31.3693424 C44.2472539,31.9377472 38.5401757,30.1410639 34.7577812,26.624409 C34.6015953,26.4790002 34.4333364,26.3236684 34.2222502,26.2933908 C34.0294641,26.2656576 33.8394739,26.3483485 33.6646066,26.4340927 C32.5054755,27.0023702 29.942704,28.5428388 28.3176838,29.8727636 C31.3313485,36.2764772 37.3482569,40.6364524 44.2673331,40.6151582 C44.4109378,40.6145711 44.5540341,40.6118996 44.6968763,40.6077014 C44.7428806,40.606302 44.7886307,40.6041393 44.834508,40.6023583" id="path-15"></path>
        <filter x="-32.0%" y="-59.3%" width="164.0%" height="218.7%" filterUnits="objectBoundingBox" id="filter-16">
            <feGaussianBlur stdDeviation="7.5" in="SourceAlpha" result="shadowBlurInner1"></feGaussianBlur>
            <feOffset dx="0" dy="1" in="shadowBlurInner1" result="shadowOffsetInner1"></feOffset>
            <feComposite in="shadowOffsetInner1" in2="SourceAlpha" operator="arithmetic" k2="-1" k3="1" result="shadowInnerInner1"></feComposite>
            <feColorMatrix values="0 0 0 0 1   0 0 0 0 1   0 0 0 0 1  0 0 0 0.5 0" type="matrix" in="shadowInnerInner1"></feColorMatrix>
        </filter>
        <linearGradient x1="50%" y1="0%" x2="50%" y2="100%" id="linearGradient-17">
            <stop stop-color="#FFFFFF" stop-opacity="0.144258086" offset="0%"></stop>
            <stop stop-color="#FFFFFF" stop-opacity="0.478010271" offset="86.0795455%"></stop>
            <stop stop-color="#DDE0EB" stop-opacity="0.552201705" offset="100%"></stop>
        </linearGradient>
        <path d="M49.642621,29.4303925 C49.2245154,30.9353676 50.3976257,32.7451542 49.4830038,34.0107073 C49.0365584,34.628345 48.2247473,34.8635689 47.4647863,34.9131835 C44.6961392,35.0939586 42.194368,33.3982855 39.9409184,31.7780519 C38.7962749,30.9550862 37.6159208,30.093065 36.9233142,28.864532 C35.9963651,27.2205089 36.103878,25.1506911 36.763824,23.3823772 C37.423643,21.613936 38.5774366,20.0811004 39.7155989,18.5759981 L49.642621,29.4303925 Z" id="path-18"></path>
        <filter x="-58.9%" y="-48.9%" width="217.7%" height="197.9%" filterUnits="objectBoundingBox" id="filter-19">
            <feGaussianBlur stdDeviation="7.5" in="SourceAlpha" result="shadowBlurInner1"></feGaussianBlur>
            <feOffset dx="0" dy="1" in="shadowBlurInner1" result="shadowOffsetInner1"></feOffset>
            <feComposite in="shadowOffsetInner1" in2="SourceAlpha" operator="arithmetic" k2="-1" k3="1" result="shadowInnerInner1"></feComposite>
            <feColorMatrix values="0 0 0 0 1   0 0 0 0 1   0 0 0 0 1  0 0 0 0.5 0" type="matrix" in="shadowInnerInner1"></feColorMatrix>
        </filter>
        <linearGradient x1="50%" y1="0%" x2="50%" y2="100%" id="linearGradient-20">
            <stop stop-color="#FFFFFF" stop-opacity="0.144258086" offset="0%"></stop>
            <stop stop-color="#FFFFFF" stop-opacity="0.478010271" offset="86.0795455%"></stop>
            <stop stop-color="#DDE0EB" stop-opacity="0.552201705" offset="100%"></stop>
        </linearGradient>
        <path d="M56.1648272,18.8950197 C56.883486,20.6168995 58.8668825,21.7488749 59.0538227,23.6056045 C59.2318671,25.3758267 57.6613658,26.8911064 57.5457195,28.6665445 C57.4756964,29.7425444 57.9187104,30.957338 57.2778269,31.8240662 C56.8552734,32.3956514 56.1020478,32.5895299 55.4089329,32.7456249 C54.0010989,33.0626493 51.5800258,33.4764856 50.4233093,32.6129378 C49.4154079,31.8605775 48.425044,30.668683 48.619101,29.4252657 C48.8131579,28.1817211 50.9055922,26.6838702 51.4017273,25.5274692 C52.4557601,23.0704033 53.0740227,20.3879092 52.8798387,17.7210628 C52.6857818,15.0540892 51.6321302,12.4051803 49.7148173,10.543362 C51.1640806,11.3821026 54.002878,11.7190999 55.1036777,12.9636622 C56.4275094,14.4603682 55.4235476,17.1192 56.1648272,18.8950197" id="path-21"></path>
        <filter x="-96.7%" y="-46.3%" width="277.9%" height="184.0%" filterUnits="objectBoundingBox" id="filter-22">
            <feGaussianBlur stdDeviation="7.5" in="SourceAlpha" result="shadowBlurInner1"></feGaussianBlur>
            <feOffset dx="0" dy="1" in="shadowBlurInner1" result="shadowOffsetInner1"></feOffset>
            <feComposite in="shadowOffsetInner1" in2="SourceAlpha" operator="arithmetic" k2="-1" k3="1" result="shadowInnerInner1"></feComposite>
            <feColorMatrix values="0 0 0 0 1   0 0 0 0 1   0 0 0 0 1  0 0 0 0.5 0" type="matrix" in="shadowInnerInner1"></feColorMatrix>
        </filter>
        <linearGradient x1="50%" y1="0%" x2="50%" y2="100%" id="linearGradient-23">
            <stop stop-color="#FFFFFF" stop-opacity="0.144258086" offset="0%"></stop>
            <stop stop-color="#FFFFFF" stop-opacity="0.478010271" offset="86.0795455%"></stop>
            <stop stop-color="#DDE0EB" stop-opacity="0.552201705" offset="100%"></stop>
        </linearGradient>
        <linearGradient x1="50%" y1="0%" x2="50%" y2="100%" id="linearGradient-24">
            <stop stop-color="#FFFFFF" stop-opacity="0.144258086" offset="0%"></stop>
            <stop stop-color="#FFFFFF" stop-opacity="0.478010271" offset="86.0795455%"></stop>
            <stop stop-color="#DDE0EB" stop-opacity="0.552201705" offset="100%"></stop>
        </linearGradient>
        <path d="M38.6909097,14.8988083 C38.3982358,16.3558227 37.3703822,17.5321967 36.5799211,18.7902439 C35.78946,20.0482912 35.2185997,21.673359 35.9075209,22.989926 C36.3939976,23.9193721 37.476243,24.6618095 37.34433,25.7028249 C37.1368022,27.3401055 34.2446297,27.4696122 34.0346873,29.1066384 C33.9504307,29.7644766 34.3722218,30.4569178 34.1214855,31.0708663 C33.6901631,32.1272748 32.0718783,31.6364723 31.2318546,30.8646478 C28.2828756,28.1549293 26.9842065,23.2288392 29.4665338,20.0851841 C30.0231608,19.3801484 30.7362279,18.7974953 31.2028795,18.0298689 C31.9050173,16.8749946 31.9639842,15.4588168 32.2189143,14.1313092 C32.8345081,10.9260811 34.7435606,7.98915336 37.421597,6.12720783 C40.1546606,4.22697003 43.293757,3.10975182 46.5474829,4.08499604 C43.7576128,4.49272598 42.6100463,4.47949543 40.7701274,5.49990163 C36.7894823,7.7074953 39.4404498,11.1672842 38.6909097,14.8988083" id="path-25"></path>
        <filter x="-46.2%" y="-30.4%" width="202.2%" height="160.9%" filterUnits="objectBoundingBox" id="filter-26">
            <feGaussianBlur stdDeviation="7.5" in="SourceAlpha" result="shadowBlurInner1"></feGaussianBlur>
            <feOffset dx="0" dy="1" in="shadowBlurInner1" result="shadowOffsetInner1"></feOffset>
            <feComposite in="shadowOffsetInner1" in2="SourceAlpha" operator="arithmetic" k2="-1" k3="1" result="shadowInnerInner1"></feComposite>
            <feColorMatrix values="0 0 0 0 1   0 0 0 0 1   0 0 0 0 1  0 0 0 0.5 0" type="matrix" in="shadowInnerInner1"></feColorMatrix>
        </filter>
        <path d="M103.039398,0 L103.164703,40.7521307 L0.125304603,41.0696639 L0,0.317533209 L103.039398,0 Z M102.018,4.712 L1.049,5.023 L1.139,34.164 L1.16316375,34.2187447 C1.57755104,35.0296179 2.84259257,35.0024608 3.71891607,34.634515 C4.63696927,34.249048 5.62085186,33.6530372 6.5542822,33.9993214 C7.10989246,34.2054126 7.51719597,34.7177148 8.08386252,34.8908569 C9.35571695,35.2796316 10.4406311,33.8353389 11.7452732,33.5781064 C13.4839063,33.2353843 15.0836369,35.063999 16.8329451,34.7806871 C17.6635646,34.646219 18.3495628,34.0521164 19.1590865,33.8229988 C21.3582712,33.2002725 23.431516,35.3777157 25.7168635,35.3875114 C27.4192778,35.39489 28.9036163,34.202105 30.5862055,33.9429643 C32.4637412,33.6538005 34.3307289,34.5661996 35.826632,35.7382482 C37.3224081,36.9104241 38.5928646,38.3617137 40.1576471,39.4400036 C40.2241278,39.4858493 40.3005449,39.5307469 40.3788295,39.5616949 L40.3500783,39.6704876 C40.3313709,39.7474596 40.3133599,39.8298198 40.2951758,39.910852 L46.406,39.891 L53.025464,35.997707 L53.1953841,35.9971833 C53.22335,35.9970971 53.2546789,35.9970006 53.2893043,35.9968939 L53.5360848,35.9961334 C55.7707555,35.9892468 64.99424,35.9608235 74.31372,35.9321153 L75.5034312,35.9284505 C84.2240145,35.901588 92.7716672,35.8752684 95.491016,35.8669281 C99.5407335,35.8544243 101.345134,34.4778408 102.107954,33.5301581 L102.018,4.712 Z M40.5317818,39.2970118 C40.5838861,39.0877402 40.9140497,39.4022202 40.7484596,39.539996 C40.6449657,39.6261059 40.5093038,39.6132749 40.3788295,39.5616949 C40.422992,39.4043437 40.4704687,39.2972076 40.5317818,39.2970118 Z" id="path-27"></path>
        <filter x="-7.8%" y="-19.5%" width="115.5%" height="139.0%" filterUnits="objectBoundingBox" id="filter-28">
            <feGaussianBlur stdDeviation="7.5" in="SourceAlpha" result="shadowBlurInner1"></feGaussianBlur>
            <feOffset dx="0" dy="1" in="shadowBlurInner1" result="shadowOffsetInner1"></feOffset>
            <feComposite in="shadowOffsetInner1" in2="SourceAlpha" operator="arithmetic" k2="-1" k3="1" result="shadowInnerInner1"></feComposite>
            <feColorMatrix values="0 0 0 0 1   0 0 0 0 1   0 0 0 0 1  0 0 0 0.5 0" type="matrix" in="shadowInnerInner1"></feColorMatrix>
        </filter>
        <linearGradient x1="50%" y1="0%" x2="50%" y2="100%" id="linearGradient-29">
            <stop stop-color="#FFFFFF" stop-opacity="0.144258086" offset="0%"></stop>
            <stop stop-color="#FFFFFF" stop-opacity="0.478010271" offset="86.0795455%"></stop>
            <stop stop-color="#DDE0EB" stop-opacity="0.552201705" offset="100%"></stop>
        </linearGradient>
        <polygon id="path-30" points="4.70119741 11.0662486 4.69458905 8.93727496 25.2295481 8.87404819 25.2361564 11.0030219"></polygon>
        <filter x="-38.9%" y="-364.9%" width="177.9%" height="829.9%" filterUnits="objectBoundingBox" id="filter-31">
            <feGaussianBlur stdDeviation="7.5" in="SourceAlpha" result="shadowBlurInner1"></feGaussianBlur>
            <feOffset dx="0" dy="1" in="shadowBlurInner1" result="shadowOffsetInner1"></feOffset>
            <feComposite in="shadowOffsetInner1" in2="SourceAlpha" operator="arithmetic" k2="-1" k3="1" result="shadowInnerInner1"></feComposite>
            <feColorMatrix values="0 0 0 0 1   0 0 0 0 1   0 0 0 0 1  0 0 0 0.5 0" type="matrix" in="shadowInnerInner1"></feColorMatrix>
        </filter>
        <path d="M8.91589208,20.1673534 C8.9067681,17.1913701 11.309414,14.7713243 14.2822847,14.7621386 C17.2552826,14.7530051 19.6726702,17.1581665 19.6818462,20.1341498 C19.6909702,23.1102604 17.2883244,25.5301789 14.3154536,25.5393646 C11.3425828,25.5484981 8.92506816,23.1433367 8.91589208,20.1673534" id="path-32"></path>
        <filter x="-79.0%" y="-78.9%" width="257.9%" height="257.7%" filterUnits="objectBoundingBox" id="filter-33">
            <feGaussianBlur stdDeviation="7.5" in="SourceAlpha" result="shadowBlurInner1"></feGaussianBlur>
            <feOffset dx="0" dy="1" in="shadowBlurInner1" result="shadowOffsetInner1"></feOffset>
            <feComposite in="shadowOffsetInner1" in2="SourceAlpha" operator="arithmetic" k2="-1" k3="1" result="shadowInnerInner1"></feComposite>
            <feColorMatrix values="0 0 0 0 1   0 0 0 0 1   0 0 0 0 1  0 0 0 0.5 0" type="matrix" in="shadowInnerInner1"></feColorMatrix>
        </filter>
        <path d="M72.7163434,20.7690381 C72.7068394,17.6827578 75.1984439,15.1731514 78.2814963,15.1637101 C81.3645487,15.1541961 83.8715304,17.6484093 83.8810882,20.7346896 C83.8904658,23.8208427 81.3988613,26.3304491 78.315936,26.3400176 C75.2328836,26.3495316 72.725902,23.8553184 72.7163434,20.7690381" id="path-34"></path>
        <filter x="-76.1%" y="-76.1%" width="252.3%" height="252.1%" filterUnits="objectBoundingBox" id="filter-35">
            <feGaussianBlur stdDeviation="7.5" in="SourceAlpha" result="shadowBlurInner1"></feGaussianBlur>
            <feOffset dx="0" dy="1" in="shadowBlurInner1" result="shadowOffsetInner1"></feOffset>
            <feComposite in="shadowOffsetInner1" in2="SourceAlpha" operator="arithmetic" k2="-1" k3="1" result="shadowInnerInner1"></feComposite>
            <feColorMatrix values="0 0 0 0 1   0 0 0 0 1   0 0 0 0 1  0 0 0 0.5 0" type="matrix" in="shadowInnerInner1"></feColorMatrix>
        </filter>
        <path d="M82.4717788,31.1135602 C82.2693344,31.2303453 82.0344836,31.4248598 82.1093359,31.6464715 C82.1921945,31.8916184 82.5400228,31.8701187 82.7775424,31.9727827 C83.2903254,32.1942672 83.2026376,32.9571865 82.9381763,33.4497701 C82.7870737,33.7315554 82.611571,34.0973038 82.8201155,34.3396518 C82.9471992,34.487605 83.1638771,34.5102496 83.3584423,34.5224624 C84.0187696,34.5638079 84.8069432,34.5457431 85.1734528,33.9942581 C85.2664781,33.8543196 85.3221408,33.6900827 85.4302891,33.5613393 C85.8768615,33.0294457 86.7204436,33.449134 87.303504,33.8263319 C88.284972,34.4615256 89.7041165,34.8551344 90.5324486,34.0296244 C90.7711119,33.7917289 90.9300937,33.4740685 91.2040863,33.2777729 C91.7322465,32.8996845 92.4825491,33.1093379 93.0232906,33.4689798 C93.5641591,33.8286218 94.0240753,34.3260396 94.6298837,34.559737 C95.9676946,35.0759829 97.6148274,33.8253142 97.5343834,32.3923438 C97.4538122,30.9592462 95.7585147,29.8982578 94.414985,30.3992377 C93.8222663,30.6203406 93.2961394,31.0820105 92.6636435,31.0863358 C91.9903536,31.0910428 91.4428767,30.5807761 90.8533351,30.2551011 C89.7390645,29.6394988 88.2876407,29.6922938 87.2210266,30.3872793 C86.693756,30.7306376 86.0699018,31.2377239 85.5228061,30.9271876 C85.3429826,30.8250325 85.2189488,30.6497277 85.0682274,30.5081353 C84.1489034,29.6439514 83.2975692,30.6372604 82.4717788,31.1135602" id="path-36"></path>
        <filter x="-55.1%" y="-175.2%" width="210.1%" height="450.4%" filterUnits="objectBoundingBox" id="filter-37">
            <feGaussianBlur stdDeviation="7.5" in="SourceAlpha" result="shadowBlurInner1"></feGaussianBlur>
            <feOffset dx="0" dy="1" in="shadowBlurInner1" result="shadowOffsetInner1"></feOffset>
            <feComposite in="shadowOffsetInner1" in2="SourceAlpha" operator="arithmetic" k2="-1" k3="1" result="shadowInnerInner1"></feComposite>
            <feColorMatrix values="0 0 0 0 1   0 0 0 0 1   0 0 0 0 1  0 0 0 0.5 0" type="matrix" in="shadowInnerInner1"></feColorMatrix>
        </filter>
        <path d="M44.834508,40.6023583 C44.9316,40.598669 45.028692,40.5944709 45.1254027,40.5891278 C45.178905,40.5860746 45.2321531,40.5826397 45.2855283,40.5790776 C45.3756307,40.5732257 45.465606,40.5666104 45.5553272,40.5592318 C45.6093378,40.5547792 45.6632213,40.5501994 45.7171048,40.5452379 C45.8094947,40.5367144 45.9015034,40.5270459 45.9933849,40.5169958 C46.0425664,40.5115255 46.0918749,40.506564 46.1409292,40.5007121 C46.2583546,40.4867182 46.3755258,40.4711978 46.4923158,40.4546596 C46.5145555,40.4516064 46.5369222,40.449062 46.5590348,40.4457544 C46.6950145,40.4260358 46.8303587,40.4041545 46.9651946,40.381001 C47.0160281,40.3722231 47.0666074,40.3625546 47.1173138,40.3532678 C47.2033496,40.3376201 47.2893853,40.321718 47.3751668,40.3046709 C47.4332441,40.2932214 47.4911943,40.2810086 47.5491445,40.2687958 C47.6275552,40.2523848 47.7057117,40.235465 47.7836141,40.217909 C47.8434705,40.2044241 47.9031999,40.1906846 47.9628022,40.1765636 C48.0393066,40.1583716 48.1155569,40.1394163 48.1918072,40.1200793 C48.250774,40.1051949 48.3099951,40.090565 48.3688349,40.0749173 C48.4513122,40.053036 48.5334084,40.0300098 48.6155045,40.0068563 C48.6850193,39.9872649 48.7545341,39.9676735 48.8236677,39.9471916 C48.9288931,39.9160235 49.0337372,39.8842193 49.1382001,39.8510157 C49.2022503,39.830661 49.2657922,39.8090342 49.3295882,39.7879162 C49.3950364,39.7661621 49.4606116,39.7445352 49.5258056,39.7218906 C49.5935412,39.6984827 49.6610227,39.6743115 49.7285042,39.6498859 C49.7886148,39.628259 49.8485984,39.6063777 49.9083277,39.5839876 C49.9779696,39.5580353 50.0474845,39.5315742 50.1167451,39.5046043 C50.1727891,39.4828502 50.2284518,39.4605873 50.2841145,39.4381971 C50.3556626,39.4094461 50.4272108,39.3806951 50.4983777,39.3510536 C50.5469237,39.3306989 50.5950885,39.3095809 50.6433803,39.2888445 C50.9148312,39.1723139 51.182978,39.0489136 51.4478206,38.9182619 C51.4864541,38.8991794 51.5253417,38.8804785 51.5638481,38.8611415 C51.64264,38.8215771 51.7209236,38.7809949 51.7990802,38.7401583 C51.8393657,38.7191676 51.8795242,38.6980496 51.9195556,38.6768044 C51.9983475,38.6348228 52.0767582,38.5923324 52.1547876,38.5492059 C52.1911336,38.5291056 52.2272254,38.5087509 52.2634443,38.4883962 C52.3454133,38.4423437 52.4273823,38.3960368 52.5085889,38.3485849 C52.5301931,38.3358633 52.5516703,38.3228871 52.5732745,38.3101655 C52.8658214,38.1375322 53.1536661,37.9563754 53.4363004,37.7666951 C53.4500255,37.7575355 53.4637505,37.7485031 53.4773485,37.7393435 C53.56313,37.6814599 53.6482762,37.6224313 53.7330411,37.5628938 C53.7573141,37.5459739 53.7815871,37.5289269 53.805733,37.5118798 C53.8887187,37.4531057 53.9713231,37.393441 54.0534192,37.3331402 C54.075786,37.3167292 54.0980257,37.3000638 54.1203924,37.2835256 C54.2059198,37.2201716 54.2910659,37.1561816 54.3755766,37.0911738 C54.3833287,37.0851946 54.3909538,37.0790882 54.3987059,37.0732362 C54.6897277,36.8484441 54.9746495,36.6143651 55.2528359,36.3712537 C54.1037444,33.9854293 51.9193014,32.1147058 49.3781342,31.3693424 C44.2472539,31.9377472 38.5401757,30.1410639 34.7577812,26.624409 C34.6015953,26.4790002 34.4333364,26.3236684 34.2222502,26.2933908 C34.0294641,26.2656576 33.8394739,26.3483485 33.6646066,26.4340927 C32.5054755,27.0023702 29.942704,28.5428388 28.3176838,29.8727636 C31.3313485,36.2764772 37.3482569,40.6364524 44.2673331,40.6151582 C44.4109378,40.6145711 44.5540341,40.6118996 44.6968763,40.6077014 C44.7428806,40.606302 44.7886307,40.6041393 44.834508,40.6023583" id="path-38"></path>
        <filter x="-32.0%" y="-59.3%" width="164.0%" height="218.7%" filterUnits="objectBoundingBox" id="filter-39">
            <feGaussianBlur stdDeviation="7.5" in="SourceAlpha" result="shadowBlurInner1"></feGaussianBlur>
            <feOffset dx="0" dy="1" in="shadowBlurInner1" result="shadowOffsetInner1"></feOffset>
            <feComposite in="shadowOffsetInner1" in2="SourceAlpha" operator="arithmetic" k2="-1" k3="1" result="shadowInnerInner1"></feComposite>
            <feColorMatrix values="0 0 0 0 1   0 0 0 0 1   0 0 0 0 1  0 0 0 0.5 0" type="matrix" in="shadowInnerInner1"></feColorMatrix>
        </filter>
        <path d="M49.642621,29.4303925 C49.2245154,30.9353676 50.3976257,32.7451542 49.4830038,34.0107073 C49.0365584,34.628345 48.2247473,34.8635689 47.4647863,34.9131835 C44.6961392,35.0939586 42.194368,33.3982855 39.9409184,31.7780519 C38.7962749,30.9550862 37.6159208,30.093065 36.9233142,28.864532 C35.9963651,27.2205089 36.103878,25.1506911 36.763824,23.3823772 C37.423643,21.613936 38.5774366,20.0811004 39.7155989,18.5759981 L49.642621,29.4303925 Z" id="path-40"></path>
        <filter x="-58.9%" y="-48.9%" width="217.7%" height="197.9%" filterUnits="objectBoundingBox" id="filter-41">
            <feGaussianBlur stdDeviation="7.5" in="SourceAlpha" result="shadowBlurInner1"></feGaussianBlur>
            <feOffset dx="0" dy="1" in="shadowBlurInner1" result="shadowOffsetInner1"></feOffset>
            <feComposite in="shadowOffsetInner1" in2="SourceAlpha" operator="arithmetic" k2="-1" k3="1" result="shadowInnerInner1"></feComposite>
            <feColorMatrix values="0 0 0 0 1   0 0 0 0 1   0 0 0 0 1  0 0 0 0.5 0" type="matrix" in="shadowInnerInner1"></feColorMatrix>
        </filter>
        <path d="M56.1648272,18.8950197 C56.883486,20.6168995 58.8668825,21.7488749 59.0538227,23.6056045 C59.2318671,25.3758267 57.6613658,26.8911064 57.5457195,28.6665445 C57.4756964,29.7425444 57.9187104,30.957338 57.2778269,31.8240662 C56.8552734,32.3956514 56.1020478,32.5895299 55.4089329,32.7456249 C54.0010989,33.0626493 51.5800258,33.4764856 50.4233093,32.6129378 C49.4154079,31.8605775 48.425044,30.668683 48.619101,29.4252657 C48.8131579,28.1817211 50.9055922,26.6838702 51.4017273,25.5274692 C52.4557601,23.0704033 53.0740227,20.3879092 52.8798387,17.7210628 C52.6857818,15.0540892 51.6321302,12.4051803 49.7148173,10.543362 C51.1640806,11.3821026 54.002878,11.7190999 55.1036777,12.9636622 C56.4275094,14.4603682 55.4235476,17.1192 56.1648272,18.8950197" id="path-42"></path>
        <filter x="-96.7%" y="-46.3%" width="277.9%" height="184.0%" filterUnits="objectBoundingBox" id="filter-43">
            <feGaussianBlur stdDeviation="7.5" in="SourceAlpha" result="shadowBlurInner1"></feGaussianBlur>
            <feOffset dx="0" dy="1" in="shadowBlurInner1" result="shadowOffsetInner1"></feOffset>
            <feComposite in="shadowOffsetInner1" in2="SourceAlpha" operator="arithmetic" k2="-1" k3="1" result="shadowInnerInner1"></feComposite>
            <feColorMatrix values="0 0 0 0 1   0 0 0 0 1   0 0 0 0 1  0 0 0 0.5 0" type="matrix" in="shadowInnerInner1"></feColorMatrix>
        </filter>
        <path d="M38.6909097,14.8988083 C38.3982358,16.3558227 37.3703822,17.5321967 36.5799211,18.7902439 C35.78946,20.0482912 35.2185997,21.673359 35.9075209,22.989926 C36.3939976,23.9193721 37.476243,24.6618095 37.34433,25.7028249 C37.1368022,27.3401055 34.2446297,27.4696122 34.0346873,29.1066384 C33.9504307,29.7644766 34.3722218,30.4569178 34.1214855,31.0708663 C33.6901631,32.1272748 32.0718783,31.6364723 31.2318546,30.8646478 C28.2828756,28.1549293 26.9842065,23.2288392 29.4665338,20.0851841 C30.0231608,19.3801484 30.7362279,18.7974953 31.2028795,18.0298689 C31.9050173,16.8749946 31.9639842,15.4588168 32.2189143,14.1313092 C32.8345081,10.9260811 34.7435606,7.98915336 37.421597,6.12720783 C40.1546606,4.22697003 43.293757,3.10975182 46.5474829,4.08499604 C43.7576128,4.49272598 42.6100463,4.47949543 40.7701274,5.49990163 C36.7894823,7.7074953 39.4404498,11.1672842 38.6909097,14.8988083" id="path-44"></path>
        <filter x="-46.2%" y="-30.4%" width="202.2%" height="160.9%" filterUnits="objectBoundingBox" id="filter-45">
            <feGaussianBlur stdDeviation="7.5" in="SourceAlpha" result="shadowBlurInner1"></feGaussianBlur>
            <feOffset dx="0" dy="1" in="shadowBlurInner1" result="shadowOffsetInner1"></feOffset>
            <feComposite in="shadowOffsetInner1" in2="SourceAlpha" operator="arithmetic" k2="-1" k3="1" result="shadowInnerInner1"></feComposite>
            <feColorMatrix values="0 0 0 0 1   0 0 0 0 1   0 0 0 0 1  0 0 0 0.5 0" type="matrix" in="shadowInnerInner1"></feColorMatrix>
        </filter>
        <path d="M103.039398,0 L103.164703,40.7521307 L0.125304603,41.0696639 L0,0.317533209 L103.039398,0 Z M102.018,4.712 L1.049,5.023 L1.139,34.164 L1.16316375,34.2187447 C1.57755104,35.0296179 2.84259257,35.0024608 3.71891607,34.634515 C4.63696927,34.249048 5.62085186,33.6530372 6.5542822,33.9993214 C7.10989246,34.2054126 7.51719597,34.7177148 8.08386252,34.8908569 C9.35571695,35.2796316 10.4406311,33.8353389 11.7452732,33.5781064 C13.4839063,33.2353843 15.0836369,35.063999 16.8329451,34.7806871 C17.6635646,34.646219 18.3495628,34.0521164 19.1590865,33.8229988 C21.3582712,33.2002725 23.431516,35.3777157 25.7168635,35.3875114 C27.4192778,35.39489 28.9036163,34.202105 30.5862055,33.9429643 C32.4637412,33.6538005 34.3307289,34.5661996 35.826632,35.7382482 C37.3224081,36.9104241 38.5928646,38.3617137 40.1576471,39.4400036 C40.2241278,39.4858493 40.3005449,39.5307469 40.3788295,39.5616949 L40.3500783,39.6704876 C40.3313709,39.7474596 40.3133599,39.8298198 40.2951758,39.910852 L46.406,39.891 L53.025464,35.997707 L53.1953841,35.9971833 C53.22335,35.9970971 53.2546789,35.9970006 53.2893043,35.9968939 L53.5360848,35.9961334 C55.7707555,35.9892468 64.99424,35.9608235 74.31372,35.9321153 L75.5034312,35.9284505 C84.2240145,35.901588 92.7716672,35.8752684 95.491016,35.8669281 C99.5407335,35.8544243 101.345134,34.4778408 102.107954,33.5301581 L102.018,4.712 Z M40.5317818,39.2970118 C40.5838861,39.0877402 40.9140497,39.4022202 40.7484596,39.539996 C40.6449657,39.6261059 40.5093038,39.6132749 40.3788295,39.5616949 C40.422992,39.4043437 40.4704687,39.2972076 40.5317818,39.2970118 Z" id="path-46"></path>
        <filter x="-7.8%" y="-19.5%" width="115.5%" height="139.0%" filterUnits="objectBoundingBox" id="filter-47">
            <feGaussianBlur stdDeviation="7.5" in="SourceAlpha" result="shadowBlurInner1"></feGaussianBlur>
            <feOffset dx="0" dy="1" in="shadowBlurInner1" result="shadowOffsetInner1"></feOffset>
            <feComposite in="shadowOffsetInner1" in2="SourceAlpha" operator="arithmetic" k2="-1" k3="1" result="shadowInnerInner1"></feComposite>
            <feColorMatrix values="0 0 0 0 1   0 0 0 0 1   0 0 0 0 1  0 0 0 0.5 0" type="matrix" in="shadowInnerInner1"></feColorMatrix>
        </filter>
        <path d="M8.91589208,20.1673534 C8.9067681,17.1913701 11.309414,14.7713243 14.2822847,14.7621386 C17.2552826,14.7530051 19.6726702,17.1581665 19.6818462,20.1341498 C19.6909702,23.1102604 17.2883244,25.5301789 14.3154536,25.5393646 C11.3425828,25.5484981 8.92506816,23.1433367 8.91589208,20.1673534" id="path-48"></path>
        <filter x="-79.0%" y="-78.9%" width="257.9%" height="257.7%" filterUnits="objectBoundingBox" id="filter-49">
            <feGaussianBlur stdDeviation="7.5" in="SourceAlpha" result="shadowBlurInner1"></feGaussianBlur>
            <feOffset dx="0" dy="1" in="shadowBlurInner1" result="shadowOffsetInner1"></feOffset>
            <feComposite in="shadowOffsetInner1" in2="SourceAlpha" operator="arithmetic" k2="-1" k3="1" result="shadowInnerInner1"></feComposite>
            <feColorMatrix values="0 0 0 0 1   0 0 0 0 1   0 0 0 0 1  0 0 0 0.5 0" type="matrix" in="shadowInnerInner1"></feColorMatrix>
        </filter>
        <path d="M72.7163434,20.7690381 C72.7068394,17.6827578 75.1984439,15.1731514 78.2814963,15.1637101 C81.3645487,15.1541961 83.8715304,17.6484093 83.8810882,20.7346896 C83.8904658,23.8208427 81.3988613,26.3304491 78.315936,26.3400176 C75.2328836,26.3495316 72.725902,23.8553184 72.7163434,20.7690381" id="path-50"></path>
        <filter x="-76.1%" y="-76.1%" width="252.3%" height="252.1%" filterUnits="objectBoundingBox" id="filter-51">
            <feGaussianBlur stdDeviation="7.5" in="SourceAlpha" result="shadowBlurInner1"></feGaussianBlur>
            <feOffset dx="0" dy="1" in="shadowBlurInner1" result="shadowOffsetInner1"></feOffset>
            <feComposite in="shadowOffsetInner1" in2="SourceAlpha" operator="arithmetic" k2="-1" k3="1" result="shadowInnerInner1"></feComposite>
            <feColorMatrix values="0 0 0 0 1   0 0 0 0 1   0 0 0 0 1  0 0 0 0.5 0" type="matrix" in="shadowInnerInner1"></feColorMatrix>
        </filter>
        <path d="M82.4717788,31.1135602 C82.2693344,31.2303453 82.0344836,31.4248598 82.1093359,31.6464715 C82.1921945,31.8916184 82.5400228,31.8701187 82.7775424,31.9727827 C83.2903254,32.1942672 83.2026376,32.9571865 82.9381763,33.4497701 C82.7870737,33.7315554 82.611571,34.0973038 82.8201155,34.3396518 C82.9471992,34.487605 83.1638771,34.5102496 83.3584423,34.5224624 C84.0187696,34.5638079 84.8069432,34.5457431 85.1734528,33.9942581 C85.2664781,33.8543196 85.3221408,33.6900827 85.4302891,33.5613393 C85.8768615,33.0294457 86.7204436,33.449134 87.303504,33.8263319 C88.284972,34.4615256 89.7041165,34.8551344 90.5324486,34.0296244 C90.7711119,33.7917289 90.9300937,33.4740685 91.2040863,33.2777729 C91.7322465,32.8996845 92.4825491,33.1093379 93.0232906,33.4689798 C93.5641591,33.8286218 94.0240753,34.3260396 94.6298837,34.559737 C95.9676946,35.0759829 97.6148274,33.8253142 97.5343834,32.3923438 C97.4538122,30.9592462 95.7585147,29.8982578 94.414985,30.3992377 C93.8222663,30.6203406 93.2961394,31.0820105 92.6636435,31.0863358 C91.9903536,31.0910428 91.4428767,30.5807761 90.8533351,30.2551011 C89.7390645,29.6394988 88.2876407,29.6922938 87.2210266,30.3872793 C86.693756,30.7306376 86.0699018,31.2377239 85.5228061,30.9271876 C85.3429826,30.8250325 85.2189488,30.6497277 85.0682274,30.5081353 C84.1489034,29.6439514 83.2975692,30.6372604 82.4717788,31.1135602" id="path-52"></path>
        <filter x="-55.1%" y="-175.2%" width="210.1%" height="450.4%" filterUnits="objectBoundingBox" id="filter-53">
            <feGaussianBlur stdDeviation="7.5" in="SourceAlpha" result="shadowBlurInner1"></feGaussianBlur>
            <feOffset dx="0" dy="1" in="shadowBlurInner1" result="shadowOffsetInner1"></feOffset>
            <feComposite in="shadowOffsetInner1" in2="SourceAlpha" operator="arithmetic" k2="-1" k3="1" result="shadowInnerInner1"></feComposite>
            <feColorMatrix values="0 0 0 0 1   0 0 0 0 1   0 0 0 0 1  0 0 0 0.5 0" type="matrix" in="shadowInnerInner1"></feColorMatrix>
        </filter>
        <path d="M44.834508,40.6023583 C44.9316,40.598669 45.028692,40.5944709 45.1254027,40.5891278 C45.178905,40.5860746 45.2321531,40.5826397 45.2855283,40.5790776 C45.3756307,40.5732257 45.465606,40.5666104 45.5553272,40.5592318 C45.6093378,40.5547792 45.6632213,40.5501994 45.7171048,40.5452379 C45.8094947,40.5367144 45.9015034,40.5270459 45.9933849,40.5169958 C46.0425664,40.5115255 46.0918749,40.506564 46.1409292,40.5007121 C46.2583546,40.4867182 46.3755258,40.4711978 46.4923158,40.4546596 C46.5145555,40.4516064 46.5369222,40.449062 46.5590348,40.4457544 C46.6950145,40.4260358 46.8303587,40.4041545 46.9651946,40.381001 C47.0160281,40.3722231 47.0666074,40.3625546 47.1173138,40.3532678 C47.2033496,40.3376201 47.2893853,40.321718 47.3751668,40.3046709 C47.4332441,40.2932214 47.4911943,40.2810086 47.5491445,40.2687958 C47.6275552,40.2523848 47.7057117,40.235465 47.7836141,40.217909 C47.8434705,40.2044241 47.9031999,40.1906846 47.9628022,40.1765636 C48.0393066,40.1583716 48.1155569,40.1394163 48.1918072,40.1200793 C48.250774,40.1051949 48.3099951,40.090565 48.3688349,40.0749173 C48.4513122,40.053036 48.5334084,40.0300098 48.6155045,40.0068563 C48.6850193,39.9872649 48.7545341,39.9676735 48.8236677,39.9471916 C48.9288931,39.9160235 49.0337372,39.8842193 49.1382001,39.8510157 C49.2022503,39.830661 49.2657922,39.8090342 49.3295882,39.7879162 C49.3950364,39.7661621 49.4606116,39.7445352 49.5258056,39.7218906 C49.5935412,39.6984827 49.6610227,39.6743115 49.7285042,39.6498859 C49.7886148,39.628259 49.8485984,39.6063777 49.9083277,39.5839876 C49.9779696,39.5580353 50.0474845,39.5315742 50.1167451,39.5046043 C50.1727891,39.4828502 50.2284518,39.4605873 50.2841145,39.4381971 C50.3556626,39.4094461 50.4272108,39.3806951 50.4983777,39.3510536 C50.5469237,39.3306989 50.5950885,39.3095809 50.6433803,39.2888445 C50.9148312,39.1723139 51.182978,39.0489136 51.4478206,38.9182619 C51.4864541,38.8991794 51.5253417,38.8804785 51.5638481,38.8611415 C51.64264,38.8215771 51.7209236,38.7809949 51.7990802,38.7401583 C51.8393657,38.7191676 51.8795242,38.6980496 51.9195556,38.6768044 C51.9983475,38.6348228 52.0767582,38.5923324 52.1547876,38.5492059 C52.1911336,38.5291056 52.2272254,38.5087509 52.2634443,38.4883962 C52.3454133,38.4423437 52.4273823,38.3960368 52.5085889,38.3485849 C52.5301931,38.3358633 52.5516703,38.3228871 52.5732745,38.3101655 C52.8658214,38.1375322 53.1536661,37.9563754 53.4363004,37.7666951 C53.4500255,37.7575355 53.4637505,37.7485031 53.4773485,37.7393435 C53.56313,37.6814599 53.6482762,37.6224313 53.7330411,37.5628938 C53.7573141,37.5459739 53.7815871,37.5289269 53.805733,37.5118798 C53.8887187,37.4531057 53.9713231,37.393441 54.0534192,37.3331402 C54.075786,37.3167292 54.0980257,37.3000638 54.1203924,37.2835256 C54.2059198,37.2201716 54.2910659,37.1561816 54.3755766,37.0911738 C54.3833287,37.0851946 54.3909538,37.0790882 54.3987059,37.0732362 C54.6897277,36.8484441 54.9746495,36.6143651 55.2528359,36.3712537 C54.1037444,33.9854293 51.9193014,32.1147058 49.3781342,31.3693424 C44.2472539,31.9377472 38.5401757,30.1410639 34.7577812,26.624409 C34.6015953,26.4790002 34.4333364,26.3236684 34.2222502,26.2933908 C34.0294641,26.2656576 33.8394739,26.3483485 33.6646066,26.4340927 C32.5054755,27.0023702 29.942704,28.5428388 28.3176838,29.8727636 C31.3313485,36.2764772 37.3482569,40.6364524 44.2673331,40.6151582 C44.4109378,40.6145711 44.5540341,40.6118996 44.6968763,40.6077014 C44.7428806,40.606302 44.7886307,40.6041393 44.834508,40.6023583" id="path-54"></path>
        <filter x="-32.0%" y="-59.3%" width="164.0%" height="218.7%" filterUnits="objectBoundingBox" id="filter-55">
            <feGaussianBlur stdDeviation="7.5" in="SourceAlpha" result="shadowBlurInner1"></feGaussianBlur>
            <feOffset dx="0" dy="1" in="shadowBlurInner1" result="shadowOffsetInner1"></feOffset>
            <feComposite in="shadowOffsetInner1" in2="SourceAlpha" operator="arithmetic" k2="-1" k3="1" result="shadowInnerInner1"></feComposite>
            <feColorMatrix values="0 0 0 0 1   0 0 0 0 1   0 0 0 0 1  0 0 0 0.5 0" type="matrix" in="shadowInnerInner1"></feColorMatrix>
        </filter>
        <path d="M49.642621,29.4303925 C49.2245154,30.9353676 50.3976257,32.7451542 49.4830038,34.0107073 C49.0365584,34.628345 48.2247473,34.8635689 47.4647863,34.9131835 C44.6961392,35.0939586 42.194368,33.3982855 39.9409184,31.7780519 C38.7962749,30.9550862 37.6159208,30.093065 36.9233142,28.864532 C35.9963651,27.2205089 36.103878,25.1506911 36.763824,23.3823772 C37.423643,21.613936 38.5774366,20.0811004 39.7155989,18.5759981 L49.642621,29.4303925 Z" id="path-56"></path>
        <filter x="-58.9%" y="-48.9%" width="217.7%" height="197.9%" filterUnits="objectBoundingBox" id="filter-57">
            <feGaussianBlur stdDeviation="7.5" in="SourceAlpha" result="shadowBlurInner1"></feGaussianBlur>
            <feOffset dx="0" dy="1" in="shadowBlurInner1" result="shadowOffsetInner1"></feOffset>
            <feComposite in="shadowOffsetInner1" in2="SourceAlpha" operator="arithmetic" k2="-1" k3="1" result="shadowInnerInner1"></feComposite>
            <feColorMatrix values="0 0 0 0 1   0 0 0 0 1   0 0 0 0 1  0 0 0 0.5 0" type="matrix" in="shadowInnerInner1"></feColorMatrix>
        </filter>
        <path d="M56.1648272,18.8950197 C56.883486,20.6168995 58.8668825,21.7488749 59.0538227,23.6056045 C59.2318671,25.3758267 57.6613658,26.8911064 57.5457195,28.6665445 C57.4756964,29.7425444 57.9187104,30.957338 57.2778269,31.8240662 C56.8552734,32.3956514 56.1020478,32.5895299 55.4089329,32.7456249 C54.0010989,33.0626493 51.5800258,33.4764856 50.4233093,32.6129378 C49.4154079,31.8605775 48.425044,30.668683 48.619101,29.4252657 C48.8131579,28.1817211 50.9055922,26.6838702 51.4017273,25.5274692 C52.4557601,23.0704033 53.0740227,20.3879092 52.8798387,17.7210628 C52.6857818,15.0540892 51.6321302,12.4051803 49.7148173,10.543362 C51.1640806,11.3821026 54.002878,11.7190999 55.1036777,12.9636622 C56.4275094,14.4603682 55.4235476,17.1192 56.1648272,18.8950197" id="path-58"></path>
        <filter x="-96.7%" y="-46.3%" width="277.9%" height="184.0%" filterUnits="objectBoundingBox" id="filter-59">
            <feGaussianBlur stdDeviation="7.5" in="SourceAlpha" result="shadowBlurInner1"></feGaussianBlur>
            <feOffset dx="0" dy="1" in="shadowBlurInner1" result="shadowOffsetInner1"></feOffset>
            <feComposite in="shadowOffsetInner1" in2="SourceAlpha" operator="arithmetic" k2="-1" k3="1" result="shadowInnerInner1"></feComposite>
            <feColorMatrix values="0 0 0 0 1   0 0 0 0 1   0 0 0 0 1  0 0 0 0.5 0" type="matrix" in="shadowInnerInner1"></feColorMatrix>
        </filter>
        <path d="M38.6909097,14.8988083 C38.3982358,16.3558227 37.3703822,17.5321967 36.5799211,18.7902439 C35.78946,20.0482912 35.2185997,21.673359 35.9075209,22.989926 C36.3939976,23.9193721 37.476243,24.6618095 37.34433,25.7028249 C37.1368022,27.3401055 34.2446297,27.4696122 34.0346873,29.1066384 C33.9504307,29.7644766 34.3722218,30.4569178 34.1214855,31.0708663 C33.6901631,32.1272748 32.0718783,31.6364723 31.2318546,30.8646478 C28.2828756,28.1549293 26.9842065,23.2288392 29.4665338,20.0851841 C30.0231608,19.3801484 30.7362279,18.7974953 31.2028795,18.0298689 C31.9050173,16.8749946 31.9639842,15.4588168 32.2189143,14.1313092 C32.8345081,10.9260811 34.7435606,7.98915336 37.421597,6.12720783 C40.1546606,4.22697003 43.293757,3.10975182 46.5474829,4.08499604 C43.7576128,4.49272598 42.6100463,4.47949543 40.7701274,5.49990163 C36.7894823,7.7074953 39.4404498,11.1672842 38.6909097,14.8988083" id="path-60"></path>
        <filter x="-46.2%" y="-30.4%" width="202.2%" height="160.9%" filterUnits="objectBoundingBox" id="filter-61">
            <feGaussianBlur stdDeviation="7.5" in="SourceAlpha" result="shadowBlurInner1"></feGaussianBlur>
            <feOffset dx="0" dy="1" in="shadowBlurInner1" result="shadowOffsetInner1"></feOffset>
            <feComposite in="shadowOffsetInner1" in2="SourceAlpha" operator="arithmetic" k2="-1" k3="1" result="shadowInnerInner1"></feComposite>
            <feColorMatrix values="0 0 0 0 1   0 0 0 0 1   0 0 0 0 1  0 0 0 0.5 0" type="matrix" in="shadowInnerInner1"></feColorMatrix>
        </filter>
    </defs>
    <g id="2.0" stroke="none" stroke-width="1" fill="none" fill-rule="evenodd">
        <g id="Online-Quote" transform="translate(-1316, -2224)">
            <g id="Group-18" transform="translate(239, 2048)">
                <g id="Group-20-Copy-2" transform="translate(1003, 112)">
                    <g id="Group-66" transform="translate(74, 64)">
                        <g id="Group-41" transform="translate(81.1061, 92.7891) rotate(-15) translate(-81.1061, -92.7891)translate(27.6078, 70.6709)">
                            <polygon id="Fill-1" fill="#1272F4" points="106.86157 0 0 0.329237158 0.135090054 44.2363452 106.99666 43.9071081"></polygon>
                            <g id="Group-40" transform="translate(1.9156, 1.4836)">
                                <g id="Combined-Shape">
                                    <use fill-opacity="0.49" fill="url(#linearGradient-1)" fill-rule="evenodd" xlink:href="#path-2"></use>
                                    <use fill="black" fill-opacity="1" filter="url(#filter-3)" xlink:href="#path-2"></use>
                                    <path stroke-opacity="0.314821897" stroke="#FFFFFF" stroke-width="1" d="M102.540938,0.501538463 L102.663168,40.2536739 L0.623764837,40.5681254 L0.501535018,0.815990019 L102.540938,0.501538463 Z M102.516437,4.21046237 L0.54704707,4.52454372 L0.66359002,34.328735 C0.905148881,34.9093002 1.4219316,35.2416415 2.05925532,35.3453214 C2.6344073,35.4388872 3.30934029,35.3501213 4.37394492,34.891833 C5.03255985,34.5940804 5.71725997,34.2221005 6.38037363,34.4681026 C6.60279073,34.5506032 6.79366585,34.6969439 6.98697858,34.8372482 C7.28616309,35.0543933 7.58856676,35.2623405 7.93775789,35.3690341 C8.82584385,35.6405002 9.65167272,35.2162018 10.5034227,34.6999006 C10.9342735,34.4387338 11.3697549,34.1617723 11.8419946,34.0686622 C12.6231422,33.9146811 13.3655136,34.2891875 14.1096522,34.6265578 C15.0309545,35.044249 15.9551141,35.4293726 16.9128818,35.2742559 C17.4257973,35.1912205 17.8923258,34.9587523 18.3579699,34.7170737 C18.6627938,34.558864 18.9671816,34.3969536 19.2952516,34.3041008 C20.2647927,34.0295632 21.2019624,34.3848847 22.1446196,34.7980094 L22.5802196,34.9907037 C23.6015632,35.441677 24.6381275,35.8828922 25.7147204,35.8875068 C26.7338155,35.8919238 27.6834816,35.5078427 28.6363045,35.1074312 C29.2979626,34.8293779 29.9611467,34.5451268 30.6623146,34.4371378 C32.4089864,34.1681286 34.1335525,35.0469039 35.518259,36.1318293 C36.4078412,36.8289569 37.2156894,37.6272991 38.0860758,38.4857178 C38.7105987,39.1016536 39.3662772,39.7481267 40.1031928,40.4114783 L46.5344208,40.3905854 L53.6644665,36.4957402 L74.3152606,36.4321129 L75.5049714,36.4284481 L95.492555,36.3669257 C100.017049,36.3529561 101.868558,34.6958226 102.608487,33.7001629 L102.516437,4.21046237 Z" stroke-linejoin="square"></path>
                                </g>
                                <g id="Fill-16">
                                    <use fill-opacity="0.49" fill="url(#linearGradient-4)" fill-rule="evenodd" xlink:href="#path-5"></use>
                                    <use fill="black" fill-opacity="1" filter="url(#filter-6)" xlink:href="#path-5"></use>
                                    <path stroke-opacity="0.314821897" stroke="#FFFFFF" stroke-width="1" d="M8.91589208,20.1673534 C8.9067681,17.1913701 11.309414,14.7713243 14.2822847,14.7621386 C17.2552826,14.7530051 19.6726702,17.1581665 19.6818462,20.1341498 C19.6909702,23.1102604 17.2883244,25.5301789 14.3154536,25.5393646 C11.3425828,25.5484981 8.92506816,23.1433367 8.91589208,20.1673534" stroke-linejoin="square"></path>
                                </g>
                                <g id="Fill-18">
                                    <use fill-opacity="0.49" fill="url(#linearGradient-7)" fill-rule="evenodd" xlink:href="#path-8"></use>
                                    <use fill="black" fill-opacity="1" filter="url(#filter-9)" xlink:href="#path-8"></use>
                                    <path stroke-opacity="0.314821897" stroke="#FFFFFF" stroke-width="1" d="M72.7163434,20.7690381 C72.7068394,17.6827578 75.1984439,15.1731514 78.2814963,15.1637101 C81.3645487,15.1541961 83.8715304,17.6484093 83.8810882,20.7346896 C83.8904658,23.8208427 81.3988613,26.3304491 78.315936,26.3400176 C75.2328836,26.3495316 72.725902,23.8553184 72.7163434,20.7690381" stroke-linejoin="square"></path>
                                </g>
                                <g id="Fill-24">
                                    <use fill-opacity="0.49" fill="url(#linearGradient-10)" fill-rule="evenodd" xlink:href="#path-11"></use>
                                    <use fill="black" fill-opacity="1" filter="url(#filter-12)" xlink:href="#path-11"></use>
                                    <path stroke-opacity="0.314821897" stroke="#FFFFFF" stroke-width="1" d="M82.4717788,31.1135602 C82.2693344,31.2303453 82.0344836,31.4248598 82.1093359,31.6464715 C82.1921945,31.8916184 82.5400228,31.8701187 82.7775424,31.9727827 C83.2903254,32.1942672 83.2026376,32.9571865 82.9381763,33.4497701 C82.7870737,33.7315554 82.611571,34.0973038 82.8201155,34.3396518 C82.9471992,34.487605 83.1638771,34.5102496 83.3584423,34.5224624 C84.0187696,34.5638079 84.8069432,34.5457431 85.1734528,33.9942581 C85.2664781,33.8543196 85.3221408,33.6900827 85.4302891,33.5613393 C85.8768615,33.0294457 86.7204436,33.449134 87.303504,33.8263319 C88.284972,34.4615256 89.7041165,34.8551344 90.5324486,34.0296244 C90.7711119,33.7917289 90.9300937,33.4740685 91.2040863,33.2777729 C91.7322465,32.8996845 92.4825491,33.1093379 93.0232906,33.4689798 C93.5641591,33.8286218 94.0240753,34.3260396 94.6298837,34.559737 C95.9676946,35.0759829 97.6148274,33.8253142 97.5343834,32.3923438 C97.4538122,30.9592462 95.7585147,29.8982578 94.414985,30.3992377 C93.8222663,30.6203406 93.2961394,31.0820105 92.6636435,31.0863358 C91.9903536,31.0910428 91.4428767,30.5807761 90.8533351,30.2551011 C89.7390645,29.6394988 88.2876407,29.6922938 87.2210266,30.3872793 C86.693756,30.7306376 86.0699018,31.2377239 85.5228061,30.9271876 C85.3429826,30.8250325 85.2189488,30.6497277 85.0682274,30.5081353 C84.1489034,29.6439514 83.2975692,30.6372604 82.4717788,31.1135602" stroke-linejoin="square"></path>
                                </g>
                                <path d="M26.2624148,20.6128413 C26.2284647,9.53530856 34.2342342,0.530519627 44.1439729,0.499909748 C54.0538386,0.469455549 62.1148896,9.42475713 62.1490563,20.5022899 C62.1830065,31.5796954 54.1771099,40.5844843 44.2673712,40.6152214 C34.3576325,40.6456756 26.2965816,31.6903741 26.2624148,20.6128413" id="Fill-28" stroke-opacity="0.314821897" stroke="#FFFFFF" fill-opacity="0.49" fill="url(#linearGradient-13)"></path>
                                <g id="Fill-30">
                                    <use fill-opacity="0.49" fill="url(#linearGradient-14)" fill-rule="evenodd" xlink:href="#path-15"></use>
                                    <use fill="black" fill-opacity="1" filter="url(#filter-16)" xlink:href="#path-15"></use>
                                    <path stroke-opacity="0.314821897" stroke="#FFFFFF" stroke-width="1" d="M44.834508,40.6023583 C44.9316,40.598669 45.028692,40.5944709 45.1254027,40.5891278 C45.178905,40.5860746 45.2321531,40.5826397 45.2855283,40.5790776 C45.3756307,40.5732257 45.465606,40.5666104 45.5553272,40.5592318 C45.6093378,40.5547792 45.6632213,40.5501994 45.7171048,40.5452379 C45.8094947,40.5367144 45.9015034,40.5270459 45.9933849,40.5169958 C46.0425664,40.5115255 46.0918749,40.506564 46.1409292,40.5007121 C46.2583546,40.4867182 46.3755258,40.4711978 46.4923158,40.4546596 C46.5145555,40.4516064 46.5369222,40.449062 46.5590348,40.4457544 C46.6950145,40.4260358 46.8303587,40.4041545 46.9651946,40.381001 C47.0160281,40.3722231 47.0666074,40.3625546 47.1173138,40.3532678 C47.2033496,40.3376201 47.2893853,40.321718 47.3751668,40.3046709 C47.4332441,40.2932214 47.4911943,40.2810086 47.5491445,40.2687958 C47.6275552,40.2523848 47.7057117,40.235465 47.7836141,40.217909 C47.8434705,40.2044241 47.9031999,40.1906846 47.9628022,40.1765636 C48.0393066,40.1583716 48.1155569,40.1394163 48.1918072,40.1200793 C48.250774,40.1051949 48.3099951,40.090565 48.3688349,40.0749173 C48.4513122,40.053036 48.5334084,40.0300098 48.6155045,40.0068563 C48.6850193,39.9872649 48.7545341,39.9676735 48.8236677,39.9471916 C48.9288931,39.9160235 49.0337372,39.8842193 49.1382001,39.8510157 C49.2022503,39.830661 49.2657922,39.8090342 49.3295882,39.7879162 C49.3950364,39.7661621 49.4606116,39.7445352 49.5258056,39.7218906 C49.5935412,39.6984827 49.6610227,39.6743115 49.7285042,39.6498859 C49.7886148,39.628259 49.8485984,39.6063777 49.9083277,39.5839876 C49.9779696,39.5580353 50.0474845,39.5315742 50.1167451,39.5046043 C50.1727891,39.4828502 50.2284518,39.4605873 50.2841145,39.4381971 C50.3556626,39.4094461 50.4272108,39.3806951 50.4983777,39.3510536 C50.5469237,39.3306989 50.5950885,39.3095809 50.6433803,39.2888445 C50.9148312,39.1723139 51.182978,39.0489136 51.4478206,38.9182619 C51.4864541,38.8991794 51.5253417,38.8804785 51.5638481,38.8611415 C51.64264,38.8215771 51.7209236,38.7809949 51.7990802,38.7401583 C51.8393657,38.7191676 51.8795242,38.6980496 51.9195556,38.6768044 C51.9983475,38.6348228 52.0767582,38.5923324 52.1547876,38.5492059 C52.1911336,38.5291056 52.2272254,38.5087509 52.2634443,38.4883962 C52.3454133,38.4423437 52.4273823,38.3960368 52.5085889,38.3485849 C52.5301931,38.3358633 52.5516703,38.3228871 52.5732745,38.3101655 C52.8658214,38.1375322 53.1536661,37.9563754 53.4363004,37.7666951 C53.4500255,37.7575355 53.4637505,37.7485031 53.4773485,37.7393435 C53.56313,37.6814599 53.6482762,37.6224313 53.7330411,37.5628938 C53.7573141,37.5459739 53.7815871,37.5289269 53.805733,37.5118798 C53.8887187,37.4531057 53.9713231,37.393441 54.0534192,37.3331402 C54.075786,37.3167292 54.0980257,37.3000638 54.1203924,37.2835256 C54.2059198,37.2201716 54.2910659,37.1561816 54.3755766,37.0911738 C54.3833287,37.0851946 54.3909538,37.0790882 54.3987059,37.0732362 C54.6897277,36.8484441 54.9746495,36.6143651 55.2528359,36.3712537 C54.1037444,33.9854293 51.9193014,32.1147058 49.3781342,31.3693424 C44.2472539,31.9377472 38.5401757,30.1410639 34.7577812,26.624409 C34.6015953,26.4790002 34.4333364,26.3236684 34.2222502,26.2933908 C34.0294641,26.2656576 33.8394739,26.3483485 33.6646066,26.4340927 C32.5054755,27.0023702 29.942704,28.5428388 28.3176838,29.8727636 C31.3313485,36.2764772 37.3482569,40.6364524 44.2673331,40.6151582 C44.4109378,40.6145711 44.5540341,40.6118996 44.6968763,40.6077014 C44.7428806,40.606302 44.7886307,40.6041393 44.834508,40.6023583" stroke-linejoin="square"></path>
                                </g>
                                <g id="Fill-32">
                                    <use fill-opacity="0.49" fill="url(#linearGradient-17)" fill-rule="evenodd" xlink:href="#path-18"></use>
                                    <use fill="black" fill-opacity="1" filter="url(#filter-19)" xlink:href="#path-18"></use>
                                    <path stroke-opacity="0.314821897" stroke="#FFFFFF" stroke-width="1" d="M39.7524641,19.3571791 L49.0985734,29.5763926 C49.003047,30.1358702 49.0654957,30.7264758 49.1608244,31.3174495 C49.3426531,32.4205701 49.4941021,33.141741 49.0777805,33.7178009 C48.714321,34.2206314 48.0391732,34.3746198 47.4322088,34.4142459 C44.7743623,34.5877864 42.3882257,32.9218442 40.2327957,31.3720868 C39.1480326,30.5921734 38.0163827,29.7852736 37.3588543,28.6189616 C36.501669,27.0986706 36.6243061,25.1862155 37.2322794,23.5571615 C37.8053283,22.0212809 38.765512,20.670701 39.7524641,19.3571791 Z" stroke-linejoin="square"></path>
                                </g>
                                <g id="Fill-34">
                                    <use fill-opacity="0.49" fill="url(#linearGradient-20)" fill-rule="evenodd" xlink:href="#path-21"></use>
                                    <use fill="black" fill-opacity="1" filter="url(#filter-22)" xlink:href="#path-21"></use>
                                    <path stroke-opacity="0.314821897" stroke="#FFFFFF" stroke-width="1" d="M56.1648272,18.8950197 C56.883486,20.6168995 58.8668825,21.7488749 59.0538227,23.6056045 C59.2318671,25.3758267 57.6613658,26.8911064 57.5457195,28.6665445 C57.4756964,29.7425444 57.9187104,30.957338 57.2778269,31.8240662 C56.8552734,32.3956514 56.1020478,32.5895299 55.4089329,32.7456249 C54.0010989,33.0626493 51.5800258,33.4764856 50.4233093,32.6129378 C49.4154079,31.8605775 48.425044,30.668683 48.619101,29.4252657 C48.8131579,28.1817211 50.9055922,26.6838702 51.4017273,25.5274692 C52.4557601,23.0704033 53.0740227,20.3879092 52.8798387,17.7210628 C52.6857818,15.0540892 51.6321302,12.4051803 49.7148173,10.543362 C51.1640806,11.3821026 54.002878,11.7190999 55.1036777,12.9636622 C56.4275094,14.4603682 55.4235476,17.1192 56.1648272,18.8950197" stroke-linejoin="square"></path>
                                </g>
                                <path d="M44.7525771,3.89093742 C49.9361972,3.87494833 54.1375868,8.65194033 54.5467966,12.043541 C54.9560064,15.4351417 54.5597591,16.2346995 54.9694772,19.8259034 C55.3793224,23.4169801 52.6090232,30.2112494 49.6209024,31.0188219 C46.6327815,31.8262671 43.6348753,29.4405698 41.635085,27.4508986 C39.6352947,25.4613546 38.4323197,23.269663 38.4323197,23.269663 C38.4323197,23.269663 37.8373134,24.2693329 36.8391974,23.8733069 C35.8410815,23.4772809 35.4350192,21.083569 35.4350192,21.083569 C35.4350192,21.083569 35.40798,12.3021728 36.9919521,8.70486253 C38.5757972,5.10742499 44.7525771,3.89093742 44.7525771,3.89093742" id="Fill-36" stroke-opacity="0.314821897" stroke="#FFFFFF" fill-opacity="0.49" fill="url(#linearGradient-23)"></path>
                                <g id="Fill-38">
                                    <use fill-opacity="0.49" fill="url(#linearGradient-24)" fill-rule="evenodd" xlink:href="#path-25"></use>
                                    <use fill="black" fill-opacity="1" filter="url(#filter-26)" xlink:href="#path-25"></use>
                                    <path stroke-opacity="0.314821897" stroke="#FFFFFF" stroke-width="1" d="M38.6909097,14.8988083 C38.3982358,16.3558227 37.3703822,17.5321967 36.5799211,18.7902439 C35.78946,20.0482912 35.2185997,21.673359 35.9075209,22.989926 C36.3939976,23.9193721 37.476243,24.6618095 37.34433,25.7028249 C37.1368022,27.3401055 34.2446297,27.4696122 34.0346873,29.1066384 C33.9504307,29.7644766 34.3722218,30.4569178 34.1214855,31.0708663 C33.6901631,32.1272748 32.0718783,31.6364723 31.2318546,30.8646478 C28.2828756,28.1549293 26.9842065,23.2288392 29.4665338,20.0851841 C30.0231608,19.3801484 30.7362279,18.7974953 31.2028795,18.0298689 C31.9050173,16.8749946 31.9639842,15.4588168 32.2189143,14.1313092 C32.8345081,10.9260811 34.7435606,7.98915336 37.421597,6.12720783 C40.1546606,4.22697003 43.293757,3.10975182 46.5474829,4.08499604 C43.7576128,4.49272598 42.6100463,4.47949543 40.7701274,5.49990163 C36.7894823,7.7074953 39.4404498,11.1672842 38.6909097,14.8988083" stroke-linejoin="square"></path>
                                </g>
                            </g>
                        </g>
                        <g id="Group-41" transform="translate(63.688, 70.6709) rotate(-45) translate(-63.688, -70.6709)translate(10.1897, 48.5528)">
                            <polygon id="Fill-1" fill="#1272F4" points="106.86157 0 0 0.329237158 0.135090054 44.2363452 106.99666 43.9071081"></polygon>
                            <g id="Group-40" transform="translate(1.9156, 1.4836)">
                                <g id="Combined-Shape">
                                    <use fill-opacity="0.49" fill="url(#linearGradient-1)" fill-rule="evenodd" xlink:href="#path-27"></use>
                                    <use fill="black" fill-opacity="1" filter="url(#filter-28)" xlink:href="#path-27"></use>
                                    <path stroke-opacity="0.314821897" stroke="#FFFFFF" stroke-width="1" d="M102.540938,0.501538463 L102.663168,40.2536739 L0.623764837,40.5681254 L0.501535018,0.815990019 L102.540938,0.501538463 Z M102.516437,4.21046237 L0.54704707,4.52454372 L0.66359002,34.328735 C0.905148881,34.9093002 1.4219316,35.2416415 2.05925532,35.3453214 C2.6344073,35.4388872 3.30934029,35.3501213 4.37394492,34.891833 C5.03255985,34.5940804 5.71725997,34.2221005 6.38037363,34.4681026 C6.60279073,34.5506032 6.79366585,34.6969439 6.98697858,34.8372482 C7.28616309,35.0543933 7.58856676,35.2623405 7.93775789,35.3690341 C8.82584385,35.6405002 9.65167272,35.2162018 10.5034227,34.6999006 C10.9342735,34.4387338 11.3697549,34.1617723 11.8419946,34.0686622 C12.6231422,33.9146811 13.3655136,34.2891875 14.1096522,34.6265578 C15.0309545,35.044249 15.9551141,35.4293726 16.9128818,35.2742559 C17.4257973,35.1912205 17.8923258,34.9587523 18.3579699,34.7170737 C18.6627938,34.558864 18.9671816,34.3969536 19.2952516,34.3041008 C20.2647927,34.0295632 21.2019624,34.3848847 22.1446196,34.7980094 L22.5802196,34.9907037 C23.6015632,35.441677 24.6381275,35.8828922 25.7147204,35.8875068 C26.7338155,35.8919238 27.6834816,35.5078427 28.6363045,35.1074312 C29.2979626,34.8293779 29.9611467,34.5451268 30.6623146,34.4371378 C32.4089864,34.1681286 34.1335525,35.0469039 35.518259,36.1318293 C36.4078412,36.8289569 37.2156894,37.6272991 38.0860758,38.4857178 C38.7105987,39.1016536 39.3662772,39.7481267 40.1031928,40.4114783 L46.5344208,40.3905854 L53.6644665,36.4957402 L74.3152606,36.4321129 L75.5049714,36.4284481 L95.492555,36.3669257 C100.017049,36.3529561 101.868558,34.6958226 102.608487,33.7001629 L102.516437,4.21046237 Z" stroke-linejoin="square"></path>
                                </g>
                                <g id="Fill-14">
                                    <use fill-opacity="0.49" fill="url(#linearGradient-29)" fill-rule="evenodd" xlink:href="#path-30"></use>
                                    <use fill="black" fill-opacity="1" filter="url(#filter-31)" xlink:href="#path-30"></use>
                                    <path stroke-opacity="0.314821897" stroke="#FFFFFF" stroke-width="1" d="M24.7311024,9.37558527 L24.7346068,10.5045637 L5.19964304,10.5647115 L5.19613868,9.43573306 L24.7311024,9.37558527 Z" stroke-linejoin="square"></path>
                                </g>
                                <g id="Fill-16">
                                    <use fill-opacity="0.49" fill="url(#linearGradient-4)" fill-rule="evenodd" xlink:href="#path-32"></use>
                                    <use fill="black" fill-opacity="1" filter="url(#filter-33)" xlink:href="#path-32"></use>
                                    <path stroke-opacity="0.314821897" stroke="#FFFFFF" stroke-width="1" d="M8.91589208,20.1673534 C8.9067681,17.1913701 11.309414,14.7713243 14.2822847,14.7621386 C17.2552826,14.7530051 19.6726702,17.1581665 19.6818462,20.1341498 C19.6909702,23.1102604 17.2883244,25.5301789 14.3154536,25.5393646 C11.3425828,25.5484981 8.92506816,23.1433367 8.91589208,20.1673534" stroke-linejoin="square"></path>
                                </g>
                                <g id="Fill-18">
                                    <use fill-opacity="0.49" fill="url(#linearGradient-7)" fill-rule="evenodd" xlink:href="#path-34"></use>
                                    <use fill="black" fill-opacity="1" filter="url(#filter-35)" xlink:href="#path-34"></use>
                                    <path stroke-opacity="0.314821897" stroke="#FFFFFF" stroke-width="1" d="M72.7163434,20.7690381 C72.7068394,17.6827578 75.1984439,15.1731514 78.2814963,15.1637101 C81.3645487,15.1541961 83.8715304,17.6484093 83.8810882,20.7346896 C83.8904658,23.8208427 81.3988613,26.3304491 78.315936,26.3400176 C75.2328836,26.3495316 72.725902,23.8553184 72.7163434,20.7690381" stroke-linejoin="square"></path>
                                </g>
                                <g id="Fill-24">
                                    <use fill-opacity="0.49" fill="url(#linearGradient-10)" fill-rule="evenodd" xlink:href="#path-36"></use>
                                    <use fill="black" fill-opacity="1" filter="url(#filter-37)" xlink:href="#path-36"></use>
                                    <path stroke-opacity="0.314821897" stroke="#FFFFFF" stroke-width="1" d="M82.4717788,31.1135602 C82.2693344,31.2303453 82.0344836,31.4248598 82.1093359,31.6464715 C82.1921945,31.8916184 82.5400228,31.8701187 82.7775424,31.9727827 C83.2903254,32.1942672 83.2026376,32.9571865 82.9381763,33.4497701 C82.7870737,33.7315554 82.611571,34.0973038 82.8201155,34.3396518 C82.9471992,34.487605 83.1638771,34.5102496 83.3584423,34.5224624 C84.0187696,34.5638079 84.8069432,34.5457431 85.1734528,33.9942581 C85.2664781,33.8543196 85.3221408,33.6900827 85.4302891,33.5613393 C85.8768615,33.0294457 86.7204436,33.449134 87.303504,33.8263319 C88.284972,34.4615256 89.7041165,34.8551344 90.5324486,34.0296244 C90.7711119,33.7917289 90.9300937,33.4740685 91.2040863,33.2777729 C91.7322465,32.8996845 92.4825491,33.1093379 93.0232906,33.4689798 C93.5641591,33.8286218 94.0240753,34.3260396 94.6298837,34.559737 C95.9676946,35.0759829 97.6148274,33.8253142 97.5343834,32.3923438 C97.4538122,30.9592462 95.7585147,29.8982578 94.414985,30.3992377 C93.8222663,30.6203406 93.2961394,31.0820105 92.6636435,31.0863358 C91.9903536,31.0910428 91.4428767,30.5807761 90.8533351,30.2551011 C89.7390645,29.6394988 88.2876407,29.6922938 87.2210266,30.3872793 C86.693756,30.7306376 86.0699018,31.2377239 85.5228061,30.9271876 C85.3429826,30.8250325 85.2189488,30.6497277 85.0682274,30.5081353 C84.1489034,29.6439514 83.2975692,30.6372604 82.4717788,31.1135602" stroke-linejoin="square"></path>
                                </g>
                                <path d="M26.2624148,20.6128413 C26.2284647,9.53530856 34.2342342,0.530519627 44.1439729,0.499909748 C54.0538386,0.469455549 62.1148896,9.42475713 62.1490563,20.5022899 C62.1830065,31.5796954 54.1771099,40.5844843 44.2673712,40.6152214 C34.3576325,40.6456756 26.2965816,31.6903741 26.2624148,20.6128413" id="Fill-28" stroke-opacity="0.314821897" stroke="#FFFFFF" fill-opacity="0.49" fill="url(#linearGradient-13)"></path>
                                <g id="Fill-30">
                                    <use fill-opacity="0.49" fill="url(#linearGradient-14)" fill-rule="evenodd" xlink:href="#path-38"></use>
                                    <use fill="black" fill-opacity="1" filter="url(#filter-39)" xlink:href="#path-38"></use>
                                    <path stroke-opacity="0.314821897" stroke="#FFFFFF" stroke-width="1" d="M44.834508,40.6023583 C44.9316,40.598669 45.028692,40.5944709 45.1254027,40.5891278 C45.178905,40.5860746 45.2321531,40.5826397 45.2855283,40.5790776 C45.3756307,40.5732257 45.465606,40.5666104 45.5553272,40.5592318 C45.6093378,40.5547792 45.6632213,40.5501994 45.7171048,40.5452379 C45.8094947,40.5367144 45.9015034,40.5270459 45.9933849,40.5169958 C46.0425664,40.5115255 46.0918749,40.506564 46.1409292,40.5007121 C46.2583546,40.4867182 46.3755258,40.4711978 46.4923158,40.4546596 C46.5145555,40.4516064 46.5369222,40.449062 46.5590348,40.4457544 C46.6950145,40.4260358 46.8303587,40.4041545 46.9651946,40.381001 C47.0160281,40.3722231 47.0666074,40.3625546 47.1173138,40.3532678 C47.2033496,40.3376201 47.2893853,40.321718 47.3751668,40.3046709 C47.4332441,40.2932214 47.4911943,40.2810086 47.5491445,40.2687958 C47.6275552,40.2523848 47.7057117,40.235465 47.7836141,40.217909 C47.8434705,40.2044241 47.9031999,40.1906846 47.9628022,40.1765636 C48.0393066,40.1583716 48.1155569,40.1394163 48.1918072,40.1200793 C48.250774,40.1051949 48.3099951,40.090565 48.3688349,40.0749173 C48.4513122,40.053036 48.5334084,40.0300098 48.6155045,40.0068563 C48.6850193,39.9872649 48.7545341,39.9676735 48.8236677,39.9471916 C48.9288931,39.9160235 49.0337372,39.8842193 49.1382001,39.8510157 C49.2022503,39.830661 49.2657922,39.8090342 49.3295882,39.7879162 C49.3950364,39.7661621 49.4606116,39.7445352 49.5258056,39.7218906 C49.5935412,39.6984827 49.6610227,39.6743115 49.7285042,39.6498859 C49.7886148,39.628259 49.8485984,39.6063777 49.9083277,39.5839876 C49.9779696,39.5580353 50.0474845,39.5315742 50.1167451,39.5046043 C50.1727891,39.4828502 50.2284518,39.4605873 50.2841145,39.4381971 C50.3556626,39.4094461 50.4272108,39.3806951 50.4983777,39.3510536 C50.5469237,39.3306989 50.5950885,39.3095809 50.6433803,39.2888445 C50.9148312,39.1723139 51.182978,39.0489136 51.4478206,38.9182619 C51.4864541,38.8991794 51.5253417,38.8804785 51.5638481,38.8611415 C51.64264,38.8215771 51.7209236,38.7809949 51.7990802,38.7401583 C51.8393657,38.7191676 51.8795242,38.6980496 51.9195556,38.6768044 C51.9983475,38.6348228 52.0767582,38.5923324 52.1547876,38.5492059 C52.1911336,38.5291056 52.2272254,38.5087509 52.2634443,38.4883962 C52.3454133,38.4423437 52.4273823,38.3960368 52.5085889,38.3485849 C52.5301931,38.3358633 52.5516703,38.3228871 52.5732745,38.3101655 C52.8658214,38.1375322 53.1536661,37.9563754 53.4363004,37.7666951 C53.4500255,37.7575355 53.4637505,37.7485031 53.4773485,37.7393435 C53.56313,37.6814599 53.6482762,37.6224313 53.7330411,37.5628938 C53.7573141,37.5459739 53.7815871,37.5289269 53.805733,37.5118798 C53.8887187,37.4531057 53.9713231,37.393441 54.0534192,37.3331402 C54.075786,37.3167292 54.0980257,37.3000638 54.1203924,37.2835256 C54.2059198,37.2201716 54.2910659,37.1561816 54.3755766,37.0911738 C54.3833287,37.0851946 54.3909538,37.0790882 54.3987059,37.0732362 C54.6897277,36.8484441 54.9746495,36.6143651 55.2528359,36.3712537 C54.1037444,33.9854293 51.9193014,32.1147058 49.3781342,31.3693424 C44.2472539,31.9377472 38.5401757,30.1410639 34.7577812,26.624409 C34.6015953,26.4790002 34.4333364,26.3236684 34.2222502,26.2933908 C34.0294641,26.2656576 33.8394739,26.3483485 33.6646066,26.4340927 C32.5054755,27.0023702 29.942704,28.5428388 28.3176838,29.8727636 C31.3313485,36.2764772 37.3482569,40.6364524 44.2673331,40.6151582 C44.4109378,40.6145711 44.5540341,40.6118996 44.6968763,40.6077014 C44.7428806,40.606302 44.7886307,40.6041393 44.834508,40.6023583" stroke-linejoin="square"></path>
                                </g>
                                <g id="Fill-32">
                                    <use fill-opacity="0.49" fill="url(#linearGradient-17)" fill-rule="evenodd" xlink:href="#path-40"></use>
                                    <use fill="black" fill-opacity="1" filter="url(#filter-41)" xlink:href="#path-40"></use>
                                    <path stroke-opacity="0.314821897" stroke="#FFFFFF" stroke-width="1" d="M39.7524641,19.3571791 L49.0985734,29.5763926 C49.003047,30.1358702 49.0654957,30.7264758 49.1608244,31.3174495 C49.3426531,32.4205701 49.4941021,33.141741 49.0777805,33.7178009 C48.714321,34.2206314 48.0391732,34.3746198 47.4322088,34.4142459 C44.7743623,34.5877864 42.3882257,32.9218442 40.2327957,31.3720868 C39.1480326,30.5921734 38.0163827,29.7852736 37.3588543,28.6189616 C36.501669,27.0986706 36.6243061,25.1862155 37.2322794,23.5571615 C37.8053283,22.0212809 38.765512,20.670701 39.7524641,19.3571791 Z" stroke-linejoin="square"></path>
                                </g>
                                <g id="Fill-34">
                                    <use fill-opacity="0.49" fill="url(#linearGradient-20)" fill-rule="evenodd" xlink:href="#path-42"></use>
                                    <use fill="black" fill-opacity="1" filter="url(#filter-43)" xlink:href="#path-42"></use>
                                    <path stroke-opacity="0.314821897" stroke="#FFFFFF" stroke-width="1" d="M56.1648272,18.8950197 C56.883486,20.6168995 58.8668825,21.7488749 59.0538227,23.6056045 C59.2318671,25.3758267 57.6613658,26.8911064 57.5457195,28.6665445 C57.4756964,29.7425444 57.9187104,30.957338 57.2778269,31.8240662 C56.8552734,32.3956514 56.1020478,32.5895299 55.4089329,32.7456249 C54.0010989,33.0626493 51.5800258,33.4764856 50.4233093,32.6129378 C49.4154079,31.8605775 48.425044,30.668683 48.619101,29.4252657 C48.8131579,28.1817211 50.9055922,26.6838702 51.4017273,25.5274692 C52.4557601,23.0704033 53.0740227,20.3879092 52.8798387,17.7210628 C52.6857818,15.0540892 51.6321302,12.4051803 49.7148173,10.543362 C51.1640806,11.3821026 54.002878,11.7190999 55.1036777,12.9636622 C56.4275094,14.4603682 55.4235476,17.1192 56.1648272,18.8950197" stroke-linejoin="square"></path>
                                </g>
                                <path d="M44.7525771,3.89093742 C49.9361972,3.87494833 54.1375868,8.65194033 54.5467966,12.043541 C54.9560064,15.4351417 54.5597591,16.2346995 54.9694772,19.8259034 C55.3793224,23.4169801 52.6090232,30.2112494 49.6209024,31.0188219 C46.6327815,31.8262671 43.6348753,29.4405698 41.635085,27.4508986 C39.6352947,25.4613546 38.4323197,23.269663 38.4323197,23.269663 C38.4323197,23.269663 37.8373134,24.2693329 36.8391974,23.8733069 C35.8410815,23.4772809 35.4350192,21.083569 35.4350192,21.083569 C35.4350192,21.083569 35.40798,12.3021728 36.9919521,8.70486253 C38.5757972,5.10742499 44.7525771,3.89093742 44.7525771,3.89093742" id="Fill-36" stroke-opacity="0.314821897" stroke="#FFFFFF" fill-opacity="0.49" fill="url(#linearGradient-23)"></path>
                                <g id="Fill-38">
                                    <use fill-opacity="0.49" fill="url(#linearGradient-24)" fill-rule="evenodd" xlink:href="#path-44"></use>
                                    <use fill="black" fill-opacity="1" filter="url(#filter-45)" xlink:href="#path-44"></use>
                                    <path stroke-opacity="0.314821897" stroke="#FFFFFF" stroke-width="1" d="M38.6909097,14.8988083 C38.3982358,16.3558227 37.3703822,17.5321967 36.5799211,18.7902439 C35.78946,20.0482912 35.2185997,21.673359 35.9075209,22.989926 C36.3939976,23.9193721 37.476243,24.6618095 37.34433,25.7028249 C37.1368022,27.3401055 34.2446297,27.4696122 34.0346873,29.1066384 C33.9504307,29.7644766 34.3722218,30.4569178 34.1214855,31.0708663 C33.6901631,32.1272748 32.0718783,31.6364723 31.2318546,30.8646478 C28.2828756,28.1549293 26.9842065,23.2288392 29.4665338,20.0851841 C30.0231608,19.3801484 30.7362279,18.7974953 31.2028795,18.0298689 C31.9050173,16.8749946 31.9639842,15.4588168 32.2189143,14.1313092 C32.8345081,10.9260811 34.7435606,7.98915336 37.421597,6.12720783 C40.1546606,4.22697003 43.293757,3.10975182 46.5474829,4.08499604 C43.7576128,4.49272598 42.6100463,4.47949543 40.7701274,5.49990163 C36.7894823,7.7074953 39.4404498,11.1672842 38.6909097,14.8988083" stroke-linejoin="square"></path>
                                </g>
                            </g>
                        </g>
                        <g id="Group-41" transform="translate(35.2109, 57.4) rotate(-75) translate(-35.2109, -57.4)translate(-18.2874, 35.2819)">
                            <polygon id="Fill-1" fill="#1272F4" points="106.86157 0 0 0.329237158 0.135090054 44.2363452 106.99666 43.9071081"></polygon>
                            <g id="Group-40" transform="translate(1.9156, 1.4836)">
                                <g id="Combined-Shape">
                                    <use fill-opacity="0.49" fill="url(#linearGradient-1)" fill-rule="evenodd" xlink:href="#path-46"></use>
                                    <use fill="black" fill-opacity="1" filter="url(#filter-47)" xlink:href="#path-46"></use>
                                    <path stroke-opacity="0.314821897" stroke="#FFFFFF" stroke-width="1" d="M102.540938,0.501538463 L102.663168,40.2536739 L0.623764837,40.5681254 L0.501535018,0.815990019 L102.540938,0.501538463 Z M102.516437,4.21046237 L0.54704707,4.52454372 L0.66359002,34.328735 C0.905148881,34.9093002 1.4219316,35.2416415 2.05925532,35.3453214 C2.6344073,35.4388872 3.30934029,35.3501213 4.37394492,34.891833 C5.03255985,34.5940804 5.71725997,34.2221005 6.38037363,34.4681026 C6.60279073,34.5506032 6.79366585,34.6969439 6.98697858,34.8372482 C7.28616309,35.0543933 7.58856676,35.2623405 7.93775789,35.3690341 C8.82584385,35.6405002 9.65167272,35.2162018 10.5034227,34.6999006 C10.9342735,34.4387338 11.3697549,34.1617723 11.8419946,34.0686622 C12.6231422,33.9146811 13.3655136,34.2891875 14.1096522,34.6265578 C15.0309545,35.044249 15.9551141,35.4293726 16.9128818,35.2742559 C17.4257973,35.1912205 17.8923258,34.9587523 18.3579699,34.7170737 C18.6627938,34.558864 18.9671816,34.3969536 19.2952516,34.3041008 C20.2647927,34.0295632 21.2019624,34.3848847 22.1446196,34.7980094 L22.5802196,34.9907037 C23.6015632,35.441677 24.6381275,35.8828922 25.7147204,35.8875068 C26.7338155,35.8919238 27.6834816,35.5078427 28.6363045,35.1074312 C29.2979626,34.8293779 29.9611467,34.5451268 30.6623146,34.4371378 C32.4089864,34.1681286 34.1335525,35.0469039 35.518259,36.1318293 C36.4078412,36.8289569 37.2156894,37.6272991 38.0860758,38.4857178 C38.7105987,39.1016536 39.3662772,39.7481267 40.1031928,40.4114783 L46.5344208,40.3905854 L53.6644665,36.4957402 L74.3152606,36.4321129 L75.5049714,36.4284481 L95.492555,36.3669257 C100.017049,36.3529561 101.868558,34.6958226 102.608487,33.7001629 L102.516437,4.21046237 Z" stroke-linejoin="square"></path>
                                </g>
                                <g id="Fill-16">
                                    <use fill-opacity="0.49" fill="url(#linearGradient-4)" fill-rule="evenodd" xlink:href="#path-48"></use>
                                    <use fill="black" fill-opacity="1" filter="url(#filter-49)" xlink:href="#path-48"></use>
                                    <path stroke-opacity="0.314821897" stroke="#FFFFFF" stroke-width="1" d="M8.91589208,20.1673534 C8.9067681,17.1913701 11.309414,14.7713243 14.2822847,14.7621386 C17.2552826,14.7530051 19.6726702,17.1581665 19.6818462,20.1341498 C19.6909702,23.1102604 17.2883244,25.5301789 14.3154536,25.5393646 C11.3425828,25.5484981 8.92506816,23.1433367 8.91589208,20.1673534" stroke-linejoin="square"></path>
                                </g>
                                <g id="Fill-18">
                                    <use fill-opacity="0.49" fill="url(#linearGradient-7)" fill-rule="evenodd" xlink:href="#path-50"></use>
                                    <use fill="black" fill-opacity="1" filter="url(#filter-51)" xlink:href="#path-50"></use>
                                    <path stroke-opacity="0.314821897" stroke="#FFFFFF" stroke-width="1" d="M72.7163434,20.7690381 C72.7068394,17.6827578 75.1984439,15.1731514 78.2814963,15.1637101 C81.3645487,15.1541961 83.8715304,17.6484093 83.8810882,20.7346896 C83.8904658,23.8208427 81.3988613,26.3304491 78.315936,26.3400176 C75.2328836,26.3495316 72.725902,23.8553184 72.7163434,20.7690381" stroke-linejoin="square"></path>
                                </g>
                                <g id="Fill-24">
                                    <use fill-opacity="0.49" fill="url(#linearGradient-10)" fill-rule="evenodd" xlink:href="#path-52"></use>
                                    <use fill="black" fill-opacity="1" filter="url(#filter-53)" xlink:href="#path-52"></use>
                                    <path stroke-opacity="0.314821897" stroke="#FFFFFF" stroke-width="1" d="M82.4717788,31.1135602 C82.2693344,31.2303453 82.0344836,31.4248598 82.1093359,31.6464715 C82.1921945,31.8916184 82.5400228,31.8701187 82.7775424,31.9727827 C83.2903254,32.1942672 83.2026376,32.9571865 82.9381763,33.4497701 C82.7870737,33.7315554 82.611571,34.0973038 82.8201155,34.3396518 C82.9471992,34.487605 83.1638771,34.5102496 83.3584423,34.5224624 C84.0187696,34.5638079 84.8069432,34.5457431 85.1734528,33.9942581 C85.2664781,33.8543196 85.3221408,33.6900827 85.4302891,33.5613393 C85.8768615,33.0294457 86.7204436,33.449134 87.303504,33.8263319 C88.284972,34.4615256 89.7041165,34.8551344 90.5324486,34.0296244 C90.7711119,33.7917289 90.9300937,33.4740685 91.2040863,33.2777729 C91.7322465,32.8996845 92.4825491,33.1093379 93.0232906,33.4689798 C93.5641591,33.8286218 94.0240753,34.3260396 94.6298837,34.559737 C95.9676946,35.0759829 97.6148274,33.8253142 97.5343834,32.3923438 C97.4538122,30.9592462 95.7585147,29.8982578 94.414985,30.3992377 C93.8222663,30.6203406 93.2961394,31.0820105 92.6636435,31.0863358 C91.9903536,31.0910428 91.4428767,30.5807761 90.8533351,30.2551011 C89.7390645,29.6394988 88.2876407,29.6922938 87.2210266,30.3872793 C86.693756,30.7306376 86.0699018,31.2377239 85.5228061,30.9271876 C85.3429826,30.8250325 85.2189488,30.6497277 85.0682274,30.5081353 C84.1489034,29.6439514 83.2975692,30.6372604 82.4717788,31.1135602" stroke-linejoin="square"></path>
                                </g>
                                <path d="M26.2624148,20.6128413 C26.2284647,9.53530856 34.2342342,0.530519627 44.1439729,0.499909748 C54.0538386,0.469455549 62.1148896,9.42475713 62.1490563,20.5022899 C62.1830065,31.5796954 54.1771099,40.5844843 44.2673712,40.6152214 C34.3576325,40.6456756 26.2965816,31.6903741 26.2624148,20.6128413" id="Fill-28" stroke-opacity="0.314821897" stroke="#FFFFFF" fill-opacity="0.49" fill="url(#linearGradient-13)"></path>
                                <g id="Fill-30">
                                    <use fill-opacity="0.49" fill="url(#linearGradient-14)" fill-rule="evenodd" xlink:href="#path-54"></use>
                                    <use fill="black" fill-opacity="1" filter="url(#filter-55)" xlink:href="#path-54"></use>
                                    <path stroke-opacity="0.314821897" stroke="#FFFFFF" stroke-width="1" d="M44.834508,40.6023583 C44.9316,40.598669 45.028692,40.5944709 45.1254027,40.5891278 C45.178905,40.5860746 45.2321531,40.5826397 45.2855283,40.5790776 C45.3756307,40.5732257 45.465606,40.5666104 45.5553272,40.5592318 C45.6093378,40.5547792 45.6632213,40.5501994 45.7171048,40.5452379 C45.8094947,40.5367144 45.9015034,40.5270459 45.9933849,40.5169958 C46.0425664,40.5115255 46.0918749,40.506564 46.1409292,40.5007121 C46.2583546,40.4867182 46.3755258,40.4711978 46.4923158,40.4546596 C46.5145555,40.4516064 46.5369222,40.449062 46.5590348,40.4457544 C46.6950145,40.4260358 46.8303587,40.4041545 46.9651946,40.381001 C47.0160281,40.3722231 47.0666074,40.3625546 47.1173138,40.3532678 C47.2033496,40.3376201 47.2893853,40.321718 47.3751668,40.3046709 C47.4332441,40.2932214 47.4911943,40.2810086 47.5491445,40.2687958 C47.6275552,40.2523848 47.7057117,40.235465 47.7836141,40.217909 C47.8434705,40.2044241 47.9031999,40.1906846 47.9628022,40.1765636 C48.0393066,40.1583716 48.1155569,40.1394163 48.1918072,40.1200793 C48.250774,40.1051949 48.3099951,40.090565 48.3688349,40.0749173 C48.4513122,40.053036 48.5334084,40.0300098 48.6155045,40.0068563 C48.6850193,39.9872649 48.7545341,39.9676735 48.8236677,39.9471916 C48.9288931,39.9160235 49.0337372,39.8842193 49.1382001,39.8510157 C49.2022503,39.830661 49.2657922,39.8090342 49.3295882,39.7879162 C49.3950364,39.7661621 49.4606116,39.7445352 49.5258056,39.7218906 C49.5935412,39.6984827 49.6610227,39.6743115 49.7285042,39.6498859 C49.7886148,39.628259 49.8485984,39.6063777 49.9083277,39.5839876 C49.9779696,39.5580353 50.0474845,39.5315742 50.1167451,39.5046043 C50.1727891,39.4828502 50.2284518,39.4605873 50.2841145,39.4381971 C50.3556626,39.4094461 50.4272108,39.3806951 50.4983777,39.3510536 C50.5469237,39.3306989 50.5950885,39.3095809 50.6433803,39.2888445 C50.9148312,39.1723139 51.182978,39.0489136 51.4478206,38.9182619 C51.4864541,38.8991794 51.5253417,38.8804785 51.5638481,38.8611415 C51.64264,38.8215771 51.7209236,38.7809949 51.7990802,38.7401583 C51.8393657,38.7191676 51.8795242,38.6980496 51.9195556,38.6768044 C51.9983475,38.6348228 52.0767582,38.5923324 52.1547876,38.5492059 C52.1911336,38.5291056 52.2272254,38.5087509 52.2634443,38.4883962 C52.3454133,38.4423437 52.4273823,38.3960368 52.5085889,38.3485849 C52.5301931,38.3358633 52.5516703,38.3228871 52.5732745,38.3101655 C52.8658214,38.1375322 53.1536661,37.9563754 53.4363004,37.7666951 C53.4500255,37.7575355 53.4637505,37.7485031 53.4773485,37.7393435 C53.56313,37.6814599 53.6482762,37.6224313 53.7330411,37.5628938 C53.7573141,37.5459739 53.7815871,37.5289269 53.805733,37.5118798 C53.8887187,37.4531057 53.9713231,37.393441 54.0534192,37.3331402 C54.075786,37.3167292 54.0980257,37.3000638 54.1203924,37.2835256 C54.2059198,37.2201716 54.2910659,37.1561816 54.3755766,37.0911738 C54.3833287,37.0851946 54.3909538,37.0790882 54.3987059,37.0732362 C54.6897277,36.8484441 54.9746495,36.6143651 55.2528359,36.3712537 C54.1037444,33.9854293 51.9193014,32.1147058 49.3781342,31.3693424 C44.2472539,31.9377472 38.5401757,30.1410639 34.7577812,26.624409 C34.6015953,26.4790002 34.4333364,26.3236684 34.2222502,26.2933908 C34.0294641,26.2656576 33.8394739,26.3483485 33.6646066,26.4340927 C32.5054755,27.0023702 29.942704,28.5428388 28.3176838,29.8727636 C31.3313485,36.2764772 37.3482569,40.6364524 44.2673331,40.6151582 C44.4109378,40.6145711 44.5540341,40.6118996 44.6968763,40.6077014 C44.7428806,40.606302 44.7886307,40.6041393 44.834508,40.6023583" stroke-linejoin="square"></path>
                                </g>
                                <g id="Fill-32">
                                    <use fill-opacity="0.49" fill="url(#linearGradient-17)" fill-rule="evenodd" xlink:href="#path-56"></use>
                                    <use fill="black" fill-opacity="1" filter="url(#filter-57)" xlink:href="#path-56"></use>
                                    <path stroke-opacity="0.314821897" stroke="#FFFFFF" stroke-width="1" d="M39.7524641,19.3571791 L49.0985734,29.5763926 C49.003047,30.1358702 49.0654957,30.7264758 49.1608244,31.3174495 C49.3426531,32.4205701 49.4941021,33.141741 49.0777805,33.7178009 C48.714321,34.2206314 48.0391732,34.3746198 47.4322088,34.4142459 C44.7743623,34.5877864 42.3882257,32.9218442 40.2327957,31.3720868 C39.1480326,30.5921734 38.0163827,29.7852736 37.3588543,28.6189616 C36.501669,27.0986706 36.6243061,25.1862155 37.2322794,23.5571615 C37.8053283,22.0212809 38.765512,20.670701 39.7524641,19.3571791 Z" stroke-linejoin="square"></path>
                                </g>
                                <g id="Fill-34">
                                    <use fill-opacity="0.49" fill="url(#linearGradient-20)" fill-rule="evenodd" xlink:href="#path-58"></use>
                                    <use fill="black" fill-opacity="1" filter="url(#filter-59)" xlink:href="#path-58"></use>
                                    <path stroke-opacity="0.314821897" stroke="#FFFFFF" stroke-width="1" d="M56.1648272,18.8950197 C56.883486,20.6168995 58.8668825,21.7488749 59.0538227,23.6056045 C59.2318671,25.3758267 57.6613658,26.8911064 57.5457195,28.6665445 C57.4756964,29.7425444 57.9187104,30.957338 57.2778269,31.8240662 C56.8552734,32.3956514 56.1020478,32.5895299 55.4089329,32.7456249 C54.0010989,33.0626493 51.5800258,33.4764856 50.4233093,32.6129378 C49.4154079,31.8605775 48.425044,30.668683 48.619101,29.4252657 C48.8131579,28.1817211 50.9055922,26.6838702 51.4017273,25.5274692 C52.4557601,23.0704033 53.0740227,20.3879092 52.8798387,17.7210628 C52.6857818,15.0540892 51.6321302,12.4051803 49.7148173,10.543362 C51.1640806,11.3821026 54.002878,11.7190999 55.1036777,12.9636622 C56.4275094,14.4603682 55.4235476,17.1192 56.1648272,18.8950197" stroke-linejoin="square"></path>
                                </g>
                                <path d="M44.7525771,3.89093742 C49.9361972,3.87494833 54.1375868,8.65194033 54.5467966,12.043541 C54.9560064,15.4351417 54.5597591,16.2346995 54.9694772,19.8259034 C55.3793224,23.4169801 52.6090232,30.2112494 49.6209024,31.0188219 C46.6327815,31.8262671 43.6348753,29.4405698 41.635085,27.4508986 C39.6352947,25.4613546 38.4323197,23.269663 38.4323197,23.269663 C38.4323197,23.269663 37.8373134,24.2693329 36.8391974,23.8733069 C35.8410815,23.4772809 35.4350192,21.083569 35.4350192,21.083569 C35.4350192,21.083569 35.40798,12.3021728 36.9919521,8.70486253 C38.5757972,5.10742499 44.7525771,3.89093742 44.7525771,3.89093742" id="Fill-36" stroke-opacity="0.314821897" stroke="#FFFFFF" fill-opacity="0.49" fill="url(#linearGradient-23)"></path>
                                <g id="Fill-38">
                                    <use fill-opacity="0.49" fill="url(#linearGradient-24)" fill-rule="evenodd" xlink:href="#path-60"></use>
                                    <use fill="black" fill-opacity="1" filter="url(#filter-61)" xlink:href="#path-60"></use>
                                    <path stroke-opacity="0.314821897" stroke="#FFFFFF" stroke-width="1" d="M38.6909097,14.8988083 C38.3982358,16.3558227 37.3703822,17.5321967 36.5799211,18.7902439 C35.78946,20.0482912 35.2185997,21.673359 35.9075209,22.989926 C36.3939976,23.9193721 37.476243,24.6618095 37.34433,25.7028249 C37.1368022,27.3401055 34.2446297,27.4696122 34.0346873,29.1066384 C33.9504307,29.7644766 34.3722218,30.4569178 34.1214855,31.0708663 C33.6901631,32.1272748 32.0718783,31.6364723 31.2318546,30.8646478 C28.2828756,28.1549293 26.9842065,23.2288392 29.4665338,20.0851841 C30.0231608,19.3801484 30.7362279,18.7974953 31.2028795,18.0298689 C31.9050173,16.8749946 31.9639842,15.4588168 32.2189143,14.1313092 C32.8345081,10.9260811 34.7435606,7.98915336 37.421597,6.12720783 C40.1546606,4.22697003 43.293757,3.10975182 46.5474829,4.08499604 C43.7576128,4.49272598 42.6100463,4.47949543 40.7701274,5.49990163 C36.7894823,7.7074953 39.4404498,11.1672842 38.6909097,14.8988083" stroke-linejoin="square"></path>
                                </g>
                            </g>
                        </g>
                    </g>
                </g>
            </g>
        </g>
    </g>
</svg>