<?xml version="1.0" encoding="UTF-8"?>
<svg width="206px" height="128px" viewBox="0 0 206 128" version="1.1" xmlns="http://www.w3.org/2000/svg" xmlns:xlink="http://www.w3.org/1999/xlink">
    <title>Group 17</title>
    <defs>
        <linearGradient x1="50%" y1="0%" x2="50%" y2="100%" id="linearGradient-1">
            <stop stop-color="#FFFFFF" stop-opacity="0.144258086" offset="0%"></stop>
            <stop stop-color="#FFFFFF" stop-opacity="0.478010271" offset="86.0795455%"></stop>
            <stop stop-color="#DDE0EB" stop-opacity="0.552201705" offset="100%"></stop>
        </linearGradient>
        <path d="M18.7302089,0 L26.6001803,2.30692771 L36.3153304,4.78157773 L40.0604152,5.56885784 L56.631137,8.10349395 L81.6056461,10.9774543 L99.4901232,11.7241469 L107.86879,11.1809892 L107.86879,9.61359152 L109.585374,10.5778455 L109.585374,12.5714131 L113.141455,13.7777005 L114.155855,12.6910868 L116.821047,13.5359655 L117.583641,14.744342 L120.188722,15.5892207 L122.219615,14.986077 L126.6618,15.6492068 L127.744086,14.0194355 L129.075486,13.8997617 L130.852479,12.0879431 L130.726577,11.4227242 L131.234973,10.5181579 L136.059652,10.6999068 L136.948149,11.2433628 L138.790636,14.5625931 L140.630431,14.6222808 L141.010532,13.6580268 L142.598522,14.5625931 L142.724425,16.1323783 L143.741217,16.7978956 L143.804019,18.5473407 L144.883912,18.6070283 L144.883912,19.8753909 L146.091802,20.7202696 L146.597805,21.8068833 L150.91648,21.5651483 L157.41767,21.4406996 L159.994939,23.8601385 L162.025832,26.7582724 L160.948631,28.5077175 L158.789143,28.3880437 L157.012449,26.4568498 L156.886546,28.9911874 L155.550062,31.2861776 L156.440952,34.7874552 L154.410059,36.3575389 L154.218663,39.4374217 L152.122276,40.1002531 L152.122276,41.1271791 L154.472861,41.2465544 L157.837845,37.5659154 L160.948631,37.7455752 L163.679615,35.6944091 L165.584605,35.7543952 L166.090608,34.7874552 L165.647706,33.9425765 L163.614121,34.1843115 L163.296822,32.7962752 L165.328014,30.9247689 L168.758492,29.1729363 L171.426375,29.2949976 L171.043582,28.1463087 L175.297063,26.4568498 L176.248362,24.5853435 L178.916245,22.3500409 L189.074298,20.1099634 L189.708597,18.4873546 L191.296587,18.0638707 L191.676688,17.3410533 L191.73949,16.1923644 L192.630678,15.8909418 L192.567577,14.6222808 L191.804983,13.1145707 L193.264678,6.17200156 L194.236313,6.11947643 L194.533276,7.136554 L195.169967,7.62002397 L197.644062,5.99025266 L199.612153,7.43797664 L201.519834,13.1145707 L203.04263,13.1745568 L203.221466,14.7324045 L206,15.0460631 L206,16.2520521 L202.280036,19.451907 L200.44024,19.391921 L199.043347,20.1171259 L199.423448,21.5651483 L199.423448,22.5917759 L196.186759,24.1018735 L195.615561,26.2151148 L195.615561,30.1998624 L198.15485,33.0979963 L197.83785,34.3039853 L195.169967,35.3306129 L195.169967,36.9603842 L191.996379,38.5901555 L189.899694,38.5901555 L186.600204,41.792398 L187.106207,42.2734804 L187.680097,45.8968193 L185.520609,50.6064734 L184.694914,50.4844122 L184.50621,49.1560635 L182.457374,49.0486257 L183.869518,51.391366 L185.520609,53.2628723 L184.823509,56.038945 L183.109317,58.6953439 L182.535427,58.030125 L182.726823,55.79721 L181.752796,54.3423235 L180.335867,53.6338311 L180.187236,51.8127608 L180.63283,49.5174722 L179.935729,49.0963758 L178.345047,50.6664595 L178.918937,51.8127608 L179.04484,54.349486 L180.061632,54.8305685 L181.141226,56.7641499 L181.521327,58.4539073 L181.075732,59.8419436 L182.726823,59.9640049 L183.997814,60.5 L183.680814,62.0172601 L184.760408,62.6800915 L184.694914,63.2832352 L183.61532,64.2501751 L185.520609,65.6382114 L185.520609,67.4497317 L184.060616,68.2946104 L184.949112,69.8047079 L184.314814,71.3148055 L179.299038,72.0973106 L179.299038,73.9712044 L177.839044,76.6276033 L175.490852,77.1086858 L173.774567,79.8871459 L173.84006,81.0934334 L170.792076,84.1733162 L169.523478,84.1733162 L168.506686,86.2865575 L166.855595,87.1314362 L166.4103,93.8922564 L167.618189,95.402354 L168.124193,97.5155952 L169.460676,98.6019105 L169.460676,100.231682 L172.505969,102.708719 L172.822969,105.484792 L176.188252,111.46072 L176.188252,115.749277 L176.188252,118.403289 L172.505969,119.671651 L171.491569,118.767085 L171.491569,117.379049 L170.155385,115.979075 L168.380783,116.110686 L168.380783,114.057132 L167.172894,114.057132 L166.664498,113.27224 L166.664498,112.125938 L165.647706,112.065952 L163.618906,109.833336 L163.873403,108.564973 L162.856611,108.684647 L162.348215,107.779782 L162.856611,105.666839 L162.539312,102.526672 L161.459718,102.165562 L158.223029,98.7839578 L155.492344,98.604298 L152.252964,100.413729 L150.984665,100.715152 L149.016275,97.9390791 L142.983408,97.5155952 L141.269515,98.7239717 L140.381317,97.7549427 L139.258659,98.7024842 L134.539547,98.7239717 L134.539547,100.655464 L133.65105,101.801765 L136.062343,104.156443 L134.730943,104.941634 L131.491563,103.491224 L129.770194,105.432267 L126.858281,105.425104 L126.032586,102.708719 L122.667602,101.801765 L122.667602,103.189802 L121.968108,103.613286 L117.334527,102.466984 L115.366436,102.466984 L109.07937,105.123383 L109.07937,106.329671 L106.539783,107.959442 L103.746296,108.5026 L102.729503,109.95301 L101.33261,110.072683 L100.572409,111.762142 L99.6187175,112.003877 L99.6839118,115.50993 C99.1151063,117.386211 100.499738,120.244056 100.572409,120.394469 L99.7470127,121 L96.3165354,120.03306 C91.7460546,119.188181 90.8420067,115.459494 90.7944567,115.26342 C90.5402587,113.633649 90.176905,113.060647 90.1577654,113.030505 C88.0637716,111.881816 86.5550315,107.869015 86.4757815,107.657721 C84.9529857,104.094368 82.8416467,102.432366 82.7306967,102.344923 L80.6340114,102.344923 L80.0000116,101.682092 L76.4436315,101.56003 L76.4436315,103.915007 L74.2237349,105.54448 C70.9218519,104.759587 68.7028525,101.055968 68.5862205,100.861088 L68.6992638,98.7239717 L61.4608998,90.3933663 L54.7309319,89.9075088 L54.1597339,92.3845463 L42.1594929,90.99651 L28.3798657,83.0870009 L28.3798657,80.9737596 L18.7302089,80.9737596 L18.2846147,76.2661946 L16.6338227,75.6609618 L16.6338227,73.8491432 L15.1110269,73.8491432 L14.8768657,72.5425805 L13.5858387,72.2193718 L11.1745459,69.3836115 L7.99856569,69.0198153 L6.9213641,68.1749366 L7.55536393,66.4231041 L7.17287064,65.7602727 L6.85826318,64.9750816 L7.30116588,63.8887664 L5.27027306,59.1191262 L4.69877605,58.6356562 L4.69877605,57.9104513 L5.58727297,57.0058849 L5.58727297,56.098931 L4.12757809,54.4691597 L4.25348089,50.907896 L2.91938975,49.5198597 L3.04798405,47.5862783 L1.56286937,45.4491619 L1.71150047,42.5844531 L2.15948713,40.7657704 L0,38.4704817 L1.20549683,36.9006965 L3.42778583,33.4591066 L3.17358779,31.7696476 L3.81057818,30.6830339 L4.06477622,26.337176 L8.12686094,19.3322333 L8.12686094,17.7621496 L9.39515964,16.013003 L10.6661499,12.1479292 L10.6661499,11.0613155 L11.8088448,9.79534042 L11.1117441,8.58666548 L11.3004487,4.05876027 L10.6661499,3.75733763 L10.6661499,2.79039769 L11.3004487,1.16062638 L12.1889457,1.16062638 L12.7601436,2.60864879 L14.8568289,3.39592891 L17.0791179,3.75733763 L17.0791179,5.20506161 L16.1278191,6.47372263 L14.8568289,6.89720652 L15.1110269,8.82840047 L16.9508226,8.82840047 L18.2218128,7.38067649 L18.2218128,5.68853159 L18.7302089,5.08538787 L17.7134167,3.81702529 L18.4434137,2.60864879 L18.7302089,1.94581742 L18.159011,1.40236136 L18.7302089,0 Z" id="path-2"></path>
        <filter x="-3.9%" y="-6.6%" width="107.8%" height="113.2%" filterUnits="objectBoundingBox" id="filter-3">
            <feGaussianBlur stdDeviation="7.5" in="SourceAlpha" result="shadowBlurInner1"></feGaussianBlur>
            <feOffset dx="0" dy="1" in="shadowBlurInner1" result="shadowOffsetInner1"></feOffset>
            <feComposite in="shadowOffsetInner1" in2="SourceAlpha" operator="arithmetic" k2="-1" k3="1" result="shadowInnerInner1"></feComposite>
            <feColorMatrix values="0 0 0 0 1   0 0 0 0 1   0 0 0 0 1  0 0 0 0.5 0" type="matrix" in="shadowInnerInner1"></feColorMatrix>
        </filter>
    </defs>
    <g id="2.0" stroke="none" stroke-width="1" fill="none" fill-rule="evenodd">
        <g id="Online-Quote" transform="translate(-430, -2224)">
            <g id="Group-18" transform="translate(239, 2048)">
                <g id="Group-20" transform="translate(151, 112)">
                    <g id="Group-10" transform="translate(40, 64)">
                        <path d="M206,22.8380672 L202.280039,26.050575 L200.440543,25.9903518 L199.423453,26.5203766 L199.423453,29.2028596 L196.186766,30.7189284 L196.133886,30.9131499 L198.097885,33.1643312 L198.154916,32.9494072 L198.154916,39.7504439 L197.837916,40.9615012 L195.170035,41.9921883 L195.170035,43.6284041 L191.996449,45.2646198 L189.899766,45.2646198 L187.679871,47.427265 L187.679871,52.5998761 L185.520385,57.3284527 L185.520385,59.9953556 L184.823285,62.7824054 L184.760483,62.8803806 L184.759893,65.3413901 L185.520624,65.8977582 L185.520385,74.2383126 L184.949188,74.5702897 L184.949188,76.6023013 L184.314889,78.1183701 L179.298818,78.904269 L179.298818,80.7855726 L177.839124,83.4524755 L175.490934,83.9354602 L173.839844,86.6185425 L173.839844,87.9356647 L170.792161,91.0280256 L169.523564,91.0280256 L168.506773,93.149623 L166.855683,93.997543 L166.804903,94.759098 L167.618217,95.7795942 L168.12422,97.9011917 L169.460703,98.9918024 L169.460703,100.628018 L172.505993,103.11485 L172.822993,105.9019 L176.188273,111.901458 L176.188124,125.39332 L172.506143,126.666698 L171.491744,125.758555 L171.491744,124.364731 L170.155261,122.959221 L168.38096,123.091353 L168.38096,121.029979 L167.172773,121.029979 L166.664377,120.241982 L166.664377,119.091148 L165.647585,119.030925 L163.619086,116.789181 L163.619086,115.546064 L162.856493,115.63595 L162.348097,114.727806 L162.348097,109.389806 L161.459601,109.091087 L158.222915,105.696111 L155.492231,105.51604 L152.253153,107.332327 L150.984556,107.635241 L149.016466,104.848191 L142.983603,104.422733 L141.269712,105.636187 L140.381215,104.663027 L139.258857,105.614615 L136.062244,105.629296 L136.062244,111.09014 L134.730846,111.878136 L131.491767,110.422291 L129.770399,112.370709 L126.858189,112.363518 L126.032793,109.636692 L122.667812,108.725852 L122.667812,110.119377 L121.96802,110.544835 L117.334741,109.394001 L115.366352,109.394001 L109.07959,112.060904 L109.07959,113.271661 L106.540004,114.907877 L103.74622,115.453482 L102.729429,116.909328 L101.332537,117.029474 L100.572635,118.725914 L99.8434432,118.91285 C100.056926,119.685144 100.331913,120.341247 100.476492,120.663495 L100.572635,120.591038 L100.572635,127.392074 L99.7469403,128 L96.3167645,127.029536 C92.0440821,126.236635 90.975717,122.913845 90.8156978,122.323017 L90.7946899,122.241036 C90.540492,120.60482 90.1771386,120.029553 90.157999,119.999291 C88.0640068,118.84606 86.5552677,114.817392 86.4757187,114.605262 C85.4752216,112.254371 84.2204409,110.7278 83.4460593,109.932445 L83.2554273,109.741487 L83.0522021,109.548882 C82.8701556,109.381667 82.7544757,109.290269 82.7306366,109.271457 L80.634252,109.271457 L79.9999535,108.605705 L76.443875,108.483161 L76.443875,110.847449 L74.2239801,112.483665 C71.6624127,111.8724 69.7528211,109.497872 68.9705244,108.372175 L68.7537938,108.049842 L68.5861707,107.781754 L68.5861707,105.505254 L61.4611543,97.2726411 L54.7311912,96.7848624 L54.1596946,99.271395 L42.1594623,97.8778701 L28.3798451,89.9370852 L28.3798451,87.8154878 L18.7304944,87.8154878 L18.2849005,83.0896077 L16.6338106,82.4816821 L16.6338106,80.6629987 L15.111315,80.6629987 L14.8771539,79.35097 L13.5861279,79.026783 L11.1748369,76.1795099 L7.99855988,75.8142751 L6.92135908,74.9663552 L6.92135908,71.9114466 L6.85855726,71.7538474 L6.85855726,69.6187671 L5.27026923,65.8747363 L4.69907169,65.3893546 L4.69907169,61.8466673 L4.1275751,61.2060833 L4.1275751,57.4995048 L2.91968669,56.2375124 L2.91968669,54.1108214 L1.5631673,52.1507182 L1.5631673,46.8121186 L0,45.1444429 L0,38.3434062 L0.116999932,38.4685394 L1.20564549,37.0466093 L3.42793287,33.5914106 L3.17373502,31.8952712 L3.81072494,30.8043608 L4.0649228,26.4413186 L8.12700457,19.4086769 L8.12700457,17.8323848 L9.39530235,16.0763217 L10.6662916,12.1959646 L10.6662916,11.1050542 L10.9899936,10.7437278 L10.6663215,10.5894709 L10.6663215,3.7881346 L11.2989934,4.09041452 L11.3005901,4.07480943 L10.6662916,3.77219491 L10.6662916,2.80143149 L11.3005901,1.16521573 L12.1890863,1.16521573 L12.7602839,2.61896392 L14.8569676,3.4093571 L17.079255,3.77219491 L17.079255,5.22564348 L16.1279569,6.49932105 L14.8569676,6.92447947 L14.8579914,6.93997308 L16.1280167,6.5152907 L17.0793148,5.24161314 L17.0789901,8.71505863 L17.7129897,7.99039073 L17.7135534,3.84808823 L18.1591473,4.40597758 L18.1589895,4.39010429 L17.7135534,3.83211858 L18.1589895,3.09011222 L18.1591473,1.42387624 L18.7249891,1.96452155 L18.7303449,1.95351158 L18.1591473,1.40790658 L18.7303449,0 L26.6003105,2.31604977 L36.3154536,4.80048505 L40.0605357,5.59087824 L56.6312454,8.1355368 L81.6057364,11.0208614 L99.4902005,11.7705065 L107.868861,11.2252011 L107.868861,9.65160561 L109.585444,10.6196725 L109.585444,12.621123 L113.141523,13.8321803 L114.155922,12.7412699 L116.821111,13.5894895 L117.583705,14.8026441 L120.188784,15.6508636 L122.219676,15.045335 L126.661858,15.7110869 L127.744143,14.0748712 L129.075541,13.9547242 L130.852534,12.1357413 L130.726631,11.467892 L131.235027,10.5597488 L136.059702,10.7422164 L136.948199,11.2878214 L138.790685,14.6201766 L140.630479,14.6801002 L141.010579,13.7120334 L142.598568,14.6201766 L142.724471,16.196169 L143.741263,16.8643179 L143.804064,18.6206806 L144.883957,18.6806043 L144.883957,19.9539823 L146.091845,20.8022018 L146.597848,21.8931122 L150.91652,21.6504213 L157.417705,21.5254804 L159.994973,23.9544863 L161.933906,26.7325277 L162.025804,26.5846447 L162.025804,33.3859811 L160.948902,35.1423438 L158.789417,35.0221968 L157.012424,33.0830669 L156.886522,35.6274259 L156.441227,36.3956473 L156.440909,39.2473319 L157.83788,37.7144586 L160.948663,37.8948289 L163.296905,36.1231412 L163.297093,32.6464631 L163.348905,32.8766691 L165.328044,31.0470517 L168.758519,29.288292 L171.4264,29.4108359 L171.043608,28.2576049 L175.297086,26.5614655 L176.248384,24.6825589 L178.916265,22.4384175 L189.07431,20.1894823 L189.708609,18.5604573 L191.296598,18.1352989 L191.676698,17.4096233 L191.7395,16.2563923 L191.804889,16.2333628 L191.805173,13.182398 L192.567767,14.6960699 L192.567587,14.6801002 L191.804994,13.1664284 L193.264687,6.1964069 L194.236321,6.14367408 L194.533284,7.16477338 L195.169975,7.65015509 L197.644068,6.01393933 L199.612157,7.4673879 L201.519838,13.1664284 L203.042632,13.2266516 L203.221468,14.7906594 L206,15.1055583 L206,22.8380672 Z" id="Path" fill="#1272F4"></path>
                        <g id="Fill-12">
                            <use fill-opacity="0.49" fill="url(#linearGradient-1)" fill-rule="evenodd" xlink:href="#path-2"></use>
                            <use fill="black" fill-opacity="1" filter="url(#filter-3)" xlink:href="#path-2"></use>
                            <path stroke-opacity="0.314821897" stroke="#FFFFFF" stroke-width="1" d="M19.0229203,0.60684133 L26.4681049,2.78925113 L36.2021402,5.26871158 L39.9711165,6.0610141 L56.5647337,8.59915225 L81.5665853,11.4762591 L99.4958834,12.224823 L108.36879,11.6496256 L108.36879,10.4679403 L109.085374,10.8704661 L109.085374,12.9297881 L113.286608,14.354923 L114.305824,13.2631495 L116.495744,13.9573647 L117.257336,15.1641536 L120.182196,16.1127428 L122.255566,15.4969842 L126.902437,16.1906694 L128.027856,14.4959444 L129.303571,14.381276 L131.392328,12.2515844 L131.251748,11.5088189 L131.521255,11.029297 L135.910239,11.1946329 L136.574903,11.6011799 L138.491067,15.0531374 L140.96638,15.1334429 L141.26419,14.3779477 L142.121264,14.8661625 L142.245612,16.4165621 L143.250825,17.0745003 L143.320715,19.0213907 L144.383912,19.0801556 L144.383912,20.1358324 L145.695209,21.0530413 L146.287538,22.325033 L150.935243,22.0648808 L157.223803,21.9445023 L159.615091,24.1893494 L161.427722,26.7760185 L160.67899,27.9920075 L159.019599,27.9000478 L156.572287,25.2399212 L156.393203,28.8447792 L155.015073,31.2112826 L155.875451,34.5926462 L153.925068,36.1004874 L153.740899,39.0640832 L151.622276,39.7339452 L151.622276,41.6024308 L154.682866,41.757864 L158.046415,38.0787943 L161.102543,38.2552975 L163.839441,36.1996897 L165.882243,36.2640153 L166.655039,34.7872523 L165.930655,33.4054218 L164.001393,33.6347558 L163.848864,32.967513 L165.616431,31.3389064 L168.86794,29.6784669 L172.130945,29.8277562 L171.667337,28.4365541 L175.657191,26.8518061 L176.64779,24.9029848 L179.143498,22.8119398 L189.442754,20.5407239 L190.082091,18.9052255 L191.637144,18.4905253 L192.169989,17.4772436 L192.220269,16.5575774 L193.148833,16.2435137 L193.061684,14.4913742 L192.330417,13.0455991 L193.674994,6.65055054 L194.099543,7.43501533 L195.14946,8.23226716 L197.628304,6.59936729 L199.188552,7.74708304 L201.155695,13.6006143 L202.594764,13.6573022 L202.770096,15.1846267 L205.5,15.4927956 L205.5,16.0226147 L202.101647,18.945825 L200.325879,18.8879266 L198.45826,19.8575117 L198.923448,21.6296794 L198.923448,22.2733126 L195.764728,23.7470334 L195.115561,26.1487322 L195.115561,30.3879206 L197.603761,33.2277449 L197.419358,33.9292831 L194.669967,34.9872756 L194.669967,36.6550775 L191.875498,38.0901555 L189.696954,38.0901555 L185.878455,41.7961098 L186.638874,42.5190773 L187.162613,45.8257836 L185.222513,50.0569725 L184.943359,48.6782999 L181.542855,48.4999828 L183.46465,51.6882286 L184.971575,53.396324 L184.358657,55.8371566 L183.051,57.862 L183.239993,55.6649606 L182.094703,53.954262 L180.811306,53.3125387 L180.691169,51.8405841 L181.190204,49.2700197 L179.861316,48.4672813 L177.735417,50.5656518 L178.424764,51.9425704 L178.560299,54.6733726 L179.703102,55.2140754 L180.669324,56.9446049 L181.003626,58.4307581 L180.405554,60.2937634 L182.608136,60.4565951 L183.424185,60.8007349 L183.119445,62.2593177 L184.229175,62.9406519 L182.821164,64.2902335 L185.020609,65.8925676 L185.020609,67.1613903 L183.374282,68.1140976 L184.391047,69.8422003 L183.961932,70.8638101 L178.799038,71.6692669 L178.799038,73.842855 L177.512215,76.1841765 L175.17895,76.6622008 L173.266804,79.7577361 L173.328781,80.8992471 L170.583443,83.6733162 L169.209188,83.6733162 L168.129097,85.9181135 L166.375318,86.8155387 L165.898627,94.0530324 L167.157949,95.6274304 L167.677381,97.7967545 L168.960676,98.8398374 L168.960676,100.469501 L172.032324,102.967976 L172.337672,105.642006 L175.688252,111.591825 L175.688252,118.046683 L172.620103,119.103507 L171.991569,118.543027 L171.991569,117.178736 L170.353984,115.462973 L168.880783,115.572231 L168.880783,113.557132 L167.444755,113.557132 L167.164498,113.124455 L167.164498,111.654567 L165.880651,111.578826 L164.158831,109.684028 L164.499165,107.987872 L163.129234,108.149109 L162.880249,107.705954 L163.362624,105.701154 L163.0043,102.154975 L161.735495,101.730577 L158.449825,98.2977984 L155.377616,98.0956687 L152.069777,99.9433386 L151.197357,100.150677 L149.2873,97.4568737 L142.84081,97.0043551 L141.340896,98.0618664 L140.425604,97.0632777 L139.074873,98.2033158 L134.039547,98.2262432 L134.039547,100.484377 L132.982662,101.847926 L135.245543,104.057676 L134.699479,104.379716 L131.36096,102.884917 L129.545805,104.931713 L127.229162,104.926015 L126.430355,102.298086 L122.167602,101.149159 L122.167602,102.908017 L117.395456,101.966984 L115.265141,101.966984 L108.57937,104.791844 L108.57937,106.05644 L106.350338,107.486913 L103.452739,108.050314 L102.454143,109.474769 L100.997202,109.599587 L100.215516,111.336793 L99.1114306,111.616649 L99.1826014,115.44411 C98.7399664,117.065351 99.5725319,119.329908 99.9516285,120.228794 L96.429734,119.545484 C94.962349,119.278171 93.8964002,118.69613 93.1299033,118.034079 C91.7375804,116.831479 91.3381155,115.375435 91.2849679,115.163932 C91.0362773,113.584693 90.6825159,112.936874 90.6041358,112.802462 C88.4142758,111.50462 87.0188013,107.681736 86.9439354,107.482131 C85.355533,103.763969 83.1589476,102.045816 83.0404694,101.952443 L80.8476808,101.844946 L80.2206201,101.189369 L75.9436315,101.042575 L75.9436315,103.66178 L74.119464,105.000776 C71.3916689,104.228633 69.5024784,101.389741 69.0936923,100.733045 L69.2092404,98.5485761 L61.7028797,89.9095343 L54.3399184,89.377979 L53.772995,91.8364796 L42.3191607,90.5116447 L28.8798657,82.7974864 L28.8798657,80.4737596 L19.1851164,80.4737596 L18.7526852,75.9052586 L17.1338227,75.3117322 L17.1338227,73.3491432 L15.5293837,73.3491432 L15.3119794,72.1360805 L13.8628519,71.7732914 L11.4275756,68.9093256 L8.19590933,68.5391507 L7.51466337,68.0048309 L8.10465362,66.3746031 L7.6237476,65.5412301 L7.39755865,64.9767122 L7.84282758,63.8845932 L5.68381175,58.8140506 L5.19877605,58.4037244 L6.08727297,57.2103717 L6.08727297,55.9077545 L4.63438069,54.2855784 L4.76064724,50.7140254 L3.43294567,49.3326371 L3.55850158,47.4447418 L2.0710591,45.3042757 L2.20836445,42.6578587 L2.71003026,40.6212558 L0.655627333,38.4376597 L1.61447697,37.1890559 L3.95033699,33.571582 L3.69431983,31.8700327 L4.30270705,30.8322119 L4.55697798,26.4851081 L8.62686094,19.4667175 L8.62686094,17.9243476 L9.84575862,16.2433313 L11.1661499,12.2280293 L11.1661499,11.2535983 L12.423611,9.86047541 L11.6173514,8.46253426 L11.8137874,3.74911794 L11.1661499,3.44135669 L11.1661499,2.88426707 L11.6423847,1.66062638 L12.3765041,2.99868271 L14.7275552,3.88147416 L16.5791179,4.18259202 L16.5791179,5.03842255 L15.8215271,6.04875276 L14.3072483,6.55329847 L14.6725278,9.32840047 L17.1772085,9.32840047 L18.7218128,7.56901582 L18.7218128,5.87114889 L19.3774248,5.09335325 L18.321928,3.77670984 L18.8888699,2.83824117 L19.3276667,1.82410886 L18.7507034,1.27516744 L19.0229203,0.60684133 Z" stroke-linejoin="square"></path>
                        </g>
                        <g id="Stroke-2-Copy-4" transform="translate(24, 24)" fill="#FFFFFF">
                            <path d="M8.00002014,0 C14.80463,0 18.490796,7.81962567 14.0859557,12.9103855 L9.34562134,18.3889108 C8.64060042,19.2036964 7.35939958,19.2036964 6.65437866,18.3889108 L1.9140443,12.9103855 C-2.49079595,7.81962567 1.19537001,0 7.99997986,0 Z M8,4.37 C6.16803107,4.37 4.68292683,5.81612026 4.68292683,7.6 C4.68292683,9.38387974 6.16803107,10.83 8,10.83 C9.83196893,10.83 11.3170732,9.38387974 11.3170732,7.6 C11.3170732,5.81612026 9.83196893,4.37 8,4.37 Z" id="Combined-Shape"></path>
                        </g>
                        <g id="Stroke-2-Copy-5" transform="translate(80, 69)" fill="#FFFFFF">
                            <path d="M8.00002014,0 C14.80463,0 18.490796,7.81962567 14.0859557,12.9103855 L9.34562134,18.3889108 C8.64060042,19.2036964 7.35939958,19.2036964 6.65437866,18.3889108 L1.9140443,12.9103855 C-2.49079595,7.81962567 1.19537001,0 7.99997986,0 Z M8,4.37 C6.16803107,4.37 4.68292683,5.81612026 4.68292683,7.6 C4.68292683,9.38387974 6.16803107,10.83 8,10.83 C9.83196893,10.83 11.3170732,9.38387974 11.3170732,7.6 C11.3170732,5.81612026 9.83196893,4.37 8,4.37 Z" id="Combined-Shape"></path>
                        </g>
                        <g id="Stroke-2-Copy-6" transform="translate(139, 54)" fill="#FFFFFF">
                            <path d="M8.00002014,0 C14.80463,0 18.490796,7.81962567 14.0859557,12.9103855 L9.34562134,18.3889108 C8.64060042,19.2036964 7.35939958,19.2036964 6.65437866,18.3889108 L1.9140443,12.9103855 C-2.49079595,7.81962567 1.19537001,0 7.99997986,0 Z M8,4.37 C6.16803107,4.37 4.68292683,5.81612026 4.68292683,7.6 C4.68292683,9.38387974 6.16803107,10.83 8,10.83 C9.83196893,10.83 11.3170732,9.38387974 11.3170732,7.6 C11.3170732,5.81612026 9.83196893,4.37 8,4.37 Z" id="Combined-Shape"></path>
                        </g>
                    </g>
                </g>
            </g>
        </g>
    </g>
</svg>