<?xml version="1.0" encoding="UTF-8"?>
<svg width="6683px" height="2394px" viewBox="0 0 6683 2394" version="1.1" xmlns="http://www.w3.org/2000/svg" xmlns:xlink="http://www.w3.org/1999/xlink">
    <title>Group 100</title>
    <g id="2.0" stroke="none" stroke-width="1" fill="none" fill-rule="evenodd" opacity="0.1">
        <g id="Homepage" transform="translate(4337, -1884)" stroke="#000000">
            <g id="desktop/benefits" transform="translate(16, 3291)">
                <g id="Group-100" transform="translate(-4353, -1407)">
                    <line x1="0.000373161204" y1="2392.13406" x2="932.903386" y2="1.8659392" id="Stroke-1"></line>
                    <line x1="185.639117" y1="2392.13406" x2="1066.71377" y2="1.8659392" id="Stroke-3"></line>
                    <line x1="371.278234" y1="2392.13406" x2="1200.52453" y2="1.8659392" id="Stroke-5"></line>
                    <line x1="556.916978" y1="2392.13406" x2="1334.33491" y2="1.8659392" id="Stroke-7"></line>
                    <line x1="742.555721" y1="2392.13406" x2="1468.1453" y2="1.8659392" id="Stroke-9"></line>
                    <line x1="928.194838" y1="2392.13406" x2="1601.95978" y2="1.8659392" id="Stroke-11"></line>
                    <line x1="1113.83358" y1="2392.13406" x2="1735.77017" y2="1.8659392" id="Stroke-13"></line>
                    <line x1="1299.47233" y1="2392.13406" x2="1869.58055" y2="1.8659392" id="Stroke-15"></line>
                    <line x1="1485.11144" y1="2392.13406" x2="2003.39131" y2="1.8659392" id="Stroke-17"></line>
                    <line x1="1670.75019" y1="2392.13406" x2="2137.20169" y2="1.8659392" id="Stroke-19"></line>
                    <line x1="1856.3893" y1="2392.13406" x2="2271.01245" y2="1.8659392" id="Stroke-21"></line>
                    <line x1="2042.02805" y1="2392.13406" x2="2404.82283" y2="1.8659392" id="Stroke-23"></line>
                    <line x1="2227.66679" y1="2392.13406" x2="2538.63322" y2="1.8659392" id="Stroke-25"></line>
                    <line x1="2413.30591" y1="2392.13406" x2="2672.44398" y2="1.8659392" id="Stroke-27"></line>
                    <line x1="2598.94465" y1="2392.13406" x2="2806.25809" y2="1.8659392" id="Stroke-29"></line>
                    <line x1="2784.58377" y1="2392.13406" x2="2940.06885" y2="1.8659392" id="Stroke-31"></line>
                    <line x1="2970.22251" y1="2392.13406" x2="3073.87923" y2="1.8659392" id="Stroke-33"></line>
                    <line x1="3155.86163" y1="2392.13406" x2="3207.68999" y2="1.8659392" id="Stroke-35"></line>
                    <line x1="3341.50037" y1="2392.13406" x2="3341.50037" y2="1.8659392" id="Stroke-37"></line>
                    <line x1="3527.13912" y1="2392.13406" x2="3475.31076" y2="1.8659392" id="Stroke-39"></line>
                    <line x1="3712.77823" y1="2392.13406" x2="3609.12151" y2="1.8659392" id="Stroke-41"></line>
                    <line x1="3898.4166" y1="2392.13406" x2="3742.93153" y2="1.8659392" id="Stroke-43"></line>
                    <line x1="4084.05572" y1="2392.13406" x2="3876.74228" y2="1.8659392" id="Stroke-45"></line>
                    <line x1="4269.69484" y1="2392.13406" x2="4010.55677" y2="1.8659392" id="Stroke-47"></line>
                    <line x1="4455.33358" y1="2392.13406" x2="4144.36715" y2="1.8659392" id="Stroke-49"></line>
                    <line x1="4640.97233" y1="2392.13406" x2="4278.17754" y2="1.8659392" id="Stroke-51"></line>
                    <line x1="4826.61144" y1="2392.13406" x2="4411.9883" y2="1.8659392" id="Stroke-53"></line>
                    <line x1="5012.25019" y1="2392.13406" x2="4545.79868" y2="1.8659392" id="Stroke-55"></line>
                    <line x1="5197.8893" y1="2392.13406" x2="4679.60944" y2="1.8659392" id="Stroke-57"></line>
                    <line x1="5383.52805" y1="2392.13406" x2="4813.41982" y2="1.8659392" id="Stroke-59"></line>
                    <line x1="5569.16679" y1="2392.13406" x2="4947.23021" y2="1.8659392" id="Stroke-61"></line>
                    <line x1="5754.80591" y1="2392.13406" x2="5081.04096" y2="1.8659392" id="Stroke-63"></line>
                    <line x1="5940.44502" y1="2392.13406" x2="5214.85545" y2="1.8659392" id="Stroke-65"></line>
                    <line x1="6126.0834" y1="2392.13406" x2="5348.66546" y2="1.8659392" id="Stroke-67"></line>
                    <line x1="6311.72251" y1="2392.13406" x2="5482.47622" y2="1.8659392" id="Stroke-69"></line>
                    <line x1="6497.36163" y1="2392.13406" x2="5616.28698" y2="1.8659392" id="Stroke-71"></line>
                    <line x1="6683" y1="2392.13406" x2="5750.09699" y2="1.8659392" id="Stroke-73"></line>
                    <line x1="6683" y1="2392.13406" x2="0" y2="2392.13406" id="Stroke-75"></line>
                    <line x1="6631.17201" y1="2259.34151" x2="51.828733" y2="2259.34151" id="Stroke-78"></line>
                    <line x1="6579.3444" y1="2126.54859" x2="103.657839" y2="2126.54859" id="Stroke-79"></line>
                    <line x1="6527.51641" y1="1993.75604" x2="155.48284" y2="1993.75604" id="Stroke-80"></line>
                    <line x1="6475.68843" y1="1860.96349" x2="207.311573" y2="1860.96349" id="Stroke-81"></line>
                    <line x1="6423.86044" y1="1728.17057" x2="259.140306" y2="1728.17057" id="Stroke-82"></line>
                    <line x1="6372.03283" y1="1595.37802" x2="310.969413" y2="1595.37802" id="Stroke-83"></line>
                    <line x1="6320.20484" y1="1462.58547" x2="362.794414" y2="1462.58547" id="Stroke-84"></line>
                    <line x1="6268.37685" y1="1329.79255" x2="414.623147" y2="1329.79255" id="Stroke-85"></line>
                    <line x1="6216.54849" y1="1197" x2="466.451507" y2="1197" id="Stroke-86"></line>
                    <line x1="6164.72051" y1="1064.20745" x2="518.28024" y2="1064.20745" id="Stroke-87"></line>
                    <line x1="6112.89289" y1="931.414529" x2="570.109346" y2="931.414529" id="Stroke-88"></line>
                    <line x1="6061.06491" y1="798.62198" x2="621.934347" y2="798.62198" id="Stroke-89"></line>
                    <line x1="6009.23692" y1="665.829431" x2="673.76308" y2="665.829431" id="Stroke-90"></line>
                    <line x1="5957.40893" y1="533.036508" x2="725.591813" y2="533.036508" id="Stroke-91"></line>
                    <line x1="5905.58132" y1="400.243959" x2="777.420919" y2="400.243959" id="Stroke-92"></line>
                    <line x1="5853.75333" y1="267.45141" x2="829.24592" y2="267.45141" id="Stroke-93"></line>
                    <line x1="5801.92535" y1="134.658488" x2="881.074653" y2="134.658488" id="Stroke-94"></line>
                    <line x1="5750.09699" y1="1.8659392" x2="932.903013" y2="1.8659392" id="Stroke-95"></line>
                </g>
            </g>
        </g>
    </g>
</svg>