<?xml version="1.0" encoding="UTF-8"?>
<svg width="1888px" height="1568px" viewBox="0 0 1888 1568" version="1.1" xmlns="http://www.w3.org/2000/svg" xmlns:xlink="http://www.w3.org/1999/xlink">
    <title>Combined Shape 2</title>
    <defs>
        <rect id="path-1" x="0" y="0" width="1888" height="1568" rx="24"></rect>
        <linearGradient x1="50%" y1="7.35358392%" x2="50%" y2="33.9270105%" id="linearGradient-3">
            <stop stop-color="#1272F4" offset="0%"></stop>
            <stop stop-color="#1272F4" stop-opacity="0" offset="100%"></stop>
        </linearGradient>
    </defs>
    <g id="2.0" stroke="none" stroke-width="1" fill="none" fill-rule="evenodd">
        <g id="Online-Quote" transform="translate(-16, -16)">
            <g id="Combined-Shape-2" transform="translate(16, 16)">
                <mask id="mask-2" fill="white">
                    <use xlink:href="#path-1"></use>
                </mask>
                <use id="Combined-Shape" fill="#1272F4" xlink:href="#path-1"></use>
                <g id="Group-100" opacity="0.151274182" mask="url(#mask-2)" stroke="#FFFFFF">
                    <g transform="translate(-2397, -840)">
                        <line x1="2042.02805" y1="2392.13406" x2="2404.82283" y2="1.8659392" id="Stroke-23"></line>
                        <line x1="2227.66679" y1="2392.13406" x2="2538.63322" y2="1.8659392" id="Stroke-25"></line>
                        <line x1="2413.30591" y1="2392.13406" x2="2672.44398" y2="1.8659392" id="Stroke-27"></line>
                        <line x1="2598.94465" y1="2392.13406" x2="2806.25809" y2="1.8659392" id="Stroke-29"></line>
                        <line x1="2784.58377" y1="2392.13406" x2="2940.06885" y2="1.8659392" id="Stroke-31"></line>
                        <line x1="2970.22251" y1="2392.13406" x2="3073.87923" y2="1.8659392" id="Stroke-33"></line>
                        <line x1="3155.86163" y1="2392.13406" x2="3207.68999" y2="1.8659392" id="Stroke-35"></line>
                        <line x1="3341.50037" y1="2392.13406" x2="3341.50037" y2="1.8659392" id="Stroke-37"></line>
                        <line x1="3527.13912" y1="2392.13406" x2="3475.31076" y2="1.8659392" id="Stroke-39"></line>
                        <line x1="3712.77823" y1="2392.13406" x2="3609.12151" y2="1.8659392" id="Stroke-41"></line>
                        <line x1="3898.4166" y1="2392.13406" x2="3742.93153" y2="1.8659392" id="Stroke-43"></line>
                        <line x1="4084.05572" y1="2392.13406" x2="3876.74228" y2="1.8659392" id="Stroke-45"></line>
                        <line x1="4269.69484" y1="2392.13406" x2="4010.55677" y2="1.8659392" id="Stroke-47"></line>
                        <line x1="4455.33358" y1="2392.13406" x2="4144.36715" y2="1.8659392" id="Stroke-49"></line>
                        <line x1="4640.97233" y1="2392.13406" x2="4278.17754" y2="1.8659392" id="Stroke-51"></line>
                        <line x1="6683" y1="2392.13406" x2="0" y2="2392.13406" id="Stroke-75"></line>
                        <line x1="6631.17201" y1="2259.34151" x2="51.828733" y2="2259.34151" id="Stroke-78"></line>
                        <line x1="6579.3444" y1="2126.54859" x2="103.657839" y2="2126.54859" id="Stroke-79"></line>
                        <line x1="6527.51641" y1="1993.75604" x2="155.48284" y2="1993.75604" id="Stroke-80"></line>
                        <line x1="6475.68843" y1="1860.96349" x2="207.311573" y2="1860.96349" id="Stroke-81"></line>
                        <line x1="6423.86044" y1="1728.17057" x2="259.140306" y2="1728.17057" id="Stroke-82"></line>
                        <line x1="6372.03283" y1="1595.37802" x2="310.969413" y2="1595.37802" id="Stroke-83"></line>
                        <line x1="6320.20484" y1="1462.58547" x2="362.794414" y2="1462.58547" id="Stroke-84"></line>
                        <line x1="6268.37685" y1="1329.79255" x2="414.623147" y2="1329.79255" id="Stroke-85"></line>
                        <line x1="6216.54849" y1="1197" x2="466.451507" y2="1197" id="Stroke-86"></line>
                        <line x1="6164.72051" y1="1064.20745" x2="518.28024" y2="1064.20745" id="Stroke-87"></line>
                        <line x1="6112.89289" y1="931.414529" x2="570.109346" y2="931.414529" id="Stroke-88"></line>
                    </g>
                </g>
                <rect id="Combined-Shape-Copy-2" fill="url(#linearGradient-3)" mask="url(#mask-2)" x="1" y="0" width="1888" height="1568" rx="24"></rect>
            </g>
        </g>
    </g>
</svg>