<?xml version="1.0" encoding="UTF-8"?>
<svg width="138px" height="88px" viewBox="0 0 138 88" version="1.1" xmlns="http://www.w3.org/2000/svg" xmlns:xlink="http://www.w3.org/1999/xlink">
    <title>usa 2</title>
    <g id="2.0" stroke="none" stroke-width="1" fill="none" fill-rule="evenodd">
        <g id="Online-Quote" transform="translate(-1024, -3881)" fill="#1272F4">
            <g id="Group-15-Copy" transform="translate(240, 3701)">
                <g id="Group-14-Copy-4" transform="translate(736, 0)">
                    <g id="usa-2" transform="translate(48, 180)">
                        <path d="M135.745365,5.09866473 C133.411276,4.1914963 133.259056,-2.78731546 129.988099,1.24379616 C127.574808,-0.0701538063 129.085407,7.98653129 127.054458,10.1914696 C122.393442,11.9153503 115.413961,13.8543495 118.372231,19.5411467 C116.630968,21.653457 110.291834,20.6751615 112.818287,23.9743704 C109.861102,26.1379356 106.734338,32.0787269 102.437436,30.2056424 C103.026682,24.9501683 105.49064,27.8267414 102.675803,22.7682512 C101.823345,21.0148338 100.102805,25.280719 100.046713,23.6505523 C99.8579284,23.0210508 101.758464,21.3895811 100.85306,20.015146 C100.387609,19.3084363 100.343776,19.7513786 100.545363,18.6948977 C99.0886872,18.7924124 97.2211344,16.4844212 96.2348998,18.5444993 C96.7203138,18.9412905 96.2873037,19.1319761 95.5861984,19.3489408 C95.582401,19.9115502 95.6829774,21.78963 95.1351778,19.8794073 C93.0805768,21.5998131 93.9278271,24.6722841 94.8134852,27.059438 C96.2203613,30.0384124 92.3085146,34.4537186 91.6893242,29.8696621 C89.9793086,27.5686208 93.6926064,17.5170122 90.2302613,22.8857466 C90.1900091,21.8783487 91.3113219,18.2052613 92.7497705,18.1822401 C92.2014284,19.8525854 94.8232499,16.9982734 95.0695373,16.7068154 C97.3198663,17.5864018 96.5175336,16.5190617 97.7788071,16.6317791 C98.901639,16.5362191 97.1217514,14.9472084 96.2798174,15.7263481 C95.4883344,15.8658874 95.566235,15.0648123 95.4281187,14.5791938 C93.6022286,14.8190711 91.874962,17.6821789 90.1520352,15.7569708 C87.9481428,14.9130022 87.3732191,15.6303538 89.1748059,13.3014046 C87.9002958,13.6474838 81.1042827,19.8969991 82.2571681,17.4778108 C83.313383,14.7550025 81.1051507,17.47325 79.8699163,16.6771701 C87.5406294,8.26072333 82.5616097,14.6516239 77.9143727,10.7296462 C53.5785745,10.1915782 35.3962721,10.0656128 11.9012144,2.87244257 C13.3914158,4.36089812 11.3122946,10.6688353 9.96476619,7.97339179 C12.4482545,8.15506438 9.96042632,6.63044805 11.4330513,5.9038663 C8.80341806,4.57775416 6.23107102,2.07451659 7.28142708,6.54737601 C7.32102836,7.63404521 7.76716657,8.18927051 7.12085204,8.7005165 C7.32189633,9.22761676 7.77139794,9.82106606 6.92024174,9.68532743 C6.57153351,10.6626456 8.48237648,11.1422916 6.67688375,11.0843041 C7.07007561,13.3584148 3.47927053,15.4989588 5.56837349,17.2183872 C3.71774616,15.902374 3.34147978,20.7913538 1.7351869,21.0828117 C1.93709916,21.719806 2.65664894,23.931477 2.06349776,22.104435 C1.89652142,22.5443368 1.90064429,22.7567406 2.31889887,22.9666468 C0.942944373,22.6077538 2.74333776,28.598497 0,28.7785407 C0.0733437344,29.2259352 -0.245310922,30.8461115 0.668013865,30.1844671 C0.984715582,32.9545126 0.857883,36.4324621 2.02801935,38.8963898 C4.49469066,39.5468493 0.689170712,40.4739984 3.48578033,42.7223732 C4.12949094,43.3410155 3.51952278,43.5066167 3.34864056,43.9869143 C3.17808383,45.1542665 4.84643679,47.8755546 5.08849282,48.3511828 C6.053679,49.1685465 5.50544544,50.3799867 5.33684165,51.517042 C8.02810101,52.4794832 9.48249859,54.2109652 11.5496852,55.8565518 C13.1732291,56.2053458 13.4077988,58.7794933 13.5744497,59.8606243 C12.7704895,61.2582979 19.7743822,61.2332134 20.0899989,61.6529172 C22.3230769,64.0945837 26.4086267,65.0476861 29.135256,67.4293019 C31.7322318,69.0040872 35.5364498,68.3656813 38.5141403,68.9914907 C37.7578102,66.3121186 44.2032706,67.4725211 44.561635,69.2334312 C54.7183318,86.2472372 55.8052512,65.579673 64.2484604,86.065456 C64.3010813,86.9377668 71.9447786,88.8987013 69.7105072,87.5267638 C69.8983149,85.5994924 68.7786294,85.1708841 69.3882721,83.5075972 C69.1122566,83.4104084 68.6431171,83.4245252 68.8207261,82.9819086 C69.7567267,83.3158257 69.3015833,82.600646 69.6875059,82.0672474 C69.0103783,81.8565811 69.4275479,81.5795657 69.8845358,81.3938752 C69.9966128,79.9906635 71.1049061,80.5331837 71.1382146,79.2122839 C71.6010613,79.3132735 71.2803452,79.2704886 71.626992,79.4881048 C73.9093275,77.3854591 75.9254122,78.1930497 77.0302336,74.7303029 C77.3463928,75.0570529 77.3195941,75.3368917 77.1516413,75.7548581 C77.2926869,75.7396553 80.5472609,74.6014055 80.6318883,74.7312802 C87.0417618,75.6232459 83.3373607,72.7641559 86.8294339,74.5900034 C83.895793,73.1716976 83.7692859,75.3023598 87.2707982,74.7307372 C87.4353876,77.9850981 91.6946406,73.0347645 92.9647023,75.6090205 C94.951927,74.6094412 90.2305868,73.6860927 92.9020998,72.8023799 C93.4512013,71.3295615 90.9826856,72.9838353 91.261088,71.7486138 C89.0235616,72.8363689 88.0380865,70.7819375 90.4419383,71.0522203 C92.3600505,72.2066502 92.4708256,70.5474898 93.4668248,70.4213071 C95.0201714,70.2678682 95.2691712,70.8322151 96.0775797,69.551494 C96.5262133,70.3835175 98.1746029,70.5913605 98.3535139,69.3909966 C102.933049,68.6242362 104.239349,71.9669901 106.295794,69.9035457 C107.210746,67.3670793 109.342597,71.616893 110.974929,71.7086523 C112.600968,72.1695121 110.95757,76.4745986 112.503321,75.5583085 C113.035714,75.9846364 112.927869,76.2897769 112.567985,76.8695437 C113.491834,79.1032587 114.022166,77.6877762 115.167131,79.0996752 C118.921983,87.2858006 123.347778,81.3332815 119.125089,74.7803633 C118.989251,73.7949008 116.736535,71.8843524 118.207099,72.0390944 C108.382944,63.2123912 119.842903,54.4385718 125.250593,46.9885841 C124.803044,47.6337227 122.740631,47.8418914 124.401172,47.3207637 C125.193632,44.978132 123.035525,47.3088187 124.543954,45.2379901 C126.144605,46.0737057 127.120858,43.521928 125.893978,43.1040702 C125.724723,44.276309 124.489814,43.3858636 123.481555,43.9941898 C123.087603,42.0629006 126.367783,43.7563758 125.006909,40.8526549 C124.535817,39.7619679 123.569328,40.7145273 122.723163,40.2349899 C123.05972,39.8466688 122.985291,39.9423374 123.553705,40.0743839 C123.297544,39.4512893 122.359482,39.3208716 123.336386,38.9434096 C122.815168,38.0945545 121.582538,37.7391365 123.169193,37.9928048 C123.181778,36.6776604 122.731951,37.2371207 122.302413,36.6034928 C123.427523,35.7370459 120.318769,34.091025 121.86387,32.5504458 C122.681392,31.0601442 122.254241,33.2939677 122.183392,33.6588332 C122.204332,34.291158 122.870719,34.0115364 122.76309,35.1341492 C124.030005,35.1314345 123.365029,36.5499575 124.689556,36.6042529 C123.759632,41.5571927 127.263531,33.3085189 124.223455,33.0020754 C122.718064,31.5773627 125.756404,31.4434701 125.332291,33.0677729 C126.481704,32.0799214 126.914063,28.2710954 126.713778,27.6988213 C121.720546,25.4664094 138.836217,18.8117415 133.479412,17.9402995 C135.211127,21.1739195 130.052654,18.62768 131.62119,16.9755779 C129.089963,14.8102752 134.39686,11.4200672 133.735464,9.11196744 C134.5008,9.42025702 133.622085,9.68456729 134.557761,9.68456729 C134.636746,9.71996792 134.813596,9.01651603 134.849834,8.98969408 C135.718241,8.95559654 135.944348,7.71874612 136.7431,7.25604027 C137.826982,6.26894893 136.375188,5.85934403 135.745365,5.09866473" id="usa"></path>
                    </g>
                </g>
            </g>
        </g>
    </g>
</svg>