<?xml version="1.0" encoding="UTF-8"?>
<svg width="886px" height="263px" viewBox="0 0 886 263" version="1.1" xmlns="http://www.w3.org/2000/svg" xmlns:xlink="http://www.w3.org/1999/xlink">
    <title>Group</title>
    <defs>
        <linearGradient x1="50%" y1="0.510817308%" x2="50%" y2="98.5541891%" id="linearGradient-1">
            <stop stop-color="#2C2833" offset="0%"></stop>
            <stop stop-color="#FFFFFF" stop-opacity="0" offset="100%"></stop>
        </linearGradient>
        <linearGradient x1="50%" y1="0.510817308%" x2="50%" y2="98.5541891%" id="linearGradient-2">
            <stop stop-color="#2C2833" offset="0%"></stop>
            <stop stop-color="#FFFFFF" stop-opacity="0" offset="100%"></stop>
        </linearGradient>
    </defs>
    <g id="Main" stroke="none" stroke-width="1" fill="none" fill-rule="evenodd">
        <g id="Junk-Yard-Page" transform="translate(-58, -2922)">
            <g id="FAQ" transform="translate(16, 2368)">
                <g id="Group" transform="translate(42, 633)">
                    <path d="M885,112 C771.703282,-1.07202282 615.238285,-71 442.421114,-71 C269.684148,-71 113.284181,-1.13691572 0,111.842596" id="Path" stroke="url(#linearGradient-1)" stroke-width="2" opacity="0.600888207" stroke-dasharray="2,6"></path>
                    <path d="M651,183 C597.232066,129.244448 522.977491,96 440.962562,96 C358.985697,96 284.761984,129.213597 231,182.925168" id="Path-Copy" stroke="url(#linearGradient-2)" stroke-width="2" opacity="0.600888207" stroke-dasharray="2,6"></path>
                    <circle id="Oval-Copy-3" stroke="#FFFFFF" stroke-width="6" fill="#F0F3F4" cx="264" cy="-45" r="31"></circle>
                    <g id="icon/user-24" transform="translate(635, -61)">
                        <g id="Group" transform="translate(0, -0)">
                            <path d="M24,12 C24,16.418278 20.418278,20 16,20 C11.581722,20 8,16.418278 8,12 C8,7.581722 11.581722,4 16,4 C18.1217319,4 20.1565632,4.84285472 21.6568542,6.34314575 C23.1571453,7.84343678 24,9.87826808 24,12 Z" id="Path" fill="#2C2833" fill-rule="nonzero" opacity="0.2"></path>
                            <path d="M28.865,26.5 C26.96125,23.20875 24.0275,20.84875 20.60375,19.73 C24.0847336,17.657745 25.7522007,13.5151738 24.6775747,9.60919551 C23.6029487,5.70321722 20.0511094,2.99659933 16,2.99659933 C11.9488906,2.99659933 8.39705129,5.70321722 7.32242528,9.60919551 C6.24779927,13.5151738 7.91526642,17.657745 11.39625,19.73 C7.9725,20.8475 5.03875,23.2075 3.135,26.5 C2.94493802,26.8099059 2.93803628,27.1985468 3.11697487,27.5150056 C3.29591347,27.8314645 3.63250047,28.025883 3.99603245,28.0228015 C4.35956443,28.0196461 4.69276663,27.819482 4.86625,27.5 C7.22125,23.43 11.38375,21 16,21 C20.61625,21 24.77875,23.43 27.13375,27.5 C27.3072334,27.819482 27.6404356,28.0196461 28.0039675,28.0228015 C28.3674995,28.025883 28.7040865,27.8314645 28.8830251,27.5150056 C29.0619637,27.1985468 29.055062,26.8099059 28.865,26.5 Z M9,12 C9,8.13400675 12.1340068,5 16,5 C19.8659932,5 23,8.13400675 23,12 C23,15.8659932 19.8659932,19 16,19 C12.1357203,18.9958663 9.00413366,15.8642797 9,12 L9,12 Z" id="Shape" fill="#2C2833" fill-rule="nonzero"></path>
                            <rect id="Rectangle" x="0" y="0" width="32" height="32"></rect>
                        </g>
                    </g>
                    <circle id="Oval-Copy-4" stroke="#FFFFFF" stroke-width="6" fill="#F0F3F4" cx="442" cy="96" r="31"></circle>
                    <circle id="Oval-Copy-5" stroke="#FFFFFF" stroke-width="6" fill="#F0F3F4" cx="651" cy="-45" r="31"></circle>
                    <g id="icon/user-24" transform="translate(248, -61)">
                        <g id="Group" transform="translate(0, -0)">
                            <path d="M24,12 C24,16.418278 20.418278,20 16,20 C11.581722,20 8,16.418278 8,12 C8,7.581722 11.581722,4 16,4 C18.1217319,4 20.1565632,4.84285472 21.6568542,6.34314575 C23.1571453,7.84343678 24,9.87826808 24,12 Z" id="Path" fill="#2C2833" fill-rule="nonzero" opacity="0.2"></path>
                            <path d="M28.865,26.5 C26.96125,23.20875 24.0275,20.84875 20.60375,19.73 C24.0847336,17.657745 25.7522007,13.5151738 24.6775747,9.60919551 C23.6029487,5.70321722 20.0511094,2.99659933 16,2.99659933 C11.9488906,2.99659933 8.39705129,5.70321722 7.32242528,9.60919551 C6.24779927,13.5151738 7.91526642,17.657745 11.39625,19.73 C7.9725,20.8475 5.03875,23.2075 3.135,26.5 C2.94493802,26.8099059 2.93803628,27.1985468 3.11697487,27.5150056 C3.29591347,27.8314645 3.63250047,28.025883 3.99603245,28.0228015 C4.35956443,28.0196461 4.69276663,27.819482 4.86625,27.5 C7.22125,23.43 11.38375,21 16,21 C20.61625,21 24.77875,23.43 27.13375,27.5 C27.3072334,27.819482 27.6404356,28.0196461 28.0039675,28.0228015 C28.3674995,28.025883 28.7040865,27.8314645 28.8830251,27.5150056 C29.0619637,27.1985468 29.055062,26.8099059 28.865,26.5 Z M9,12 C9,8.13400675 12.1340068,5 16,5 C19.8659932,5 23,8.13400675 23,12 C23,15.8659932 19.8659932,19 16,19 C12.1357203,18.9958663 9.00413366,15.8642797 9,12 L9,12 Z" id="Shape" fill="#2C2833" fill-rule="nonzero"></path>
                            <rect id="Rectangle" x="0" y="0" width="32" height="32"></rect>
                        </g>
                    </g>
                    <g id="icon/user-24-copy" transform="translate(635, -61)">
                        <g id="Group" transform="translate(0, -0)">
                            <path d="M24,12 C24,16.418278 20.418278,20 16,20 C11.581722,20 8,16.418278 8,12 C8,7.581722 11.581722,4 16,4 C18.1217319,4 20.1565632,4.84285472 21.6568542,6.34314575 C23.1571453,7.84343678 24,9.87826808 24,12 Z" id="Path" fill="#2C2833" fill-rule="nonzero" opacity="0.2"></path>
                            <path d="M28.865,26.5 C26.96125,23.20875 24.0275,20.84875 20.60375,19.73 C24.0847336,17.657745 25.7522007,13.5151738 24.6775747,9.60919551 C23.6029487,5.70321722 20.0511094,2.99659933 16,2.99659933 C11.9488906,2.99659933 8.39705129,5.70321722 7.32242528,9.60919551 C6.24779927,13.5151738 7.91526642,17.657745 11.39625,19.73 C7.9725,20.8475 5.03875,23.2075 3.135,26.5 C2.94493802,26.8099059 2.93803628,27.1985468 3.11697487,27.5150056 C3.29591347,27.8314645 3.63250047,28.025883 3.99603245,28.0228015 C4.35956443,28.0196461 4.69276663,27.819482 4.86625,27.5 C7.22125,23.43 11.38375,21 16,21 C20.61625,21 24.77875,23.43 27.13375,27.5 C27.3072334,27.819482 27.6404356,28.0196461 28.0039675,28.0228015 C28.3674995,28.025883 28.7040865,27.8314645 28.8830251,27.5150056 C29.0619637,27.1985468 29.055062,26.8099059 28.865,26.5 Z M9,12 C9,8.13400675 12.1340068,5 16,5 C19.8659932,5 23,8.13400675 23,12 C23,15.8659932 19.8659932,19 16,19 C12.1357203,18.9958663 9.00413366,15.8642797 9,12 L9,12 Z" id="Shape" fill="#2C2833" fill-rule="nonzero"></path>
                            <rect id="Rectangle" x="0" y="0" width="32" height="32"></rect>
                        </g>
                    </g>
                    <g id="icon/user-24-copy-2" transform="translate(426, 80)">
                        <g id="Group" transform="translate(0, -0)">
                            <path d="M24,12 C24,16.418278 20.418278,20 16,20 C11.581722,20 8,16.418278 8,12 C8,7.581722 11.581722,4 16,4 C18.1217319,4 20.1565632,4.84285472 21.6568542,6.34314575 C23.1571453,7.84343678 24,9.87826808 24,12 Z" id="Path" fill="#2C2833" fill-rule="nonzero" opacity="0.2"></path>
                            <path d="M28.865,26.5 C26.96125,23.20875 24.0275,20.84875 20.60375,19.73 C24.0847336,17.657745 25.7522007,13.5151738 24.6775747,9.60919551 C23.6029487,5.70321722 20.0511094,2.99659933 16,2.99659933 C11.9488906,2.99659933 8.39705129,5.70321722 7.32242528,9.60919551 C6.24779927,13.5151738 7.91526642,17.657745 11.39625,19.73 C7.9725,20.8475 5.03875,23.2075 3.135,26.5 C2.94493802,26.8099059 2.93803628,27.1985468 3.11697487,27.5150056 C3.29591347,27.8314645 3.63250047,28.025883 3.99603245,28.0228015 C4.35956443,28.0196461 4.69276663,27.819482 4.86625,27.5 C7.22125,23.43 11.38375,21 16,21 C20.61625,21 24.77875,23.43 27.13375,27.5 C27.3072334,27.819482 27.6404356,28.0196461 28.0039675,28.0228015 C28.3674995,28.025883 28.7040865,27.8314645 28.8830251,27.5150056 C29.0619637,27.1985468 29.055062,26.8099059 28.865,26.5 Z M9,12 C9,8.13400675 12.1340068,5 16,5 C19.8659932,5 23,8.13400675 23,12 C23,15.8659932 19.8659932,19 16,19 C12.1357203,18.9958663 9.00413366,15.8642797 9,12 L9,12 Z" id="Shape" fill="#2C2833" fill-rule="nonzero"></path>
                            <rect id="Rectangle" x="0" y="0" width="32" height="32"></rect>
                        </g>
                    </g>
                </g>
            </g>
        </g>
    </g>
</svg>