<?xml version="1.0" encoding="UTF-8"?>
<svg width="24px" height="24px" viewBox="0 0 24 24" version="1.1" xmlns="http://www.w3.org/2000/svg" xmlns:xlink="http://www.w3.org/1999/xlink">
    <title>ApproximateEquals</title>
    <g id="2.0" stroke="none" stroke-width="1" fill="none" fill-rule="evenodd">
        <g id="Homepage" transform="translate(-1330, -2238)">
            <g id="desktop/welcome-to-usjunkyards" transform="translate(239, 1304)">
                <g id="Group-17-Copy" transform="translate(736, 761)">
                    <g id="ApproximateEquals" transform="translate(355, 173)">
                        <path d="M20.25,5.25 L20.25,18.75 C20.25,19.5784271 19.5784271,20.25 18.75,20.25 L5.25,20.25 C4.42157288,20.25 3.75,19.5784271 3.75,18.75 L3.75,5.25 C3.75,4.42157288 4.42157288,3.75 5.25,3.75 L18.75,3.75 C19.5784271,3.75 20.25,4.42157288 20.25,5.25 Z" id="Path" fill="#2C2833" fill-rule="nonzero" opacity="0.2"></path>
                        <path d="M20.8275,14.368125 C21.092126,14.6854858 21.0502045,15.1571033 20.73375,15.4228125 C19.10625,16.7709375 17.653125,17.25 16.3275,17.25 C14.585625,17.25 13.063125,16.4240625 11.6465625,15.65625 C9.27,14.3671875 7.2178125,13.2534375 4.23375,15.725625 C4.02895802,15.9071596 3.74154532,15.9627368 3.4838402,15.8706356 C3.22613509,15.7785344 3.03905378,15.5533778 2.99571251,15.2831629 C2.95237124,15.012948 3.05965135,14.7405772 3.275625,14.5725 C7.0415625,11.4534375 9.868125,12.98625 12.3628125,14.34 C14.739375,15.6290625 16.7915625,16.741875 19.775625,14.2696875 C20.0937919,14.0080835 20.5633958,14.0520304 20.8275,14.368125 Z M4.23375,9.73125 C7.2178125,7.2590625 9.27,8.371875 11.6465625,9.6609375 C13.063125,10.4296875 14.585625,11.2546875 16.3275,11.2546875 C17.653125,11.2546875 19.10625,10.775625 20.73375,9.4275 C20.9497237,9.25942282 21.0570038,8.98705199 21.0136625,8.71683709 C20.9703212,8.44662219 20.7832399,8.22146563 20.5255348,8.12936443 C20.2678297,8.03726323 19.980417,8.09284042 19.775625,8.274375 C16.7915625,10.7465625 14.739375,9.6328125 12.3628125,8.34375 C9.868125,6.9909375 7.0415625,5.4571875 3.275625,8.57625 C2.98319901,8.84629236 2.9526612,9.29773942 3.206056,9.60470344 C3.45945081,9.91166746 3.9085069,9.96721598 4.2290625,9.73125 L4.23375,9.73125 Z" id="Shape" fill="#2C2833" fill-rule="nonzero"></path>
                        <rect id="Rectangle" x="0" y="0" width="24" height="24"></rect>
                    </g>
                </g>
            </g>
        </g>
    </g>
</svg>