<?xml version="1.0" encoding="UTF-8"?>
<svg width="24px" height="24px" viewBox="0 0 24 24" version="1.1" xmlns="http://www.w3.org/2000/svg" xmlns:xlink="http://www.w3.org/1999/xlink">
    <title>CarSimple</title>
    <g id="2.0" stroke="none" stroke-width="1" fill="none" fill-rule="evenodd" opacity="0.65">
        <g id="Online-Quote-Copy-7" transform="translate(-545, -573)">
            <g id="Hero" transform="translate(16, 16)">
                <g id="Group-2" transform="translate(433, 162)">
                    <g id="Group-13" transform="translate(72, 280)">
                        <g id="Group-8" transform="translate(0, 64)">
                            <g id="CarSimple" transform="translate(24, 51)">
                                <path d="M21,10.5 L3,10.5 L5.8021875,4.1953125 C5.92258175,3.92451449 6.19114491,3.75 6.4875,3.75 L17.5125,3.75 C17.8088551,3.75 18.0774182,3.92451449 18.1978125,4.1953125 L21,10.5 Z" id="Path" fill="#2C2833" fill-rule="nonzero" opacity="0.2"></path>
                                <path d="M22.5,9.75 L21.4875,9.75 L18.883125,3.890625 C18.6423365,3.34902898 18.1052102,3 17.5125,3 L6.4875,3 C5.89478982,3 5.35766351,3.34902898 5.116875,3.890625 L2.5125,9.75 L1.5,9.75 C1.08578644,9.75 0.75,10.0857864 0.75,10.5 C0.75,10.9142136 1.08578644,11.25 1.5,11.25 L2.25,11.25 L2.25,18.75 C2.25,19.5784271 2.92157288,20.25 3.75,20.25 L6,20.25 C6.82842712,20.25 7.5,19.5784271 7.5,18.75 L7.5,17.25 L16.5,17.25 L16.5,18.75 C16.5,19.5784271 17.1715729,20.25 18,20.25 L20.25,20.25 C21.0784271,20.25 21.75,19.5784271 21.75,18.75 L21.75,11.25 L22.5,11.25 C22.9142136,11.25 23.25,10.9142136 23.25,10.5 C23.25,10.0857864 22.9142136,9.75 22.5,9.75 Z M6.4875,4.5 L17.5125,4.5 L19.8459375,9.75 L4.1540625,9.75 L6.4875,4.5 Z M20.25,18.75 L18,18.75 L18,16.5 C18,16.0857864 17.6642136,15.75 17.25,15.75 L6.75,15.75 C6.33578644,15.75 6,16.0857864 6,16.5 L6,18.75 L3.75,18.75 L3.75,11.25 L20.25,11.25 L20.25,18.75 Z" id="Shape" fill="#2C2833" fill-rule="nonzero"></path>
                                <rect id="Rectangle" x="0" y="0" width="24" height="24"></rect>
                            </g>
                        </g>
                    </g>
                </g>
            </g>
        </g>
    </g>
</svg>