<?xml version="1.0" encoding="UTF-8"?>
<svg width="64px" height="64px" viewBox="0 0 64 64" version="1.1" xmlns="http://www.w3.org/2000/svg" xmlns:xlink="http://www.w3.org/1999/xlink">
    <title>CheckCircle</title>
    <g id="2.0" stroke="none" stroke-width="1" fill="none" fill-rule="evenodd">
        <g id="Homepage" transform="translate(-778, -1484)">
            <g id="desktop/welcome-to-usjunkyards" transform="translate(239, 1304)">
                <g id="Group-15" transform="translate(1, 148)">
                    <g id="Group-9" transform="translate(490, 0)">
                        <g id="CheckCircle" transform="translate(48, 32)">
                            <path d="M56,32 C56,45.254834 45.254834,56 32,56 C18.745166,56 8,45.254834 8,32 C8,18.745166 18.745166,8 32,8 C38.3651958,8 44.4696897,10.5285642 48.9705627,15.0294373 C53.4714358,19.5303103 56,25.6348042 56,32 Z" id="Path" fill="#1272F4" fill-rule="nonzero" opacity="0.2"></path>
                            <path d="M43.415,24.585 C43.7905541,24.9601365 44.0015733,25.4691815 44.0015733,26 C44.0015733,26.5308185 43.7905541,27.0398635 43.415,27.415 L29.415,41.415 C29.0398635,41.7905541 28.5308185,42.0015733 28,42.0015733 C27.4691815,42.0015733 26.9601365,41.7905541 26.585,41.415 L20.585,35.415 C19.8035171,34.6335171 19.8035171,33.3664829 20.585,32.585 C21.3664829,31.8035171 22.6335171,31.8035171 23.415,32.585 L28,37.1725 L40.585,24.585 C40.9601365,24.2094459 41.4691815,23.9984267 42,23.9984267 C42.5308185,23.9984267 43.0398635,24.2094459 43.415,24.585 Z M58,32 C58,46.3594035 46.3594035,58 32,58 C17.6405965,58 6,46.3594035 6,32 C6,17.6405965 17.6405965,6 32,6 C46.3531205,6.01515715 57.9848428,17.6468795 58,32 Z M54,32 C54,19.8497355 44.1502645,10 32,10 C19.8497355,10 10,19.8497355 10,32 C10,44.1502645 19.8497355,54 32,54 C44.1445532,53.9862228 53.9862228,44.1445532 54,32 Z" id="Shape" fill="#1272F4" fill-rule="nonzero"></path>
                            <rect id="Rectangle" x="0" y="0" width="64" height="64"></rect>
                        </g>
                    </g>
                </g>
            </g>
        </g>
    </g>
</svg>