<?xml version="1.0" encoding="UTF-8"?>
<svg width="64px" height="64px" viewBox="0 0 64 64" version="1.1" xmlns="http://www.w3.org/2000/svg" xmlns:xlink="http://www.w3.org/1999/xlink">
    <title>ClockClockwise</title>
    <g id="2.0" stroke="none" stroke-width="1" fill="none" fill-rule="evenodd">
        <g id="State" transform="translate(-289, -1161)">
            <g id="desktop/welcome-to-usjy-compact" transform="translate(240, 981)">
                <g id="Group-15" transform="translate(1, 148)">
                    <g id="ClockClockwise" transform="translate(48, 32)">
                        <rect id="Rectangle" x="0" y="0" width="64" height="64"></rect>
                        <path d="M54.6666667,32.6666667 C54.6666667,44.8169312 44.8169312,54.6666667 32.6666667,54.6666667 C20.5164022,54.6666667 10.6666667,44.8169312 10.6666667,32.6666667 C10.6666667,20.5164022 20.5164022,10.6666667 32.6666667,10.6666667 C38.5014294,10.6666667 44.0972155,12.9845172 48.2230159,17.1103175 C52.3488162,21.2361178 54.6666667,26.8319039 54.6666667,32.6666667 Z" id="Path" fill="#1272F4" fill-rule="nonzero" opacity="0.2"></path>
                        <path d="M34.8568937,19.3938614 L34.8568937,30.5902558 L44.316331,36.1717112 C45.3085436,36.7577803 45.6298135,38.0239525 45.0339074,38.999786 C44.4380013,39.9756195 43.1505767,40.2915859 42.1583642,39.7055169 L31.6827968,33.5239326 C31.0521382,33.1512877 30.6664388,32.4806124 30.6666667,31.7570298 L30.6666667,19.3938614 C30.6666667,18.2558632 31.604681,17.3333333 32.7617802,17.3333333 C33.9188795,17.3333333 34.8568937,18.2558632 34.8568937,19.3938614 Z M56.6400612,13.9878647 C55.5207979,13.9878647 54.6134557,14.8832943 54.6134557,15.9878628 L54.6134557,20.4878586 C53.0048376,18.6478603 51.3632871,16.875362 49.5165429,15.0303637 C40.0845079,5.72114048 24.8141908,5.64763403 15.290583,14.8656108 C5.76697518,24.0835876 5.54520484,39.1520103 14.7935204,48.639057 C24.041836,58.1261037 39.3078749,58.4902943 49.0098915,49.4553317 C49.536628,48.964092 49.7577928,48.2328466 49.5900752,47.5370486 C49.4223576,46.8412505 48.891238,46.2866082 48.1967839,46.0820499 C47.5023299,45.8774916 46.7500455,46.0540947 46.223309,46.5453344 C38.1360946,54.0667374 25.4197764,53.7582282 17.7168317,45.853742 C10.013887,37.9492558 10.1977524,25.3974103 18.1290071,17.7159672 C26.0602619,10.0345241 38.7803028,10.0888991 46.6438296,17.8378611 C48.7059007,19.8978592 50.5121128,21.8828573 52.3335245,23.9878554 L46.5070337,23.9878554 C45.3877704,23.9878554 44.4804283,24.883285 44.4804283,25.9878535 C44.4804283,27.092422 45.3877704,27.9878516 46.5070337,27.9878516 L56.6400612,27.9878516 C57.7593245,27.9878516 58.6666667,27.092422 58.6666667,25.9878535 L58.6666667,15.9878628 C58.6666667,14.8832943 57.7593245,13.9878647 56.6400612,13.9878647 Z" id="Shape" fill="#1272F4" fill-rule="nonzero"></path>
                    </g>
                </g>
            </g>
        </g>
    </g>
</svg>