<?xml version="1.0" encoding="UTF-8"?>
<svg width="32px" height="32px" viewBox="0 0 32 32" version="1.1" xmlns="http://www.w3.org/2000/svg" xmlns:xlink="http://www.w3.org/1999/xlink">
    <title>Group</title>
    <g id="Main" stroke="none" stroke-width="1" fill="none" fill-rule="evenodd">
        <g id="Sign-up-States" transform="translate(-618, -923)">
            <g id="Group-7-Copy" transform="translate(562, 24)">
                <g id="cta" transform="translate(32, 883)">
                    <g id="Group" transform="translate(24, 16)">
                        <path d="M25.7075,24.2925 C25.9602654,24.5452654 26.0589815,24.913679 25.966463,25.258963 C25.8739444,25.6042469 25.6042469,25.8739444 25.258963,25.966463 C24.913679,26.0589815 24.5452654,25.9602654 24.2925,25.7075 L16,17.41375 L7.7075,25.7075 C7.31675853,26.0982414 6.68324148,26.0982414 6.29250003,25.7075 C5.90175858,25.3167585 5.90175857,24.6832415 6.2925,24.2925 L14.58625,16 L6.2925,7.7075 C5.90175854,7.31675854 5.90175854,6.68324146 6.2925,6.2925 C6.68324146,5.90175854 7.31675854,5.90175854 7.7075,6.2925 L16,14.58625 L24.2925,6.2925 C24.6832415,5.90175857 25.3167585,5.90175858 25.7075,6.29250003 C26.0982414,6.68324148 26.0982414,7.31675853 25.7075,7.7075 L17.41375,16 L25.7075,24.2925 Z" id="Path" fill="#1272F4" fill-rule="nonzero"></path>
                        <rect id="Rectangle" x="0" y="0" width="32" height="32"></rect>
                    </g>
                </g>
            </g>
        </g>
    </g>
</svg>