<?xml version="1.0" encoding="UTF-8"?>
<svg width="24px" height="24px" viewBox="0 0 24 24" version="1.1" xmlns="http://www.w3.org/2000/svg" xmlns:xlink="http://www.w3.org/1999/xlink">
    <title>Path</title>
    <g id="2.0" stroke="none" stroke-width="1" fill="none" fill-rule="evenodd">
        <g id="Junk-Yard-Page-Copy-3" transform="translate(-1207, -2163)">
            <g id="Group-38" transform="translate(976, 1571)">
                <g id="Group-33" transform="translate(48, 572)">
                    <g id="Path" transform="translate(183, 20)">
                        <rect id="Rectangle" x="0" y="0" width="24" height="24"></rect>
                        <path d="M18.75,21 C17.5073593,21 16.5,19.9926407 16.5,18.75 C16.5,17.5073593 17.5073593,16.5 18.75,16.5 C19.9926407,16.5 21,17.5073593 21,18.75 C21,19.9926407 19.9926407,21 18.75,21 Z" fill="#1272F4" fill-rule="nonzero" opacity="0.2"></path>
                        <path d="M18.7500001,15.75 C17.3821203,15.7512933 16.1876395,16.6760526 15.84375,18 L6.75000009,18 C5.09314575,18 3.75000009,16.6568542 3.75000009,15 C3.75000009,13.3431458 5.09314575,12 6.75000009,12 L15.7500001,12 C17.8210678,12 19.5,10.3210678 19.5,8.25 C19.5,6.17893219 17.8210678,4.5 15.7500001,4.5 L6.75000009,4.5 C6.33578645,4.5 6.00000002,4.83578645 6.00000002,5.25 C6.00000002,5.66421355 6.33578645,6 6.75000009,6 L15.7500001,6 C16.9926407,6 18,7.00735933 18,8.25 C18,9.49264067 16.9926407,10.5 15.7500001,10.5 L6.75000009,10.5 C4.26471866,10.5 2.25000009,12.5147187 2.25000009,15 C2.25000009,17.4852813 4.26471866,19.5 6.75000009,19.5 L15.84375,19.5 C16.2334556,21.0093226 17.7141636,21.9687104 19.2509644,21.7076197 C20.7877653,21.4465291 21.8685544,20.0519624 21.7379371,18.4986227 C21.6073199,16.945283 20.3088215,15.750786 18.7500001,15.75 Z M18.75,20.25 C17.9215729,20.25 17.25,19.5784271 17.25,18.75 C17.25,17.9215729 17.9215729,17.25 18.75,17.25 C19.5784271,17.25 20.25,17.9215729 20.25,18.75 C20.25,19.5784271 19.5784271,20.25 18.75,20.25 Z" id="Shape" fill="#1272F4" fill-rule="nonzero"></path>
                    </g>
                </g>
            </g>
        </g>
    </g>
</svg>