<?xml version="1.0" encoding="UTF-8"?>
<svg width="24px" height="24px" viewBox="0 0 24 24" version="1.1" xmlns="http://www.w3.org/2000/svg" xmlns:xlink="http://www.w3.org/1999/xlink">
    <title>At</title>
    <g id="2.0" stroke="none" stroke-width="1" fill="none" fill-rule="evenodd" opacity="0.65">
        <g id="Online-Quote-Copy-7" transform="translate(-545, -1007)">
            <g id="Hero" transform="translate(16, 16)">
                <g id="Group-2" transform="translate(433, 162)">
                    <g id="Group-16" transform="translate(40, 694)">
                        <g id="Group-12" transform="translate(32, 32)">
                            <g id="Group-8-Copy-15" transform="translate(0, 52)">
                                <g id="Group-6" transform="translate(0, 31)">
                                    <g id="At" transform="translate(24, 20)">
                                        <path d="M21,12 C21,16.9705627 16.9705627,21 12,21 C7.02943725,21 3,16.9705627 3,12 C3,7.02943725 7.02943725,3 12,3 C14.3869484,3 16.6761336,3.94821156 18.363961,5.63603897 C20.0517884,7.32386638 21,9.61305159 21,12 Z" id="Path" fill="#2C2833" fill-rule="nonzero" opacity="0.2"></path>
                                        <path d="M12,2.25 C6.61522369,2.25 2.25,6.61522369 2.25,12 C2.25,17.3847763 6.61522369,21.75 12,21.75 C14.0165625,21.75 16.134375,21.1425 17.6653125,20.1253125 C18.0104042,19.8959417 18.1042145,19.4302479 17.8748437,19.0851563 C17.645473,18.7400646 17.1797792,18.6462543 16.8346875,18.875625 C15.5625,19.723125 13.7071875,20.25 12,20.25 C7.44365081,20.25 3.75,16.5563492 3.75,12 C3.75,7.44365081 7.44365081,3.75 12,3.75 C16.5563492,3.75 20.25,7.44365081 20.25,12 C20.25,14.4796875 19.23,15 18.375,15 C17.52,15 16.5,14.4796875 16.5,12 L16.5,8.25 C16.5,7.83578644 16.1642136,7.5 15.75,7.5 C15.3357864,7.5 15,7.83578644 15,8.25 L15,8.649375 C13.6226364,7.41446151 11.6298451,7.14828899 9.97665844,7.97841893 C8.32347182,8.80854887 7.34673906,10.5658361 7.51455313,12.4081119 C7.68236719,14.2503877 8.96053471,15.8022747 10.736502,16.3200408 C12.5124693,16.837807 14.4243699,16.2159536 15.5559375,14.7525 C16.1184375,15.8775 17.08875,16.5 18.375,16.5 C20.488125,16.5 21.75,14.818125 21.75,12 C21.7443161,6.61757981 17.3824202,2.25568393 12,2.25 L12,2.25 Z M12,15 C10.3431458,15 9,13.6568542 9,12 C9,10.3431458 10.3431458,9 12,9 C13.6568542,9 15,10.3431458 15,12 C15,12.7956495 14.6839295,13.5587112 14.1213203,14.1213203 C13.5587112,14.6839295 12.7956495,15 12,15 Z" id="Shape" fill="#2C2833" fill-rule="nonzero"></path>
                                        <rect id="Rectangle" x="0" y="0" width="24" height="24"></rect>
                                    </g>
                                </g>
                            </g>
                        </g>
                    </g>
                </g>
            </g>
        </g>
    </g>
</svg>