<?xml version="1.0" encoding="UTF-8"?>
<svg width="24px" height="24px" viewBox="0 0 24 24" version="1.1" xmlns="http://www.w3.org/2000/svg" xmlns:xlink="http://www.w3.org/1999/xlink">
    <title>Bank</title>
    <g id="2.0" stroke="none" stroke-width="1" fill="none" fill-rule="evenodd">
        <g id="Homepage" transform="translate(-593, -2237)">
            <g id="desktop/welcome-to-usjunkyards" transform="translate(239, 1304)">
                <g id="Group-17" transform="translate(0, 761)">
                    <g id="Bank" transform="translate(354, 172)">
                        <rect id="Rectangle" x="0" y="0" width="24" height="24"></rect>
                        <polygon id="Path" fill="#2C2833" fill-rule="nonzero" opacity="0.2" points="21.75 9 2.25 9 12 3"></polygon>
                        <path d="M2.25,9.75 L4.5,9.75 L4.5,15.75 L3,15.75 C2.58578644,15.75 2.25,16.0857864 2.25,16.5 C2.25,16.9142136 2.58578644,17.25 3,17.25 L21,17.25 C21.4142136,17.25 21.75,16.9142136 21.75,16.5 C21.75,16.0857864 21.4142136,15.75 21,15.75 L19.5,15.75 L19.5,9.75 L21.75,9.75 C22.0852991,9.7496615 22.3796376,9.52680969 22.4709167,9.20417413 C22.5621957,8.88153857 22.4282361,8.53751397 22.1428125,8.3615625 L12.3928125,2.3615625 C12.1518844,2.21343452 11.8481156,2.21343452 11.6071875,2.3615625 L1.8571875,8.3615625 C1.57176386,8.53751397 1.43780428,8.88153857 1.52908335,9.20417413 C1.62036241,9.52680969 1.91470094,9.7496615 2.25,9.75 Z M6,9.75 L9,9.75 L9,15.75 L6,15.75 L6,9.75 Z M13.5,9.75 L13.5,15.75 L10.5,15.75 L10.5,9.75 L13.5,9.75 Z M18,15.75 L15,15.75 L15,9.75 L18,9.75 L18,15.75 Z M12,3.8803125 L19.100625,8.25 L4.899375,8.25 L12,3.8803125 Z M23.25,19.5 C23.25,19.9142136 22.9142136,20.25 22.5,20.25 L1.5,20.25 C1.08578644,20.25 0.75,19.9142136 0.75,19.5 C0.75,19.0857864 1.08578644,18.75 1.5,18.75 L22.5,18.75 C22.9142136,18.75 23.25,19.0857864 23.25,19.5 Z" id="Shape" fill="#2C2833" fill-rule="nonzero"></path>
                    </g>
                </g>
            </g>
        </g>
    </g>
</svg>