<?xml version="1.0" encoding="UTF-8"?>
<svg width="24px" height="24px" viewBox="0 0 24 24" version="1.1" xmlns="http://www.w3.org/2000/svg" xmlns:xlink="http://www.w3.org/1999/xlink">
    <title>MapPin</title>
    <g id="2.0" stroke="none" stroke-width="1" fill="none" fill-rule="evenodd">
        <g id="Homepage" transform="translate(-679, -7362)">
            <g id="desktop/Reviews" transform="translate(16, 6501)">
                <g id="review" transform="translate(591, 563)">
                    <g id="MapPin" transform="translate(72, 298)">
                        <path d="M12,2.25 C7.85786438,2.25 4.5,5.60786438 4.5,9.75 C4.5,16.5 12,21.75 12,21.75 C12,21.75 19.5,16.5 19.5,9.75 C19.5,5.60786438 16.1421356,2.25 12,2.25 L12,2.25 Z M12,12.75 C10.3431458,12.75 9,11.4068542 9,9.75 C9,8.09314575 10.3431458,6.75 12,6.75 C13.6568542,6.75 15,8.09314575 15,9.75 C15,10.5456495 14.6839295,11.3087112 14.1213203,11.8713203 C13.5587112,12.4339295 12.7956495,12.75 12,12.75 Z" id="Shape" fill="#2C2833" fill-rule="nonzero" opacity="0.2"></path>
                        <path d="M12,6 C9.92893219,6 8.25,7.67893219 8.25,9.75 C8.25,11.8210678 9.92893219,13.5 12,13.5 C14.0710678,13.5 15.75,11.8210678 15.75,9.75 C15.75,8.75543816 15.3549118,7.80161099 14.6516504,7.09834957 C13.948389,6.39508815 12.9945618,6 12,6 Z M12,12 C10.7573593,12 9.75,10.9926407 9.75,9.75 C9.75,8.50735931 10.7573593,7.5 12,7.5 C13.2426407,7.5 14.25,8.50735931 14.25,9.75 C14.25,10.9926407 13.2426407,12 12,12 Z M12,1.5 C7.44579254,1.50516643 3.75516643,5.19579254 3.75,9.75 C3.75,12.69375 5.1103125,15.81375 7.6875,18.7734375 C8.84551895,20.1108418 10.1488624,21.3151374 11.5734375,22.3640625 C11.8317722,22.545032 12.1757278,22.545032 12.4340625,22.3640625 C13.8560142,21.3147005 15.1568253,20.1104204 16.3125,18.7734375 C18.8859375,15.81375 20.25,12.69375 20.25,9.75 C20.2448336,5.19579254 16.5542075,1.50516643 12,1.5 L12,1.5 Z M12,20.8125 C10.4503125,19.59375 5.25,15.1171875 5.25,9.75 C5.25,6.02207794 8.27207794,3 12,3 C15.7279221,3 18.75,6.02207794 18.75,9.75 C18.75,15.1153125 13.5496875,19.59375 12,20.8125 Z" id="Shape" fill="#2C2833" fill-rule="nonzero"></path>
                        <rect id="Rectangle" x="0" y="0" width="24" height="24"></rect>
                    </g>
                </g>
            </g>
        </g>
    </g>
</svg>