<?xml version="1.0" encoding="UTF-8"?>
<svg width="64px" height="64px" viewBox="0 0 64 64" version="1.1" xmlns="http://www.w3.org/2000/svg" xmlns:xlink="http://www.w3.org/1999/xlink">
    <title>MapPinArea</title>
    <g id="2.0" stroke="none" stroke-width="1" fill="none" fill-rule="evenodd">
        <g id="Homepage" transform="translate(-1269, -1484)">
            <g id="desktop/welcome-to-usjunkyards" transform="translate(239, 1304)">
                <g id="Group-15" transform="translate(1, 148)">
                    <g id="Group-8" transform="translate(981, 0)">
                        <g id="MapPinArea" transform="translate(48, 32)">
                            <rect id="Rectangle" x="0" y="0" width="64" height="64"></rect>
                            <path d="M46,20 C46,34 32,42 32,42 C32,42 18,34 18,20 C18,12.2680135 24.2680135,6 32,6 C39.7319865,6 46,12.2680135 46,20 L46,20 Z" id="Path" fill="#1272F4" fill-rule="nonzero" opacity="0.2"></path>
                            <path d="M28,20 C28,17.790861 29.790861,16 32,16 C34.209139,16 36,17.790861 36,20 C36,22.209139 34.209139,24 32,24 C29.790861,24 28,22.209139 28,20 Z M16,20 C16,11.163444 23.163444,4 32,4 C40.836556,4 48,11.163444 48,20 C48,34.9875 33.605,43.385 33,43.7375 C32.3850211,44.0890209 31.6299789,44.0890209 31.015,43.7375 C30.395,43.385 16,35 16,20 Z M20,20.1422925 C20,30.8173913 28.96,37.9029249 32,40 C35.0375,37.9054545 44,30.8173913 44,20.1422925 C44,13.4362895 38.627417,8 32,8 C25.372583,8 20,13.4362895 20,20.1422925 Z M50.6925,36.1052827 C49.6693379,35.7544086 48.5623146,36.3080306 48.1889875,37.3572886 C47.8156604,38.4065467 48.3102532,39.5741968 49.3075,39.9979076 C53.435,41.5835035 56,43.7062815 56,45.5436005 C56,49.0106317 46.87,53.8478668 32,53.8478668 C17.13,53.8478668 8,49.0106317 8,45.5436005 C8,43.7062815 10.565,41.5835035 14.6925,40.0005027 C15.6897468,39.5767919 16.1843396,38.4091418 15.8110125,37.3598837 C15.4376854,36.3106257 14.3306621,35.7570036 13.3075,36.1078778 C7.305,38.4045265 4,41.757374 4,45.5436005 C4,53.63507 18.4275,58 32,58 C45.5725,58 60,53.63507 60,45.5436005 C60,41.757374 56.695,38.4045265 50.6925,36.1052827 Z" id="Shape" fill="#1272F4" fill-rule="nonzero"></path>
                        </g>
                    </g>
                </g>
            </g>
        </g>
    </g>
</svg>