<?xml version="1.0" encoding="UTF-8"?>
<svg width="24px" height="24px" viewBox="0 0 24 24" version="1.1" xmlns="http://www.w3.org/2000/svg" xmlns:xlink="http://www.w3.org/1999/xlink">
    <title>pass</title>
    <g id="pass" stroke="none" fill="none" opacity="0.65" fill-rule="evenodd" stroke-width="1">
        <g id="Group">
            <path d="M24,6.75 L24,17.25 C24,18.0784271 23.3284271,18.75 22.5,18.75 L1.5,18.75 C0.671572875,18.75 0,18.0784271 0,17.25 L0,6.75 C0,5.92157288 0.671572875,5.25 1.5,5.25 L22.5,5.25 C23.3284271,5.25 24,5.92157288 24,6.75 Z" id="Path" fill="#2C2833" fill-rule="nonzero" opacity="0.2"></path>
            <path d="M4.5,5.25 L4.5,18.75 C4.5,19.1642136 4.16421356,19.5 3.75,19.5 C3.33578644,19.5 3,19.1642136 3,18.75 L3,5.25 C3,4.83578644 3.33578644,4.5 3.75,4.5 C4.16421356,4.5 4.5,4.83578644 4.5,5.25 Z M13.125,10.359375 L11.25,10.96875 L11.25,9 C11.25,8.58578644 10.9142136,8.25 10.5,8.25 C10.0857864,8.25 9.75,8.58578644 9.75,9 L9.75,10.96875 L7.875,10.359375 C7.48097935,10.2299333 7.05662925,10.4444169 6.92718752,10.8384375 C6.79774578,11.2324582 7.01222936,11.6568083 7.40625,11.78625 L9.28125,12.3946875 L8.124375,13.9884375 C7.95792839,14.2047059 7.92209206,14.494317 8.03080372,14.7446333 C8.13951538,14.9949496 8.3756153,15.1664596 8.64727785,15.1924584 C8.9189404,15.2184572 9.18328466,15.094841 9.3375,14.8696875 L10.494375,13.2759375 L11.65125,14.8696875 C11.8054653,15.094841 12.0698096,15.2184572 12.3414722,15.1924584 C12.6131347,15.1664596 12.8492346,14.9949496 12.9579463,14.7446333 C13.0666579,14.494317 13.0308216,14.2047059 12.864375,13.9884375 L11.7075,12.3946875 L13.5825,11.78625 C13.9582065,11.6465035 14.1576104,11.2360255 14.0352212,10.8543119 C13.9128321,10.4725982 13.5119194,10.2546002 13.125,10.359375 Z M23.0625,10.84125 C22.9345914,10.4510793 22.5167203,10.2362935 22.125,10.359375 L20.25,10.96875 L20.25,9 C20.25,8.58578644 19.9142136,8.25 19.5,8.25 C19.0857864,8.25 18.75,8.58578644 18.75,9 L18.75,10.96875 L16.875,10.3603125 C16.4809793,10.2321652 16.0576786,10.4476981 15.9295313,10.8417188 C15.8013839,11.2357394 16.0169168,11.6590402 16.4109375,11.7871875 L18.2859375,12.395625 L17.1290625,13.989375 C16.9626159,14.2056434 16.9267796,14.4952545 17.0354912,14.7455708 C17.1442029,14.9958871 17.3803028,15.1673971 17.6519653,15.1933959 C17.9236279,15.2193947 18.1879722,15.0957785 18.3421875,14.870625 L19.4990625,13.276875 L20.6559375,14.870625 C20.8101528,15.0957785 21.0744971,15.2193947 21.3461597,15.1933959 C21.6178222,15.1673971 21.8539221,14.9958871 21.9626338,14.7455708 C22.0713454,14.4952545 22.0355091,14.2056434 21.8690625,13.989375 L20.7121875,12.395625 L22.5871875,11.7871875 C22.9790984,11.6565844 23.191611,11.233655 23.0625,10.84125 Z" id="Shape" fill="#2C2833" fill-rule="nonzero"></path>
            <rect id="Rectangle" x="0" y="0" width="24" height="24"></rect>
        </g>
    </g>
</svg>