<?xml version="1.0" encoding="UTF-8"?>
<svg width="24px" height="24px" viewBox="0 0 24 24" version="1.1" xmlns="http://www.w3.org/2000/svg" xmlns:xlink="http://www.w3.org/1999/xlink">
    <title>Phone</title>
    <g id="2.0" stroke="none" stroke-width="1" fill="none" fill-rule="evenodd" opacity="0.65">
        <g id="Online-Quote-Copy-7" transform="translate(-1141, -780)">
            <g id="Hero" transform="translate(16, 16)">
                <g id="Group-2" transform="translate(433, 162)">
                    <g id="Group-14" transform="translate(72, 487)">
                        <g id="Group-8-Copy-13" transform="translate(596, 64)">
                            <g id="Group-6" transform="translate(0, 31)">
                                <g id="Phone" transform="translate(24.0004, 20)">
                                    <path d="M20.994375,16.32 C20.6931168,18.5713595 18.7714253,20.2517372 16.5,20.2500013 C9.45836944,20.2500013 3.74999865,14.5416306 3.74999865,7.5 C3.74826282,5.22857469 5.42864053,3.30688319 7.68,3.005625 C8.0104894,2.96636337 8.3273236,3.14959279 8.458125,3.455625 L10.4390625,7.880625 C10.5379164,8.11145791 10.5146903,8.37644611 10.3771875,8.5865625 L8.37375,10.96875 C8.22918279,11.1868912 8.20995543,11.4649758 8.323125,11.7009375 C9.0984375,13.288125 10.7390625,14.9090625 12.3309375,15.676875 C12.5681853,15.7895693 12.8473185,15.7685363 13.065,15.6215625 L15.40875,13.6246875 C15.6197686,13.4842721 15.8874324,13.459939 16.1203125,13.56 L20.5415625,15.5409375 C20.8490671,15.6709042 21.0336487,15.9884763 20.994375,16.32 Z" id="Path" fill="#2C2833" fill-rule="nonzero" opacity="0.2"></path>
                                    <path d="M20.8471875,14.855625 L16.430625,12.8765625 L16.4184375,12.8709375 C15.9526295,12.671708 15.4177283,12.7210726 14.99625,13.0021875 C14.9718225,13.018321 14.948346,13.0358501 14.9259375,13.0546875 L12.6440625,15 C11.1984375,14.2978125 9.7059375,12.8165625 9.00375,11.3896875 L10.951875,9.073125 C10.970625,9.0496875 10.9884375,9.02625 11.0053125,9.0009375 C11.2803182,8.58070472 11.3267703,8.05072833 11.1290625,7.5890625 L11.1290625,7.5778125 L9.144375,3.15375 C8.88009236,2.54390394 8.24599845,2.18069251 7.58625,2.26125 C4.95833429,2.6070542 2.99524856,4.84943422 2.99999139,7.5 C2.99999139,14.94375 9.05625,21.0000086 16.4999914,21.0000086 C19.1505658,21.0047514 21.3929458,19.0416657 21.73875,16.41375 C21.8194525,15.7542361 21.4566651,15.1202164 20.8471875,14.855625 Z M16.5,19.5000217 C9.87558157,19.4927664 4.5072336,14.1244184 4.4999716,7.5 C4.49270398,5.60618312 5.89194963,4.00108343 7.7690625,3.75 C7.76869275,3.75374089 7.76869275,3.75750911 7.7690625,3.76125 L9.7378125,8.1675 L7.8,10.486875 C7.78033161,10.5095066 7.76246456,10.5336428 7.7465625,10.5590625 C7.45961358,10.9993831 7.42404761,11.5577688 7.6528125,12.0309375 C8.5021875,13.768125 10.2525,15.5053125 12.0084375,16.35375 C12.4851458,16.580407 13.0459009,16.539819 13.485,16.246875 C13.5090703,16.2306605 13.5322303,16.2131341 13.554375,16.194375 L15.8334375,14.25 L20.2396875,16.2234375 L20.2396875,16.2234375 C20.2396875,16.2234375 20.2471875,16.2234375 20.25,16.2234375 C20.001966,18.1033198 18.3961639,19.5063894 16.5,19.5000217 L16.5,19.5000217 Z" id="Shape" fill="#2C2833" fill-rule="nonzero"></path>
                                    <rect id="Rectangle" x="0" y="0" width="24" height="24"></rect>
                                </g>
                            </g>
                        </g>
                    </g>
                </g>
            </g>
        </g>
    </g>
</svg>