<?xml version="1.0" encoding="UTF-8"?>
<svg width="24px" height="24px" viewBox="0 0 24 24" version="1.1" xmlns="http://www.w3.org/2000/svg" xmlns:xlink="http://www.w3.org/1999/xlink">
    <title>Plus</title>
    <g id="2.0" stroke="none" stroke-width="1" fill="none" fill-rule="evenodd">
        <g id="City-Copy-6" transform="translate(-1013, -4603)">
            <g id="States" transform="translate(16, 3101)">
                <g id="Group-9" transform="translate(747, 1430)">
                    <g id="Group-33-Copy" transform="translate(97, 52)">
                        <g id="Plus" transform="translate(153, 20)">
                            <path d="M20.25,5.25 L20.25,18.75 C20.25,19.5784271 19.5784271,20.25 18.75,20.25 L5.25,20.25 C4.42157288,20.25 3.75,19.5784271 3.75,18.75 L3.75,5.25 C3.75,4.42157288 4.42157288,3.75 5.25,3.75 L18.75,3.75 C19.5784271,3.75 20.25,4.42157288 20.25,5.25 Z" id="Path" fill="#FFFFFF" fill-rule="nonzero" opacity="0.2"></path>
                            <path d="M21,12 C21,12.4142136 20.6642136,12.75 20.25,12.75 L12.75,12.75 L12.75,20.25 C12.75,20.6642136 12.4142136,21 12,21 C11.5857864,21 11.25,20.6642136 11.25,20.25 L11.25,12.75 L3.75,12.75 C3.33578644,12.75 3,12.4142136 3,12 C3,11.5857864 3.33578644,11.25 3.75,11.25 L11.25,11.25 L11.25,3.75 C11.25,3.33578644 11.5857864,3 12,3 C12.4142136,3 12.75,3.33578644 12.75,3.75 L12.75,11.25 L20.25,11.25 C20.6642136,11.25 21,11.5857864 21,12 Z" id="Path" fill="#FFFFFF" fill-rule="nonzero"></path>
                            <rect id="Rectangle" x="0" y="0" width="24" height="24"></rect>
                        </g>
                    </g>
                </g>
            </g>
        </g>
    </g>
</svg>