<?xml version="1.0" encoding="UTF-8"?>
<svg width="24px" height="24px" viewBox="0 0 24 24" version="1.1" xmlns="http://www.w3.org/2000/svg" xmlns:xlink="http://www.w3.org/1999/xlink">
    <title>icon/btn-plus</title>
    <defs>
        <path d="M12,0 L299,0 C305.627417,-1.77635684e-15 311,5.372583 311,12 L311,52 C311,58.627417 305.627417,64 299,64 L12,64 C5.372583,64 0,58.627417 0,52 L1.77635684e-15,12 C1.77635684e-15,5.372583 5.372583,0 12,0 Z" id="path-1"></path>
    </defs>
    <g id="Main" stroke="none" stroke-width="1" fill="none" fill-rule="evenodd">
        <g id="Float-Menu-Mobile-Opened" transform="translate(-295, -913)">
            <g id="Group-8" transform="translate(0, 548)">
                <g id="Group-6" transform="translate(32, 85)">
                    <g id="Frame" transform="translate(0, 260)" xlink:href="#path-1">
                        <path stroke-opacity="0.17" stroke="#1272F4" stroke-width="2" d="M299,1 C302.037566,1 304.787566,2.23121694 306.778175,4.22182541 C308.768783,6.21243388 310,8.96243388 310,12 L310,52 C310,55.0375661 308.768783,57.7875661 306.778175,59.7781746 C304.787566,61.7687831 302.037566,63 299,63 L12,63 C8.96243388,63 6.21243388,61.7687831 4.22182541,59.7781746 C2.23121694,57.7875661 1,55.0375661 1,52 L1,12 C1,8.96243388 2.23121694,6.21243388 4.22182541,4.22182541 C6.21243388,2.23121694 8.96243388,1 12,1 L299,1 Z" stroke-linejoin="square"></path>
                        <g id="icon/btn-plus" transform="translate(263, 20)">
                            <rect id="Rectangle" x="0" y="0" width="24" height="24"></rect>
                            <path d="M20.25,5.25 L20.25,18.75 C20.25,19.5784271 19.5784271,20.25 18.75,20.25 L5.25,20.25 C4.42157288,20.25 3.75,19.5784271 3.75,18.75 L3.75,5.25 C3.75,4.42157288 4.42157288,3.75 5.25,3.75 L18.75,3.75 C19.5784271,3.75 20.25,4.42157288 20.25,5.25 Z" id="Path" fill="#1272F4" fill-rule="nonzero" opacity="0.2"></path>
                            <path d="M21,12 C21,12.4142136 20.6642136,12.75 20.25,12.75 L12.75,12.75 L12.75,20.25 C12.75,20.6642136 12.4142136,21 12,21 C11.5857864,21 11.25,20.6642136 11.25,20.25 L11.25,12.75 L3.75,12.75 C3.33578644,12.75 3,12.4142136 3,12 C3,11.5857864 3.33578644,11.25 3.75,11.25 L11.25,11.25 L11.25,3.75 C11.25,3.33578644 11.5857864,3 12,3 C12.4142136,3 12.75,3.33578644 12.75,3.75 L12.75,11.25 L20.25,11.25 C20.6642136,11.25 21,11.5857864 21,12 Z" id="Path" fill="#1272F4" fill-rule="nonzero"></path>
                        </g>
                    </g>
                </g>
            </g>
        </g>
    </g>
</svg>