<?xml version="1.0" encoding="UTF-8"?>
<svg width="28px" height="28px" viewBox="0 0 28 28" version="1.1" xmlns="http://www.w3.org/2000/svg" xmlns:xlink="http://www.w3.org/1999/xlink">
    <title>PaperPlaneTilt</title>
    <g id="2.0" stroke="none" stroke-width="1" fill="none" fill-rule="evenodd">
        <g id="Homepage" transform="translate(-770, -1960)" fill="#1272F4" fill-rule="nonzero">
            <g id="desktop/welcome-to-usjunkyards" transform="translate(239, 1304)">
                <g id="Group-18" transform="translate(0, 604)">
                    <g id="PaperPlaneTilt" transform="translate(531, 52)">
                        <path d="M26.961182,2.27288003 L19.683682,26.27288 C19.5699335,26.6732969 19.220037,26.9613732 18.8052303,26.9961258 C18.3904236,27.0308784 17.9974711,26.805038 17.818682,26.42913 L12.499932,15.50038 L1.57243199,10.18163 C1.196524,10.0028409 0.97068365,9.60988843 1.00543622,9.19508171 C1.0401888,8.78027499 1.32826515,8.4303785 1.72868199,8.31663003 L25.728682,1.03913003 C26.076814,0.941555497 26.450504,1.03949331 26.7060272,1.29527566 C26.9615504,1.551058 27.0591094,1.92484708 26.961182,2.27288003 Z" id="Path" opacity="0.2"></path>
                        <path d="M27.414932,0.585380031 C26.9028347,0.0736115881 26.1541448,-0.121449363 25.457432,0.0753800305 L25.438682,0.0753800305 L1.44618199,7.35538003 C0.648743831,7.58520017 0.076084009,8.28361571 0.00698128412,9.11062824 C-0.0621214407,9.93764077 0.386691603,10.7214076 1.13493199,11.08038 L11.749932,16.25038 L16.912432,26.85913 C17.2402934,27.5587853 17.9447769,28.0042101 18.717432,28.0004045 C18.774932,28.0004045 18.832432,27.99788 18.889932,27.99288 C19.7165391,27.9259497 20.4144197,27.3521922 20.639932,26.55413 L27.914932,2.56163003 C27.914932,2.55538003 27.914932,2.54913003 27.914932,2.54288003 C28.1143069,1.84796909 27.9231409,1.09955436 27.414932,0.585380031 Z M18.728682,25.98163 L18.722432,25.99913 L18.722432,25.99038 L13.714932,15.70288 L19.714932,9.70288003 C20.0884609,9.30971573 20.0805326,8.69047397 19.6970603,8.30700168 C19.313588,7.9235294 18.6943463,7.91560114 18.301182,8.28913003 L12.301182,14.28913 L2.00993199,9.28163003 L2.00118199,9.28163003 L2.01868199,9.28163003 L25.999932,2.00038003 L18.728682,25.98163 Z" id="Shape"></path>
                    </g>
                </g>
            </g>
        </g>
    </g>
</svg>