<?xml version="1.0" encoding="UTF-8"?>
<svg width="213px" height="48px" viewBox="0 0 213 48" version="1.1" xmlns="http://www.w3.org/2000/svg" xmlns:xlink="http://www.w3.org/1999/xlink">
    <title>Group 5</title>
    <g id="2.0" stroke="none" stroke-width="1" fill="none" fill-rule="evenodd">
        <g id="Homepage" transform="translate(-1099, -10806)">
            <g id="desktop/footer" transform="translate(16, 10346)">
                <g id="Group-5" transform="translate(1083, 460)">
                    <rect id="Rectangle" stroke-opacity="0.201267483" stroke="#000000" x="0.5" y="0.5" width="212" height="47" rx="23.5"></rect>
                    <text id="This-site-is-part-of" font-family="Manrope-Medium, Manrope" font-size="10" font-weight="400" line-spacing="12" fill="#2C2833">
                        <tspan x="30" y="23">This site is part of </tspan>
                        <tspan x="30" y="35">USJunkCars</tspan>
                    </text>
                    <g id="Group-58" transform="translate(135, 12)" fill="#474150">
                        <path d="M20.7071428,7.64252259 C21.1446817,7.42893019 21.9467877,6.32782056 23.4013323,5.7178567 L25.2163125,0 L19.1714799,0 C18.0794659,0 17.11297,0.708648206 16.7817463,1.75215793 L14.6276284,8.53821004 C15.0101185,8.36879509 15.4471918,8.23293632 15.9503119,8.14516502 C18.6685343,7.67105993 20.1812699,7.89924197 20.7071428,7.64252259" id="Fill-1"></path>
                        <path d="M29.2897064,5.26612046 L30.9613038,1.75075729e-05 L29.443971,1.75075729e-05 C28.3520152,1.75075729e-05 27.3854611,0.708607355 27.0542374,1.75217544 L25.9456971,5.24446943 C26.9114946,5.19212179 28.0924829,5.19568166 29.2897064,5.26612046" id="Fill-3"></path>
                        <path d="M36.7062893,0 L35.1890147,0 C34.0969425,0 33.1304466,0.708648206 32.7991647,1.75215793 L31.6112517,5.49457679 C32.8745804,5.67659719 33.9945843,5.95129101 34.6957288,6.33388985 L36.7062893,0 Z" id="Fill-5"></path>
                        <path d="M42.451234,0 L40.9339595,0 C39.8418872,0 38.8754495,0.708648206 38.5441676,1.75215793 L36.7907536,7.2762058 C38.0108463,7.63003385 39.1487731,7.67158516 39.9949298,7.73823066 L42.451234,0 Z" id="Fill-7"></path>
                        <path d="M41.0357066,9.95009661 C41.0257559,9.91379757 41.0127211,9.87458061 40.9900266,9.82976122 C40.9797268,9.80846034 40.9640152,9.78313272 40.9480126,9.76025616 L40.9109449,9.71275227 C40.8593876,9.65205935 40.801662,9.60315486 40.7438783,9.56306252 C40.6276706,9.48416173 40.5137325,9.43823352 40.405497,9.40187613 C40.2967961,9.3655771 40.1925758,9.3407747 40.0902759,9.31947382 C39.6827055,9.23800525 39.3009719,9.20719192 38.9226134,9.1618473 C38.1692133,9.07600183 37.4389733,8.96407008 36.7444044,8.75345398 C36.3978765,8.64805839 36.0605427,8.52276252 35.7367675,8.37237247 C35.574938,8.2970899 35.4164837,8.2157964 35.2618118,8.12831689 C35.1844176,8.08483975 35.1079545,8.03961186 35.0327716,7.9926332 C34.9950056,7.96946485 34.9575305,7.94577126 34.920521,7.92137738 L34.8647739,7.8851367 L34.7940136,7.84055075 C34.5991898,7.71881476 34.4034931,7.62678328 34.2086694,7.54373902 C34.0137292,7.46145343 33.81908,7.39136478 33.6246054,7.32833751 C33.2355979,7.20292493 32.8472305,7.10529103 32.4586886,7.02096289 C30.9034735,6.70098281 29.3494803,6.57049303 27.786002,6.53401892 C27.3949579,6.5247399 27.0032736,6.52824142 26.6097855,6.53787058 C26.2160063,6.54860856 25.8212962,6.56786689 25.4191375,6.60521638 C25.2177963,6.62424128 25.0148258,6.64764307 24.8052215,6.6808491 C24.5935223,6.71475543 24.3776915,6.76471037 24.1680872,6.82336074 C23.7479475,6.94410464 23.3425302,7.11509527 22.9646954,7.32501108 C22.5871516,7.53533539 22.2373067,7.78394293 21.9169648,8.04778206 C21.7571138,8.17978916 21.6051769,8.31646495 21.4601647,8.449114 C21.3168982,8.58007064 21.1752611,8.71371179 21.0635342,8.80545147 L21.0259428,8.83515599 L20.9977201,8.85563985 L20.9892824,8.86112555 C20.9890496,8.86124227 20.9885841,8.86159242 20.9882349,8.86194257 C20.9875948,8.86223437 20.9868965,8.86240944 20.9862564,8.86275959 L20.9600704,8.86987934 C20.9374923,8.87518997 20.9086877,8.88096747 20.8757515,8.88633646 C20.8095883,8.89707444 20.727888,8.90536135 20.642929,8.91218931 C20.5580864,8.91919234 20.4677738,8.92450297 20.3757737,8.92928837 L19.8068394,8.95572481 C19.6135285,8.96535397 19.4181229,8.97679225 19.222368,8.99027308 C18.438243,9.04361282 17.6503356,9.13605281 16.874532,9.27447936 L16.7291706,9.30103251 L16.574906,9.33237107 C16.4710349,9.35238806 16.3674548,9.37835762 16.2640492,9.40456063 C16.1605273,9.4295381 16.05782,9.46286084 15.9549381,9.492507 C15.8529873,9.52804738 15.7501055,9.55880235 15.6493767,9.59965335 C15.2444831,9.75255282 14.8516932,9.95704128 14.4931197,10.2126518 C14.1337897,10.4672703 13.8147279,10.7765124 13.5404733,11.1103818 C13.2659859,11.4447765 13.0393898,11.8068915 12.8465445,12.1674308 C12.7502383,12.3475253 12.6627771,12.5283786 12.5794474,12.701295 L12.517823,12.8288669 L12.4858761,12.8951039 L12.4455497,12.9821749 C12.3938178,13.1019267 12.3468576,13.2325915 12.3188095,13.3858995 C12.2912269,13.5378652 12.2843604,13.7183683 12.3299822,13.9061079 C12.3733346,14.0936723 12.4790096,14.2763347 12.6044114,14.4050737 C12.7303951,14.5364389 12.8693554,14.6232181 13.0026712,14.6850781 C13.0698237,14.7161833 13.1364525,14.7413358 13.2036633,14.7622282 C13.2372977,14.7726744 13.2711067,14.7819534 13.305905,14.790357 L13.35979,14.8020871 L13.3890019,14.8076895 L13.4293283,14.8143424 L13.4696547,14.8210536 L13.5096902,14.82047 L19.8282537,14.7293723 L22.9875645,14.6756824 L26.1468171,14.6154564 L29.3060698,14.5477604 C30.3592122,14.5240668 31.4122964,14.4994979 32.4653806,14.4703769 L35.6246914,14.385757 C36.6777756,14.3521425 37.7308598,14.3236051 38.783944,14.2849134 C37.7308598,14.2462216 36.6777756,14.2176843 35.6246914,14.1840114 L32.4653806,14.0993915 C31.4122964,14.0703289 30.3592122,14.0457599 29.3060698,14.022008 L26.1468171,13.9543704 L22.9875645,13.8941443 L19.8282537,13.8403961 L13.5778902,13.7503488 L13.5732349,13.7488898 C13.5617712,13.7451549 13.5496093,13.7411865 13.5378547,13.7365762 C13.5141709,13.727589 13.4917674,13.7171428 13.4727389,13.7066966 C13.4338672,13.6858626 13.4112891,13.6635696 13.4066338,13.6544657 C13.4041898,13.6496803 13.4041898,13.6487465 13.4069247,13.6495052 C13.4082631,13.6505556 13.4109399,13.6531818 13.4121038,13.6529483 C13.4150133,13.6535319 13.4136167,13.6380086 13.4232764,13.6022347 C13.4324124,13.5672196 13.4521974,13.5167394 13.4795472,13.4621158 L13.6054728,13.2298487 C13.6967746,13.0614258 13.7853996,12.9015817 13.8764105,12.7471649 C14.057152,12.438448 14.2521504,12.1558174 14.4742076,11.9057509 C14.6962648,11.6564431 14.9417148,11.4374817 15.2146311,11.2593129 C15.4851033,11.0778761 15.7808886,10.933497 16.0951205,10.8248333 C16.1723983,10.7953039 16.2540985,10.7744115 16.3332966,10.7485587 C16.4150551,10.7281332 16.4950679,10.7036809 16.5781066,10.6864651 C16.6607379,10.6680822 16.7432529,10.6494074 16.8278045,10.6358683 L16.9554758,10.6135169 L17.0929813,10.5923328 C17.8266546,10.4776581 18.5617245,10.4011501 19.3052903,10.3636838 C19.678237,10.3443088 20.0500781,10.3340377 20.4446719,10.3158298 C20.543655,10.3111611 20.6440928,10.2993727 20.7502915,10.2978554 C27.4053741,10.2023807 34.4812946,10.8723372 35.0702467,10.91739 C34.4246165,10.8178887 33.7867839,10.6818548 33.148544,10.5452374 C32.5107696,10.4067525 31.872006,10.2675673 31.2309147,10.1362605 C29.9482085,9.87522255 28.6537476,9.65620281 27.3517219,9.48620428 C27.0260264,9.44669552 26.7005636,9.39948343 26.3740534,9.36616068 L25.3942899,9.26152375 C24.740222,9.20573295 24.0854559,9.14188867 23.429875,9.10372216 C23.2593169,9.0914085 23.0884679,9.06736476 22.9175606,9.03812712 C23.1517216,8.85120459 23.3915271,8.68377384 23.6420979,8.54225428 C23.9327624,8.37890863 24.2365199,8.24941094 24.5513919,8.15667916 C24.7100209,8.11150962 24.8673696,8.07456865 25.0330396,8.04550607 C25.2008627,8.01597663 25.37788,7.99239977 25.5570504,7.97244113 C26.2776307,7.89424064 27.0287613,7.87177259 27.7755276,7.86745405 C28.5239233,7.8630188 29.2747048,7.88583701 30.0211801,7.93666733 C30.7676555,7.98428793 31.5118613,8.05962885 32.2381444,8.18229858 C32.6009076,8.24258299 32.9596557,8.31471419 33.3043216,8.40756269 C33.6467762,8.50035283 33.9828879,8.61526087 34.2555132,8.7624412 L34.3081179,8.7910369 L34.3752705,8.82926177 C34.4198448,8.85493954 34.4648265,8.87974194 34.5102738,8.90396075 C34.6005282,8.95315703 34.6920046,9.00007733 34.7843538,9.04501343 C34.9688196,9.13517743 35.1565441,9.21775482 35.3467126,9.29262887 C35.7271077,9.44237698 36.1170463,9.56201207 36.5108836,9.65036695 C36.9044299,9.73918871 37.3006531,9.80151567 37.6947814,9.84277518 C38.0889096,9.88514351 38.4814667,9.90247601 38.8671573,9.9160152 L39.4387102,9.93498174 C39.6262019,9.94274343 39.8110168,9.95044676 39.9844845,9.96999688 C40.0708401,9.97974277 40.1546352,9.99217314 40.2296436,10.0097391 C40.3047683,10.0268381 40.3715716,10.0496563 40.4171353,10.0739335 C40.4394225,10.0860137 40.4565888,10.0978022 40.4693327,10.1083651 C40.4719513,10.1111663 40.474919,10.1137341 40.4780613,10.1161851 C40.4755591,10.1130338 40.4736388,10.1073146 40.473988,10.107548 C40.4741625,10.1049803 40.4781777,10.1108161 40.4820765,10.1204453 C40.4992429,10.1610045 40.5129178,10.2432901 40.5185041,10.3237666 C40.530026,10.4896217 40.5200171,10.6728092 40.5018615,10.8544795 C40.483124,11.0369668 40.454203,11.220913 40.4202194,11.4046842 C40.3530669,11.772635 40.2601357,12.1391268 40.1463139,12.4995494 C40.0319684,12.8599136 39.8952775,13.2139751 39.7378706,13.5600415 C39.6980679,13.6464122 39.6566941,13.7320242 39.6135163,13.816936 C39.5914618,13.8593626 39.5701057,13.9023145 39.5474112,13.939489 C39.5240184,13.9777722 39.4960285,14.0132542 39.4657691,14.0470438 C39.3429859,14.1803348 39.1656776,14.2709657 38.973647,14.2849134 C39.1646884,14.3000283 39.3678917,14.2393353 39.5234365,14.1086121 C39.5620172,14.0759313 39.5987357,14.0403326 39.6312646,14.0005904 C39.6643171,13.9598561 39.6911432,13.9197638 39.7189585,13.8804301 C39.7741237,13.8007706 39.8276595,13.7197689 39.8796823,13.6378335 C40.0892866,13.3105586 40.2685152,12.9637919 40.4286571,12.6080964 C40.5881007,12.2518173 40.7275847,11.8856755 40.8426285,11.5082706 C40.8995394,11.3194223 40.9487109,11.1274225 40.9895029,10.9308125 C41.0291892,10.7335605 41.0621835,10.5340909 41.0698648,10.3160049 C41.0716687,10.2051819 41.0728325,10.0939505 41.0357066,9.95009661 L41.0357066,9.95009661 Z" id="Fill-9"></path>
                        <path d="M4.2370792,21.3563331 C4.21415191,21.5713261 4.15630996,21.7678194 4.06372793,21.9459298 C3.97102952,22.1239818 3.85197055,22.2775232 3.70643462,22.4064373 C3.56095689,22.5354098 3.39575238,22.635203 3.21105385,22.7058168 C3.02618074,22.7764891 2.83030952,22.8116793 2.62326562,22.8116793 C2.42238996,22.8116793 2.23710952,22.7772477 2.06719153,22.7081512 C1.89727354,22.6390546 1.7524941,22.5399618 1.6329114,22.4110477 C1.51321232,22.2820752 1.42534377,22.1285338 1.3689566,21.9504818 C1.31262763,21.7724881 1.29604317,21.5744191 1.31926141,21.3563331 L1.75947703,17.2205774 L1.082831,17.2253628 C0.72774895,17.2278723 0.431090758,17.4971971 0.39338293,17.8512586 L0.0194469656,21.3655538 C-0.0371147768,21.8967919 0.029688598,22.3588751 0.220089854,22.7518618 C0.410374729,23.1449068 0.701155621,23.4496553 1.09225796,23.6660489 C1.48341848,23.8825592 1.95185678,23.9908144 2.49774743,23.9908144 C3.04369626,23.9908144 3.53523643,23.8825592 3.97236792,23.6660489 C4.40961579,23.4496553 4.76510518,23.1449068 5.03912703,22.7518618 C5.3130907,22.3588751 5.4784116,21.8967919 5.53497334,21.3655538 L5.97612002,17.2205774 L5.30500214,17.2205774 C4.94805797,17.2205774 4.64849023,17.4906026 4.61066602,17.8465315 L4.2370792,21.3563331 Z M8.37933069,19.91019 C8.53027839,19.8335069 8.72254176,19.8027519 8.95629538,19.8181002 C9.19580992,19.8364832 9.38050845,19.8994521 9.51033278,20.0068902 C9.64004072,20.1144451 9.70608761,20.2602248 9.70847345,20.4444045 L11.0412822,20.2141799 C11.0292949,19.913283 10.9402625,19.6522451 10.7739524,19.4311828 C10.6076422,19.2101205 10.3772055,19.0397135 10.0825258,18.9199617 C9.78767152,18.8002099 9.44108537,18.740334 9.04270915,18.740334 C8.63164727,18.740334 8.26806932,18.8041783 7.95168435,18.9314583 C7.63541576,19.0589135 7.38158621,19.2401169 7.19037028,19.4749518 C6.99903796,19.7097867 6.88638001,19.9869899 6.85239641,20.3062697 C6.82527936,20.56118 6.8570517,20.7783906 6.94777161,20.9579599 C7.03849152,21.1375876 7.20090287,21.2918877 7.43500563,21.4208602 C7.6691084,21.5498326 7.98776283,21.6664914 8.39079434,21.7708949 C8.74768031,21.8661361 9.01012214,21.9428777 9.17806163,22.0011195 C9.34594294,22.0594781 9.45185073,22.1185953 9.49566862,22.1784129 C9.53948651,22.2383471 9.55618736,22.3174814 9.54571296,22.4156988 C9.52907031,22.5722166 9.45324731,22.6943027 9.31853493,22.7817822 C9.18364798,22.8693201 9.00022965,22.9130306 8.76804719,22.9130306 C8.48570401,22.9130306 8.25974799,22.8470855 8.09023734,22.7150783 C7.92072669,22.5830712 7.82180183,22.4002922 7.79334638,22.1669746 L6.4643782,22.3603749 C6.49393928,22.8793577 6.69039241,23.2808648 7.05391216,23.5647209 C7.41737373,23.8488104 7.91921372,23.9907969 8.55925755,23.9907969 C9.22432355,23.9907969 9.76067086,23.8449588 10.1682413,23.5532242 C10.5757535,23.2615481 10.8066558,22.8609164 10.860948,22.3511543 C10.888356,22.0932677 10.8583876,21.8730224 10.7712174,21.6903017 C10.6839889,21.5076394 10.5304226,21.351005 10.3105767,21.2205152 C10.0907307,21.0900254 9.79314149,20.9757009 9.41769256,20.8773667 C9.03275847,20.7792076 8.74715659,20.6993147 8.56071233,20.6379215 C8.37432626,20.5765283 8.25369612,20.5166524 8.19870554,20.4582938 C8.14371495,20.4000519 8.12078766,20.327804 8.12992367,20.2417835 C8.14534431,20.0975211 8.228383,19.9869899 8.37933069,19.91019 M14.0894423,21.6419108 C14.0714612,21.8108589 14.0524909,21.9596733 14.0324732,22.0886457 C14.0125136,22.2176182 13.9789956,22.326632 13.9318026,22.4156872 C13.8571434,22.5569733 13.7482097,22.6596844 13.604885,22.724229 C13.4615022,22.7887152 13.3302231,22.8209291 13.2109895,22.8209291 C13.0383947,22.8209291 12.8818607,22.7588356 12.7413874,22.6344151 C12.6009141,22.510053 12.5255566,22.3634562 12.5152568,22.1946249 L11.2226581,22.4893357 C11.3210592,22.94996 11.5307799,23.315343 11.8519365,23.5854849 C12.1729768,23.8556267 12.6032999,23.9907852 13.1429641,23.9907852 C13.51626,23.9907852 13.8645337,23.9170783 14.187727,23.7697229 C14.5108622,23.6223675 14.7854659,23.3859569 15.0115383,23.0604911 C15.1149439,22.913019 15.1889048,22.7710909 15.2333046,22.6344151 C15.2776462,22.4978561 15.3088948,22.3511426 15.3271668,22.1946249 C15.3453806,22.0379905 15.3658057,21.8538108 15.3883256,21.6419108 L15.858917,17.2205482 L15.1877409,17.2205482 C14.8307968,17.2205482 14.5312872,17.4905734 14.4934048,17.8465607 L14.0894423,21.6419108 Z M20.2043951,21.403802 C20.1716917,21.7102429 20.1100673,21.9576249 20.0194638,22.1462981 C19.9288021,22.3350881 19.8233598,22.4778332 19.7033116,22.5745917 C19.5830888,22.6712919 19.4585598,22.7365368 19.329492,22.7702681 C19.200366,22.804116 19.0808996,22.8209233 18.9711512,22.8209233 C18.6981768,22.8209233 18.4935188,22.7610474 18.3572934,22.6412956 C18.2210099,22.5215438 18.1294171,22.3727294 18.0824569,22.194619 C18.0355549,22.016567 18.015188,21.8392153 18.0214144,21.6626806 C18.0276409,21.4860876 18.0368351,21.3410665 18.0488806,21.2274423 L18.2988695,18.878568 L17.6277517,18.878568 C17.2708075,18.878568 16.9712398,19.1485347 16.9334156,19.5045221 L16.7029788,21.6695669 C16.694192,21.7524945 16.6863944,21.8845016 16.6797024,22.0656466 C16.672894,22.24685 16.6876164,22.447195 16.7239276,22.6666816 C16.7601807,22.8862265 16.8372839,23.0973095 16.9553536,23.2999305 C17.0733069,23.5025515 17.250848,23.6699822 17.4878603,23.8019893 C17.7248144,23.9338797 18.0424796,24 18.440914,24 C18.9398444,24 19.3643485,23.8940208 19.7148334,23.6822375 C19.8795724,23.5826195 20.0269704,23.4678865 20.1584241,23.3390891 L20.1037827,23.8526446 L21.2332718,23.8526446 L21.762578,18.878568 L21.1008289,18.878568 C20.7438847,18.878568 20.4443751,19.1485347 20.4065509,19.5045221 L20.2043951,21.403802 Z M27.3579774,19.4311828 C27.2399659,19.2285035 27.0624249,19.0612478 26.8255871,18.9291824 C26.5885166,18.7972336 26.2707933,18.7311717 25.8724752,18.7311717 C25.373603,18.7311717 24.9489244,18.8370342 24.5985558,19.0489342 C24.4338168,19.1485522 24.2863606,19.2632852 24.1549069,19.3920242 L24.2096065,18.8785271 L23.6983978,18.8785271 C23.3415118,18.8785271 23.0419441,19.1485522 23.0041199,19.5045396 L22.5413843,23.8526621 L23.8402677,23.8526621 L24.1088778,21.328712 L24.1088778,21.3287703 C24.1418139,21.0186529 24.2036129,20.7699286 24.2941582,20.5825392 C24.3847035,20.3953249 24.4899712,20.2533385 24.6100777,20.1566383 C24.7301841,20.0598798 24.8547712,19.9946933 24.983839,19.9608453 C25.1129651,19.927114 25.2323732,19.91019 25.3421798,19.91019 C25.6152124,19.91019 25.8197541,19.9700659 25.9560958,20.0898177 C26.0923794,20.2095695 26.1839721,20.358559 26.2309324,20.5365527 C26.2778344,20.714663 26.2982013,20.8920147 26.2919748,21.0685494 C26.285632,21.2450841 26.2765542,21.3901636 26.2644504,21.5037877 L26.0144615,23.8526621 L27.3133449,23.8526621 L27.6104104,21.0616048 C27.6191973,20.9787356 27.6269367,20.8467285 27.633745,20.6654667 C27.640437,20.4843801 27.6256565,20.2840351 27.5894616,20.0644901 C27.5531504,19.8450035 27.475989,19.6338622 27.3579774,19.4311828 M31.8780753,19.132206 L30.1102299,21.2734406 L30.5416005,17.2205541 L29.8695516,17.2205541 C29.5129566,17.2205541 29.2136798,17.4899956 29.1753318,17.8455745 L28.5274322,23.8526563 L29.8357426,23.8526563 L30.0906195,21.4576786 L31.5957904,23.8526563 L33.2618013,23.8526563 L31.5687897,21.3655888 L33.6687317,18.8785213 L32.4159356,18.8785213 C32.2079607,18.8785213 32.010751,18.9715448 31.8780753,19.132206 M35.3990904,19.3345235 C35.5796573,18.9936511 35.823478,18.7296369 36.130436,18.5423642 C36.4375104,18.3550915 36.80586,18.2613676 37.2357176,18.2613676 C37.706309,18.2613676 38.0787902,18.3727742 38.3532194,18.5952954 C38.627474,18.817875 38.8060625,19.1303269 38.8888102,19.5325342 L40.2155089,19.1825578 C40.0676454,18.5376955 39.7494565,18.0264744 39.2609423,17.648836 C38.7725444,17.2711977 38.1392507,17.0822909 37.3611776,17.0822909 C36.6834842,17.0822909 36.083825,17.2267284 35.5621418,17.5152532 C35.0403423,17.8038364 34.6193297,18.2076778 34.2990459,18.7265439 C33.9786458,19.2455267 33.7819017,19.8488377 33.7086973,20.5365935 C33.6354929,21.2244077 33.7038093,21.8277187 33.9137627,22.3465848 C34.1235416,22.8655093 34.4586641,23.2692923 34.9190138,23.5578754 C35.3792472,23.8464586 35.9482979,23.9907793 36.6259332,23.9907793 C37.4040063,23.9907793 38.0774518,23.8019893 38.6463279,23.4242926 C39.2151459,23.0465959 39.6421521,22.5354331 39.9272303,21.8906292 L38.6750743,21.5405945 C38.5070185,21.9397671 38.2620921,22.2514019 37.9402372,22.4755572 C37.6182659,22.6996542 37.2220427,22.8117026 36.7513932,22.8117026 C36.3215938,22.8117026 35.9731455,22.7180955 35.705932,22.5308228 C35.4388931,22.3436085 35.2512268,22.0794192 35.1432241,21.7386051 C35.0351051,21.397791 35.0056604,20.997101 35.0546573,20.5365935 C35.1037124,20.0760276 35.2184652,19.6753376 35.3990904,19.3345235 M43.7757098,22.3419861 C43.7336377,22.4126584 43.6592695,22.5001379 43.5524306,22.604483 C43.44565,22.7089449 43.307097,22.8017934 43.136888,22.8830869 C42.9666209,22.9644971 42.7638831,23.005173 42.5286165,23.005173 C42.3811021,23.005173 42.2563404,22.983697 42.1543314,22.9406868 C42.0521479,22.8977349 41.9764413,22.835583 41.927037,22.7541144 C41.8776328,22.6728793 41.8590116,22.5753621 41.8711736,22.4617379 C41.8799604,22.3788104 41.9059718,22.3036445 41.9492078,22.2360653 C41.9924438,22.1684861 42.0555229,22.1063925 42.1385034,22.0494929 C42.2214258,21.9927684 42.3282064,21.9397205 42.4589618,21.8906409 C42.5730163,21.8507236 42.7040045,21.8138994 42.8519262,21.7800514 C42.999848,21.7463201 43.1936825,21.7086788 43.4333716,21.6671859 C43.5873453,21.6405744 43.7719856,21.6098194 43.9863616,21.5749793 C43.9744324,21.6625172 43.9596519,21.7598593 43.9412635,21.8698652 C43.9111205,22.0494929 43.8560136,22.2069444 43.7757098,22.3419861 M44.5422029,18.9430075 C44.2083606,18.8079074 43.8170255,18.7403282 43.3683722,18.7403282 C42.756551,18.7403282 42.2597155,18.8693006 41.8778073,19.1272455 C41.4957246,19.3851904 41.2185605,19.7198185 41.0461402,20.1312465 L42.1656205,20.4905019 C42.2712955,20.263312 42.4309137,20.1052186 42.6444168,20.0161634 C42.8578035,19.9271082 43.058621,19.8825222 43.246811,19.8825222 C43.5856577,19.8825222 43.8199351,19.9516188 43.9495266,20.0898119 C44.0511283,20.1981838 44.102511,20.3552851 44.1051878,20.5598902 C43.8859238,20.591579 43.676785,20.6215753 43.4805646,20.6494123 C43.1460822,20.6970329 42.8458162,20.7469295 42.5798829,20.7991021 C42.3138914,20.851333 42.0832219,20.9112089 41.887758,20.9787298 C41.6043674,21.0770056 41.3740471,21.1990334 41.1970879,21.3448131 C41.0198379,21.4907096 40.8850673,21.6588406 40.792718,21.8491479 C40.7001942,22.039572 40.6418867,22.2498379 40.6173301,22.4801209 C40.5879436,22.7565071 40.6261169,23.009083 40.7319665,23.2377903 C40.8378161,23.4665559 41.0097708,23.6492183 41.2478306,23.7858357 C41.485774,23.9224531 41.7867383,23.990791 42.1507236,23.990791 C42.5899499,23.990791 42.9610927,23.9163255 43.2639774,23.7673944 C43.50291,23.6499769 43.7356744,23.4738507 43.9623869,23.2408249 L43.8973292,23.8526563 L45.0173914,23.8526563 L45.3408757,20.812933 C45.365025,20.5856847 45.3775361,20.3799708 45.3783047,20.1957911 C45.3791072,20.0114947 45.3390718,19.827315 45.2583607,19.643077 C45.1148033,19.3114252 44.8760452,19.0781076 44.5422029,18.9430075 M49.2940294,18.8669721 C49.1391247,18.8778268 48.9873041,18.9039131 48.8385677,18.9453477 C48.6898313,18.9868406 48.5504054,19.0443238 48.4201737,19.1180307 C48.2503139,19.2101205 48.1030323,19.3268961 47.9782124,19.4681238 C47.9189157,19.5351778 47.8645652,19.6059668 47.8144045,19.6799655 L47.8997126,18.8785271 L47.397989,18.8785271 C47.0410448,18.8785271 46.7415353,19.1485522 46.7036529,19.5045396 L46.2409173,23.8526621 L47.5303737,23.8526621 L47.8009623,21.310329 C47.8212128,21.1199634 47.8660782,20.9487976 47.9356165,20.7967735 C48.0050967,20.6448078 48.0976205,20.5128007 48.2131298,20.4006939 C48.3285228,20.2886454 48.4652137,20.1988316 48.6229697,20.1312523 C48.7811331,20.0606385 48.9541934,20.0184452 49.1423252,20.0046142 C49.3303988,19.9907832 49.4928684,20.0054312 49.6294429,20.0483832 L49.7539136,18.8785271 C49.6022094,18.8601442 49.4488177,18.8562925 49.2940294,18.8669721 M53.6531358,21.220521 C53.4332899,21.0900312 53.1356424,20.9757068 52.7601935,20.8773726 C52.3753176,20.7792135 52.0897157,20.6993206 51.9033296,20.6379273 C51.7168854,20.5765341 51.5961971,20.5165999 51.5412065,20.4582413 C51.4862741,20.3999994 51.4632886,20.3278099 51.4724246,20.2417893 C51.487787,20.0975269 51.5710003,19.9869958 51.7218898,19.9101959 C51.8727793,19.8334543 52.0651591,19.8027577 52.2988545,19.818106 C52.538369,19.836489 52.7231258,19.8994579 52.8528337,20.006896 C52.9825998,20.1144509 53.0485885,20.2602306 53.0509744,20.4444103 L54.3838414,20.2141857 C54.3719122,19.9132889 54.2827634,19.652251 54.1165115,19.4311887 C53.9501432,19.2101264 53.7197646,19.0397193 53.4250267,18.9199675 C53.1302307,18.8002157 52.7836445,18.7403398 52.3852683,18.7403398 C51.9741482,18.7403398 51.6105703,18.8041841 51.2942435,18.9314642 C50.9779167,19.0589193 50.7240871,19.2400643 50.5328712,19.4749576 C50.3415971,19.7097925 50.2289391,19.9869958 50.1949555,20.3062755 C50.1677803,20.5611858 50.1995526,20.7783964 50.2903307,20.9579658 C50.3810507,21.1375935 50.543462,21.2918936 50.7775648,21.420866 C51.0116093,21.5498385 51.3302638,21.6664973 51.7333535,21.7709008 C52.0902394,21.866142 52.3526813,21.9428835 52.5205626,22.0011253 C52.6885021,22.0594839 52.7943517,22.1186012 52.8381696,22.1784187 C52.8819874,22.2382946 52.8986883,22.3174872 52.8882139,22.4156463 C52.8715712,22.5722224 52.7958064,22.6943085 52.6610359,22.781788 C52.5262653,22.8693259 52.3426724,22.9130365 52.1106063,22.9130365 C51.8282049,22.9130365 51.6023071,22.8470913 51.4327965,22.7150258 C51.263344,22.5830771 51.1643028,22.400298 51.1358473,22.1669804 L49.8069373,22.3603808 C49.8364402,22.8793636 50.0328933,23.2808706 50.3964131,23.5647267 C50.7598747,23.8488163 51.2617147,23.9908027 51.9017585,23.9908027 C52.5668827,23.9908027 53.10323,23.8449646 53.5107422,23.5532301 C53.9183126,23.2615539 54.1491567,22.8608639 54.203449,22.3511601 C54.2309152,22.0932735 54.2008886,21.8730283 54.1137765,21.6903076 C54.0264899,21.5076452 53.8729236,21.3510108 53.6531358,21.220521" id="Combined-Shape"></path>
                    </g>
                </g>
            </g>
        </g>
    </g>
</svg>