<svg width="120" height="24" viewBox="0 0 120 24" fill="none" xmlns="http://www.w3.org/2000/svg">
<path d="M12.489 17.3874L12.0006 17.114L11.5122 17.3874L6.35049 20.2767L7.50331 14.4748L7.61239 13.9258L7.20143 13.5457L2.85856 9.52958L8.73267 8.8331L9.28853 8.7672L9.52299 8.25891L12.0006 2.88752L14.4781 8.2589L14.7126 8.7672L15.2685 8.8331L21.1426 9.52958L16.7997 13.5457L16.3888 13.9258L16.4979 14.4748L17.6507 20.2767L12.489 17.3874Z" stroke="#FFA518" stroke-width="2"/>
<path d="M36.489 17.3874L36.0006 17.114L35.5122 17.3874L30.3505 20.2767L31.5033 14.4748L31.6124 13.9258L31.2014 13.5457L26.8586 9.52958L32.7327 8.8331L33.2885 8.7672L33.523 8.25891L36.0006 2.88752L38.4781 8.2589L38.7126 8.7672L39.2685 8.8331L45.1426 9.52958L40.7997 13.5457L40.3888 13.9258L40.4979 14.4748L41.6507 20.2767L36.489 17.3874Z" stroke="#FFA518" stroke-width="2"/>
<path d="M60.489 17.3874L60.0006 17.114L59.5122 17.3874L54.3505 20.2767L55.5033 14.4748L55.6124 13.9258L55.2014 13.5457L50.8586 9.52958L56.7327 8.8331L57.2885 8.7672L57.523 8.25891L60.0006 2.88752L62.4781 8.2589L62.7126 8.7672L63.2685 8.8331L69.1426 9.52958L64.7997 13.5457L64.3888 13.9258L64.4979 14.4748L65.6507 20.2767L60.489 17.3874Z" stroke="#FFA518" stroke-width="2"/>
<path d="M84.489 17.3874L84.0006 17.114L83.5122 17.3874L78.3505 20.2767L79.5033 14.4748L79.6124 13.9258L79.2014 13.5457L74.8586 9.52958L80.7327 8.8331L81.2885 8.7672L81.523 8.25891L84.0006 2.88752L86.4781 8.2589L86.7126 8.7672L87.2685 8.8331L93.1426 9.52958L88.7997 13.5457L88.3888 13.9258L88.4979 14.4748L89.6507 20.2767L84.489 17.3874Z" stroke="#FFA518" stroke-width="2"/>
<path d="M108.489 17.3874L108.001 17.114L107.512 17.3874L102.35 20.2767L103.503 14.4748L103.612 13.9258L103.201 13.5457L98.8586 9.52958L104.733 8.8331L105.289 8.7672L105.523 8.25891L108.001 2.88752L110.478 8.2589L110.713 8.7672L111.268 8.8331L117.143 9.52958L112.8 13.5457L112.389 13.9258L112.498 14.4748L113.651 20.2767L108.489 17.3874Z" stroke="#FFA518" stroke-width="2"/>
</svg>
