<svg width="120" height="24" viewBox="0 0 120 24" fill="none" xmlns="http://www.w3.org/2000/svg">
<path d="M12.0006 18.26L4.94715 22.2082L6.52248 14.2799L0.587891 8.7918L8.61493 7.84006L12.0006 0.5L15.3862 7.84006L23.4132 8.7918L17.4787 14.2799L19.054 22.2082L12.0006 18.26Z" fill="#FFCE00"/>
<path d="M36.0006 18.26L28.9471 22.2082L30.5225 14.2799L24.5879 8.7918L32.6149 7.84006L36.0006 0.5L39.3862 7.84006L47.4132 8.7918L41.4787 14.2799L43.054 22.2082L36.0006 18.26Z" fill="#FFCE00"/>
<path d="M60.0006 18.26L52.9471 22.2082L54.5225 14.2799L48.5879 8.7918L56.6149 7.84006L60.0006 0.5L63.3862 7.84006L71.4132 8.7918L65.4787 14.2799L67.054 22.2082L60.0006 18.26Z" fill="#FFCE00"/>
<path d="M84.0006 18.26L76.9471 22.2082L78.5225 14.2799L72.5879 8.7918L80.6149 7.84006L84.0006 0.5L87.3862 7.84006L95.4132 8.7918L89.4787 14.2799L91.054 22.2082L84.0006 18.26Z" fill="#FFCE00"/>
<path d="M108.001 18.26L100.947 22.2082L102.522 14.2799L96.5879 8.7918L104.615 7.84006L108.001 0.5L111.386 7.84006L119.413 8.7918L113.479 14.2799L115.054 22.2082L108.001 18.26Z" fill="#FFCE00"/>
</svg>
