<?xml version="1.0" encoding="UTF-8"?>
<svg width="24px" height="24px" viewBox="0 0 24 24" version="1.1" xmlns="http://www.w3.org/2000/svg" xmlns:xlink="http://www.w3.org/1999/xlink">
    <title>icon/star-empty-lightbg</title>
    <g id="Main" stroke="none" stroke-width="1" fill="none" fill-rule="evenodd" opacity="0.65">
        <g id="Styleguide" transform="translate(-751, -2665)">
            <g id="Group-6-Copy-2" transform="translate(727, 2645)">
                <g id="icon/star-empty-lightbg" transform="translate(24, 20)">
                    <polygon id="Path" points="0 0 24 0 24 24 0 24"></polygon>
                    <g id="Group">
                        <polygon id="Path" points="0 0 24 0 24 24 0 24"></polygon>
                        <path d="M12.0006,18.26 L4.94715,22.2082 L6.52248,14.2799 L0.587891,8.7918 L8.61493,7.84006 L12.0006,0.5 L15.3862,7.84006 L23.4132,8.7918 L17.4787,14.2799 L19.054,22.2082 L12.0006,18.26 Z M12.0006,15.968 L16.2473,18.3451 L15.2988,13.5717 L18.8719,10.2674 L14.039,9.69434 L12.0006,5.27502 L9.96214,9.69434 L5.12921,10.2674 L8.70231,13.5717 L7.75383,18.3451 L12.0006,15.968 Z" id="Shape" fill="#000000" fill-rule="nonzero"></path>
                    </g>
                </g>
            </g>
        </g>
    </g>
</svg>