<?xml version="1.0" encoding="utf-8" ?>
<svg xmlns="http://www.w3.org/2000/svg" xmlns:xlink="http://www.w3.org/1999/xlink" width="56" height="24">
	<path fill="#474150" transform="translate(14.6647 0)" d="M6.0795145 7.6425228C6.5170531 7.4289303 7.3191595 6.3278208 8.7737036 5.7178569L10.588684 0L4.5438514 0C3.4518375 0 2.4853415 0.7086482 2.1541178 1.7521579L0 8.5382099C0.38249007 8.3687954 0.81956333 8.2329359 1.3226836 8.1451654C4.040906 7.6710601 5.5536413 7.8992419 6.0795145 7.6425228" fill-rule="evenodd"/>
	<path fill="#474150" transform="translate(25.9828 1.74046e-05)" d="M3.3440094 5.2661028L5.0156069 0L3.4982738 0C2.4063182 0 1.439764 0.70858985 1.1085403 1.7521579L0 5.244452C0.96579754 5.1921043 2.1467857 5.1956639 3.3440094 5.2661028" fill-rule="evenodd"/>
	<path fill="#474150" transform="translate(31.6484 0)" d="M5.0950375 0L3.5777631 0C2.4856908 0 1.5191948 0.7086482 1.1879129 1.7521579L0 5.4945769C1.2633287 5.6765971 2.3833325 5.9512911 3.0844772 6.33389L5.0950375 0Z" fill-rule="evenodd"/>
	<path fill="#474150" transform="translate(36.8279 0)" d="M5.6604805 0L4.1432056 0C3.0511336 0 2.0846958 0.7086482 1.753414 1.7521579L0 7.276206C1.2200927 7.630034 2.3580196 7.6715851 3.2041762 7.7382307L5.6604805 0Z" fill-rule="evenodd"/>
	<path fill="#474150" transform="translate(12.334 6.52859)" d="M28.738787 3.4215047C28.728836 3.3852057 28.715801 3.3459888 28.693106 3.3011694C28.682806 3.2798684 28.667095 3.2545407 28.651093 3.2316642L28.614025 3.1841605C28.562468 3.1234674 28.504742 3.074563 28.446959 3.0344706C28.33075 2.9555697 28.216812 2.9096415 28.108576 2.8732841C27.999876 2.8369851 27.895655 2.8121827 27.793356 2.7908819C27.385786 2.7094133 27.004051 2.6786001 26.625692 2.6332555C25.872293 2.54741 25.142054 2.4354782 24.447485 2.2248621C24.100956 2.1194665 23.763622 1.9941705 23.439848 1.8437805C23.278017 1.7684979 23.119564 1.6872045 22.964891 1.599725C22.887497 1.5562478 22.811033 1.5110199 22.735851 1.4640412C22.698086 1.4408729 22.66061 1.4171793 22.6236 1.3927854L22.567854 1.3565447L22.497093 1.3119588C22.302269 1.1902229 22.106573 1.0981914 21.911749 1.0151471C21.716808 0.93286151 21.52216 0.86277288 21.327684 0.79974562C20.938677 0.67433304 20.55031 0.57669914 20.161768 0.49237096C18.606554 0.17239089 17.052561 0.041901112 15.489081 0.0054269987C15.098038 -0.0038520149 14.706353 -0.00035050025 14.312865 0.0092786653C13.919086 0.020016644 13.524376 0.039274976 13.122217 0.076624461C12.920876 0.095649362 12.717905 0.11905115 12.508301 0.15225717C12.296602 0.18616351 12.080771 0.23611845 11.871167 0.29476884C11.451027 0.41551271 11.045609 0.58650333 10.667775 0.79641914C10.290232 1.0067434 9.9403868 1.2553511 9.6200447 1.5191902C9.4601936 1.6511972 9.3082561 1.787873 9.1632442 1.9205221C9.0199776 2.0514786 8.8783407 2.1851199 8.766614 2.2768595L8.729022 2.3065641L8.7007999 2.3270478L8.6923618 2.3325336C8.6921291 2.3326504 8.6916637 2.3330004 8.6913147 2.3333507C8.6906748 2.3336425 8.6899757 2.3338175 8.6893358 2.3341677L8.6631498 2.3412874C8.6405716 2.3465981 8.6117678 2.3523755 8.5788307 2.3577445C8.5126677 2.3684826 8.4309673 2.3767695 8.3460083 2.3835974C8.2611656 2.3906004 8.1708536 2.395911 8.0788536 2.4006965L7.5099192 2.4271328C7.3166084 2.4367621 7.1212025 2.4482002 6.9254475 2.4616811C6.1413226 2.5150208 5.3534155 2.607461 4.5776114 2.7458875L4.4322505 2.7724407L4.2779856 2.8037791C4.1741147 2.823796 4.0705342 2.8497658 3.967129 2.8759687C3.8636069 2.9009461 3.7608995 2.934269 3.6580179 2.9639151C3.556067 2.9994555 3.4531851 3.0302105 3.3524563 3.0710614C2.9475627 3.2239609 2.5547729 3.4284494 2.1961994 3.6840599C1.8368694 3.9386785 1.5178076 4.2479205 1.2435529 4.58179C0.96906555 4.9161844 0.74246943 5.2782993 0.5496242 5.6388388C0.45331791 5.8189335 0.36585671 5.9997869 0.28252706 6.1727033L0.2209027 6.3002748L0.18895578 6.3665118L0.14862935 6.4535828C0.096897468 6.5733347 0.049937259 6.7039995 0.021889152 6.8573074C-0.0056934259 7.0092735 -0.012559975 7.1897764 0.033061843 7.3775158C0.076414205 7.5650806 0.18208922 7.7477427 0.30749103 7.876482C0.43347475 8.0078468 0.57243508 8.0946264 0.70575088 8.1564865C0.77290338 8.1875916 0.8395322 8.2127438 0.90674293 8.2336359C0.94037735 8.2440825 0.97418636 8.2533617 1.0089847 8.2617655L1.0628697 8.2734947L1.0920815 8.2790976L1.132408 8.2857504L1.1727344 8.2924614L1.2127699 8.2918777L7.5313334 8.2007809L10.690644 8.1470909L13.849896 8.0868645L17.00915 8.0191689C18.062292 7.9954748 19.115376 7.9709058 20.168461 7.9417849L23.32777 7.8571649C24.380856 7.8235507 25.433939 7.7950134 26.487024 7.7563214C25.433939 7.7176299 24.380856 7.6890922 23.32777 7.6554193L20.168461 7.5707994C19.115376 7.5417371 18.062292 7.517168 17.00915 7.4934163L13.849896 7.4257784L10.690644 7.3655524L7.5313334 7.3118043L1.2809699 7.2217569L1.2763145 7.2202978C1.2648509 7.2165627 1.252689 7.2125945 1.2409344 7.2079844C1.2172506 7.198997 1.194847 7.1885509 1.1758186 7.1781049C1.1369469 7.1572704 1.1143687 7.1349778 1.1097134 7.1258736C1.1072694 7.1210885 1.1072694 7.1201544 1.1100044 7.1209135C1.1113428 7.1219635 1.1140196 7.1245899 1.1151834 7.1243563C1.118093 7.1249399 1.1166964 7.1094165 1.1263561 7.0736427C1.1354921 7.0386276 1.155277 6.9881477 1.1826268 6.9335237L1.3085524 6.7012568C1.3998542 6.5328341 1.4884793 6.3729897 1.5794902 6.2185731C1.7602317 5.9098558 1.95523 5.6272254 2.1772873 5.3771591C2.3993444 5.127851 2.6447945 4.9088898 2.9177108 4.730721C3.1881828 4.549284 3.4839683 4.4049048 3.7982001 4.2962413C3.8754778 4.2667122 3.9571781 4.2458196 4.0363765 4.2199669C4.118135 4.1995411 4.1981473 4.1750889 4.2811861 4.1578732C4.3638177 4.1394901 4.4463325 4.1208158 4.5308843 4.1072764L4.6585555 4.0849252L4.796061 4.0637407C5.5297341 3.9490662 6.2648044 3.8725581 7.0083699 3.8350918C7.3813167 3.815717 7.7531576 3.8054457 8.1477518 3.7872379C8.2467346 3.7825692 8.3471727 3.7707808 8.453371 3.7692635C15.108454 3.6737888 22.184374 4.3437452 22.773327 4.3887982C22.127697 4.2892966 21.489864 4.1532631 20.851624 4.0166454C20.21385 3.8781605 19.575087 3.7389753 18.933994 3.6076686C17.651289 3.3466306 16.356827 3.1276109 15.054802 2.9576123C14.729106 2.9181037 14.403644 2.8708916 14.077133 2.8375688L13.097369 2.7329319C12.443302 2.677141 11.788535 2.6132967 11.132955 2.5751302C10.962397 2.5628166 10.791548 2.5387728 10.62064 2.5095353C10.854801 2.3226128 11.094606 2.1551819 11.345178 2.0136623C11.635842 1.8503168 11.9396 1.720819 12.254472 1.6280873C12.4131 1.5829177 12.570449 1.5459768 12.736119 1.5169141C12.903942 1.4873847 13.080959 1.4638078 13.26013 1.4438492C13.98071 1.3656487 14.731841 1.3431807 15.478607 1.3388622C16.227003 1.3344269 16.977785 1.3572451 17.72426 1.4080755C18.470736 1.455696 19.214941 1.531037 19.941223 1.6537067C20.303988 1.713991 20.662735 1.7861223 21.007401 1.8789707C21.349855 1.9717609 21.685968 2.086669 21.958593 2.2338493L22.011198 2.262445L22.07835 2.3006699C22.122925 2.3263476 22.167906 2.35115 22.213354 2.3753688C22.303608 2.4245651 22.395084 2.4714854 22.487434 2.5164216C22.6719 2.6065855 22.859623 2.689163 23.049791 2.7640369C23.430187 2.913785 23.820126 3.0334201 24.213963 3.1217752C24.60751 3.2105968 25.003733 3.2729237 25.397861 3.3141832C25.791988 3.3565516 26.184546 3.3738842 26.570236 3.3874233L27.14179 3.4063897C27.329281 3.4141514 27.514097 3.4218547 27.687565 3.4414051C27.77392 3.4511509 27.857716 3.4635813 27.932724 3.4811471C28.007849 3.4982462 28.074652 3.5210645 28.120214 3.5453415C28.142502 3.5574219 28.159668 3.5692103 28.172413 3.5797732C28.175032 3.5825744 28.177999 3.5851421 28.181141 3.5875933C28.178638 3.5844419 28.176718 3.5787227 28.177067 3.5789561C28.177242 3.5763884 28.181257 3.5822241 28.185156 3.5918534C28.202322 3.6324127 28.215998 3.7146981 28.221584 3.7951746C28.233105 3.9610298 28.223097 4.1442175 28.204941 4.3258877C28.186203 4.5083747 28.157282 4.6923213 28.123299 4.8760924C28.056147 5.2440429 27.963215 5.6105351 27.849394 5.9709573C27.735048 6.3313217 27.598356 6.6853833 27.44095 7.0314498C27.401148 7.1178203 27.359774 7.2034321 27.316595 7.2883439C27.294542 7.3307705 27.273186 7.3737226 27.25049 7.4108973C27.227098 7.4491801 27.199108 7.4846621 27.168848 7.5184517C27.046066 7.6517429 26.868757 7.7423739 26.676727 7.7563214C26.867767 7.7714362 27.070971 7.7107434 27.226517 7.5800204C27.265097 7.5473394 27.301815 7.5117407 27.334345 7.4719987C27.367397 7.4312644 27.394222 7.3911719 27.422039 7.3518381C27.477203 7.2721786 27.530739 7.1911769 27.582762 7.1092415C27.792366 6.7819667 27.971596 6.4352002 28.131737 6.0795045C28.29118 5.7232251 28.430664 5.3570838 28.545708 4.9796786C28.602619 4.7908301 28.651791 4.5988307 28.692583 4.4022207C28.732269 4.2049685 28.765263 4.0054989 28.772943 3.7874129C28.774748 3.67659 28.775911 3.5653586 28.738787 3.4215047L28.738787 3.4215047Z" fill-rule="evenodd"/>
	<path fill="#474150" transform="translate(0.0371094 17.0823)" d="M4.2370791 4.2740421C4.2141519 4.4890351 4.1563101 4.6855283 4.0637279 4.8636389C3.9710295 5.0416908 3.8519704 5.1952324 3.7064347 5.3241463C3.560957 5.4531188 3.3957524 5.5529122 3.2110538 5.6235261C3.0261807 5.6941981 2.8303096 5.7293882 2.6232655 5.7293882C2.42239 5.7293882 2.2371094 5.6949568 2.0671916 5.6258602C1.8972735 5.5567636 1.7524941 5.4576707 1.6329114 5.3287568C1.5132123 5.1997843 1.4253438 5.0462427 1.3689566 4.8681908C1.3126277 4.690197 1.2960432 4.4921284 1.3192614 4.2740421L1.759477 0.13828649L1.082831 0.14307189C0.72774893 0.14558131 0.43109077 0.41490614 0.39338294 0.76896763L0.019446965 4.2832627C-0.037114777 4.8145008 0.029688599 5.2765841 0.22008985 5.6695709C0.41037473 6.0626159 0.7011556 6.3673644 1.092258 6.5837579C1.4834185 6.8002682 1.9518567 6.9085236 2.4977474 6.9085236C3.0436962 6.9085236 3.5352364 6.8002682 3.972368 6.5837579C4.409616 6.3673644 4.7651052 6.0626159 5.0391269 5.6695709C5.3130908 5.2765841 5.4784117 4.8145008 5.5349731 4.2832627L5.97612 0.13828649L5.3050022 0.13828649C4.9480581 0.13828649 4.6484904 0.40831164 4.6106658 0.76424056L4.2370791 4.2740421ZM8.3793306 2.827899C8.5302782 2.7512159 8.7225418 2.7204609 8.956295 2.7358093C9.1958103 2.7541921 9.3805084 2.8171611 9.5103331 2.9245992C9.6400404 3.0321541 9.7060881 3.1779339 9.7084732 3.3621135L11.041283 3.1318889C11.029295 2.830992 10.940263 2.5699542 10.773952 2.348892C10.607642 2.1278296 10.377206 1.9574226 10.082526 1.8376708C9.7876711 1.717919 9.4410858 1.658043 9.0427094 1.658043C8.6316471 1.658043 8.2680693 1.7218874 7.9516845 1.8491673C7.6354156 1.9766226 7.3815861 2.1578259 7.1903701 2.3926609C6.9990377 2.6274958 6.8863802 2.9046991 6.8523965 3.2239788C6.8252792 3.478889 6.8570518 3.6960998 6.9477715 3.875669C7.0384917 4.0552969 7.2009029 4.2095966 7.4350057 4.3385692C7.6691084 4.4675417 7.9877629 4.5842004 8.3907948 4.6886039C8.7476807 4.7838449 9.0101223 4.8605866 9.1780615 4.9188285C9.3459425 4.9771872 9.4518509 5.0363045 9.4956684 5.0961218C9.5394869 5.1560564 9.5561876 5.2351904 9.5457134 5.3334079C9.5290699 5.4899254 9.4532471 5.6120119 9.3185349 5.699491C9.1836481 5.7870293 9.0002298 5.8307395 8.7680473 5.8307395C8.4857044 5.8307395 8.2597485 5.7647943 8.0902376 5.6327872C7.9207268 5.5007801 7.8218017 5.3180013 7.7933464 5.0846834L6.4643784 5.2780838C6.4939394 5.7970667 6.6903925 6.1985736 7.0539122 6.48243C7.4173737 6.7665195 7.9192138 6.9085059 8.5592575 6.9085059C9.2243233 6.9085059 9.7606707 6.7626677 10.168242 6.4709334C10.575753 6.1792569 10.806656 5.7786255 10.860948 5.2688632C10.888356 5.0109768 10.858388 4.7907314 10.771217 4.6080108C10.683989 4.4253483 10.530422 4.268714 10.310576 4.1382241C10.090731 4.0077343 9.7931414 3.89341 9.4176922 3.7950759C9.0327587 3.6969166 8.7471561 3.6170237 8.5607119 3.5556304C8.3743267 3.4942374 8.2536964 3.4343615 8.1987057 3.3760028C8.1437149 3.3177609 8.1207876 3.245513 8.1299238 3.1594925C8.1453447 3.0152302 8.2283831 2.9046991 8.3793306 2.827899M14.089442 4.5596199C14.071462 4.7285681 14.052491 4.8773823 14.032474 5.0063548C14.012513 5.1353273 13.978995 5.2443409 13.931803 5.3333964C13.857143 5.4746823 13.74821 5.5773935 13.604885 5.6419382C13.461502 5.7064242 13.330223 5.7386384 13.21099 5.7386384C13.038395 5.7386384 12.881861 5.6765447 12.741387 5.552124C12.600914 5.427762 12.525557 5.2811651 12.515257 5.1123338L11.222658 5.4070449C11.321059 5.8676691 11.53078 6.2330523 11.851936 6.5031939C12.172976 6.7733359 12.6033 6.9084945 13.142964 6.9084945C13.51626 6.9084945 13.864533 6.8347874 14.187727 6.6874318C14.510862 6.5400767 14.785466 6.3036661 15.011539 5.9782C15.114944 5.8307281 15.188905 5.6887999 15.233305 5.552124C15.277646 5.415565 15.308895 5.2688518 15.327167 5.1123338C15.345381 4.9556994 15.365806 4.7715197 15.388326 4.5596199L15.858917 0.13825731L15.187741 0.13825731C14.830797 0.13825731 14.531287 0.40828243 14.493404 0.76426977L14.089442 4.5596199ZM20.204395 4.3215108C20.171692 4.6279521 20.110067 4.8753338 20.019464 5.0640073C19.928802 5.2527971 19.82336 5.3955421 19.703312 5.492301C19.583088 5.5890012 19.458559 5.6542459 19.329493 5.6879773C19.200365 5.7218251 19.0809 5.7386322 18.971151 5.7386322C18.698177 5.7386322 18.493519 5.6787562 18.357294 5.5590048C18.22101 5.4392529 18.129417 5.2904387 18.082457 5.1123281C18.035555 4.9342761 18.015188 4.7569242 18.021414 4.5803895C18.027641 4.4037967 18.036835 4.2587757 18.048882 4.1451516L18.29887 1.796277L17.627752 1.796277C17.270807 1.796277 16.971239 2.0662439 16.933416 2.4222312L16.702978 4.587276C16.694193 4.6702037 16.686394 4.8022108 16.679703 4.9833555C16.672894 5.1645589 16.687616 5.3649039 16.723928 5.5843906C16.760181 5.8039355 16.837284 6.0150185 16.955353 6.2176394C17.073307 6.4202604 17.250849 6.5876913 17.48786 6.7196984C17.724815 6.8515887 18.04248 6.9177089 18.440914 6.9177089C18.939844 6.9177089 19.364349 6.8117299 19.714834 6.5999465C19.879572 6.5003285 20.02697 6.3855953 20.158424 6.2567983L20.103783 6.7703538L21.233273 6.7703538L21.762577 1.796277L21.100828 1.796277C20.743885 1.796277 20.444376 2.0662439 20.406551 2.4222312L20.204395 4.3215108ZM27.357977 2.348892C27.239965 2.1462126 27.062426 1.9789568 26.825586 1.8468914C26.588516 1.7149427 26.270794 1.6488807 25.872475 1.6488807C25.373604 1.6488807 24.948925 1.7547432 24.598557 1.9666432C24.433817 2.0662613 24.28636 2.1809943 24.154907 2.3097334L24.209606 1.7962362L23.698399 1.7962362C23.341513 1.7962362 23.041945 2.0662613 23.00412 2.4222486L22.541384 6.770371L23.840267 6.770371L24.108877 4.2464209L24.108877 4.2464795C24.141813 3.936362 24.203613 3.6876376 24.294159 3.5002482C24.384703 3.3130341 24.489971 3.1710474 24.610077 3.0743473C24.730185 2.9775889 24.854771 2.9124024 24.983839 2.8785543C25.112965 2.8448231 25.232372 2.827899 25.34218 2.827899C25.615211 2.827899 25.819754 2.8877749 25.956097 3.0075269C26.092379 3.1272786 26.183971 3.276268 26.230932 3.4542618C26.277834 3.6323721 26.298201 3.8097239 26.291975 3.9862585C26.285631 4.1627932 26.276554 4.3078728 26.26445 4.4214969L26.014462 6.770371L27.313345 6.770371L27.610411 3.9793139C27.619198 3.8964446 27.626936 3.7644374 27.633745 3.5831759C27.640436 3.4020891 27.625656 3.2017441 27.589462 2.9821992C27.55315 2.7627125 27.475988 2.5515711 27.357977 2.348892M31.878075 2.0499151L30.110229 4.1911497L30.541601 0.13826314L29.869551 0.13826314C29.512957 0.13826314 29.21368 0.40770468 29.175331 0.76328349L28.527431 6.7703652L29.835743 6.7703652L30.09062 4.3753877L31.595791 6.7703652L33.261803 6.7703652L31.56879 4.283298L33.668732 1.7962303L32.415936 1.7962303C32.207962 1.7962303 32.01075 1.8892539 31.878075 2.0499151M35.39909 2.2522326C35.579659 1.9113601 35.823479 1.6473459 36.130436 1.4600732C36.437511 1.2728006 36.805859 1.1790767 37.235718 1.1790767C37.70631 1.1790767 38.078789 1.2904832 38.353218 1.5130044C38.627476 1.7355841 38.806061 2.0480359 38.888809 2.4502432L40.215508 2.1002669C40.067646 1.4554045 39.749458 0.94418341 39.260941 0.56654507C38.772545 0.18890671 38.139252 0 37.361179 0C36.683483 0 36.083824 0.14443748 35.562141 0.4329623C35.04034 0.72154546 34.619331 1.1253868 34.299046 1.6442529C33.978645 2.1632357 33.781902 2.7665467 33.708698 3.4543025C33.635494 4.1421165 33.703808 4.7454276 33.913761 5.2642937C34.123543 5.7832184 34.458664 6.1870012 34.919014 6.4755845C35.379246 6.7641678 35.948299 6.9084883 36.625935 6.9084883C37.404007 6.9084883 38.077454 6.7196984 38.646328 6.3420019C39.215145 5.9643049 39.642151 5.4531422 39.927231 4.8083382L38.675076 4.4583035C38.507019 4.8574762 38.262093 5.1691108 37.940239 5.3932662C37.618267 5.6173635 37.222042 5.7294116 36.751392 5.7294116C36.321594 5.7294116 35.973145 5.6358047 35.705933 5.4485321C35.438892 5.2613177 35.251228 4.9971285 35.143223 4.6563144C35.035107 4.3155003 35.005661 3.9148102 35.054657 3.4543025C35.103714 2.9937367 35.218464 2.5930467 35.39909 2.2522326M43.775711 5.2596951C43.733639 5.3303676 43.659271 5.4178472 43.552429 5.522192C43.445648 5.6266541 43.307098 5.7195024 43.136887 5.800796C42.966621 5.882206 42.763882 5.9228821 42.528618 5.9228821C42.381104 5.9228821 42.25634 5.9014063 42.154331 5.8583961C42.052147 5.815444 41.97644 5.7532921 41.927036 5.6718235C41.877632 5.5905881 41.859013 5.4930711 41.871174 5.379447C41.879959 5.2965193 41.905972 5.2213535 41.949207 5.1537743C41.992443 5.086195 42.055523 5.0241017 42.138504 4.9672022C42.221424 4.9104776 42.328205 4.8574295 42.458961 4.8083501C42.573017 4.7684326 42.704006 4.7316084 42.851925 4.6977606C42.999847 4.6640291 43.193684 4.6263881 43.433372 4.5848951C43.587345 4.5582833 43.771984 4.5275283 43.986362 4.4926882C43.974434 4.5802264 43.959652 4.6775684 43.941265 4.7875743C43.911121 4.9672022 43.856014 5.1246533 43.775711 5.2596951M44.542202 1.8607166C44.208359 1.7256165 43.817024 1.6580372 43.368374 1.6580372C42.75655 1.6580372 42.259716 1.7870097 41.877808 2.0449545C41.495724 2.3028996 41.218559 2.6375275 41.046139 3.0489554L42.165619 3.408211C42.271294 3.181021 42.430912 3.0229275 42.644417 2.9338725C42.857803 2.8448172 43.05862 2.8002312 43.246811 2.8002312C43.585659 2.8002312 43.819935 2.8693278 43.949528 3.0075209C44.051128 3.1158929 44.102512 3.272994 44.105186 3.4775994C43.885925 3.5092881 43.676785 3.5392842 43.480564 3.5671213C43.146084 3.614742 42.845818 3.6646385 42.579884 3.7168112C42.313892 3.769042 42.083221 3.828918 41.887756 3.8964388C41.604366 3.9947147 41.374046 4.1167426 41.197086 4.2625222C41.019836 4.4084187 40.885067 4.5765495 40.792717 4.7668571C40.700195 4.9572811 40.641888 5.1675472 40.617329 5.39783C40.587944 5.6742163 40.626118 5.9267921 40.731968 6.1554995C40.837814 6.3842649 41.009769 6.5669274 41.247829 6.7035446C41.485775 6.8401623 41.786739 6.9085002 42.150723 6.9085002C42.589951 6.9085002 42.961094 6.8340344 43.263977 6.6851034C43.502911 6.5676861 43.735676 6.3915596 43.962387 6.158534L43.897327 6.7703652L45.017391 6.7703652L45.340878 3.7306421C45.365025 3.5033939 45.377537 3.2976799 45.378304 3.1135001C45.379108 2.9292037 45.339073 2.745024 45.258362 2.560786C45.114803 2.2291343 44.876045 1.9958167 44.542202 1.8607166M49.294029 1.7846812C49.139126 1.7955358 48.987305 1.8216221 48.838566 1.8630568C48.689831 1.9045497 48.550404 1.9620329 48.420174 2.0357397C48.250313 2.1278296 48.103031 2.2446051 47.978214 2.3858328C47.918915 2.4528868 47.864567 2.5236759 47.814404 2.5976746L47.899712 1.7962362L47.397987 1.7962362C47.041046 1.7962362 46.741535 2.0662613 46.703651 2.4222486L46.240917 6.770371L47.530373 6.770371L47.800961 4.2280383C47.821213 4.0376725 47.866077 3.8665068 47.935616 3.7144825C48.005096 3.5625169 48.097622 3.4305098 48.213131 3.318403C48.328522 3.2063544 48.465214 3.1165407 48.622971 3.0489614C48.781132 2.9783475 48.954193 2.9361544 49.142326 2.9223232C49.330399 2.9084923 49.492867 2.9231403 49.629444 2.9660921L49.753914 1.7962362C49.602211 1.7778533 49.448818 1.7740016 49.294029 1.7846812M53.653137 4.1382298C53.433289 4.0077405 53.135643 3.8934159 52.760193 3.7950816C52.375317 3.6969225 52.089714 3.6170297 51.903328 3.5556364C51.716885 3.4942431 51.596195 3.434309 51.541206 3.3759503C51.486275 3.3177085 51.463287 3.2455189 51.472424 3.1594985C51.487785 3.0152359 51.570999 2.9047048 51.721889 2.8279049C51.87278 2.7511635 52.065159 2.7204669 52.298855 2.735815C52.538368 2.7541981 52.723125 2.817167 52.852833 2.9246051C52.982601 3.03216 53.048588 3.1779397 53.050976 3.3621194L54.383842 3.1318948C54.371914 2.8309979 54.282764 2.5699601 54.116512 2.3488977C53.950142 2.1278355 53.719765 1.9574283 53.425026 1.8376766C53.13023 1.7179248 52.783646 1.6580489 52.385269 1.6580489C51.974148 1.6580489 51.610569 1.7218932 51.294243 1.8491732C50.977917 1.9766283 50.724087 2.1577735 50.532871 2.3926666C50.341599 2.6275015 50.228939 2.9047048 50.194954 3.2239845C50.167782 3.4788949 50.199554 3.6961055 50.290329 3.8756747C50.38105 4.0553026 50.543461 4.2096028 50.777565 4.3385749C51.011608 4.4675474 51.330265 4.5842061 51.733353 4.6886096C52.09024 4.7838511 52.35268 4.8605924 52.520561 4.9188342C52.688503 4.9771929 52.794353 5.0363102 52.838169 5.096128C52.881989 5.1560035 52.898689 5.2351961 52.888214 5.3333554C52.871571 5.4899316 52.795807 5.6120176 52.661037 5.6994972C52.526264 5.787035 52.342674 5.8307457 52.110607 5.8307457C51.828205 5.8307457 51.602306 5.7648005 51.432796 5.6327348C51.263344 5.5007863 51.164303 5.318007 51.135849 5.0846896L49.806938 5.27809C49.836441 5.7970724 50.032894 6.1985798 50.396412 6.4824357C50.759876 6.7665253 51.261715 6.9085116 51.90176 6.9085116C52.566883 6.9085116 53.10323 6.7626739 53.510742 6.4709392C53.918312 6.1792631 54.149158 5.778573 54.203449 5.2688689C54.230915 5.0109825 54.20089 4.7907372 54.113777 4.6080165C54.026489 4.4253545 53.872925 4.2687197 53.653137 4.1382298" fill-rule="evenodd"/>
</svg>
