<?xml version="1.0" encoding="UTF-8"?>
<svg width="24px" height="24px" viewBox="0 0 24 24" version="1.1" xmlns="http://www.w3.org/2000/svg" xmlns:xlink="http://www.w3.org/1999/xlink">
    <title>icon/input-popular-first</title>
    <g id="Main" stroke="none" stroke-width="1" fill="none" fill-rule="evenodd" opacity="0.65">
        <g id="Styleguide" transform="translate(-200, -2553)">
            <g id="Group-8-Copy-3" transform="translate(176, 2533)">
                <g id="icon/input-popular-first" transform="translate(24, 20)">
                    <path d="M15.75,13.5 C15.75,15.5710678 14.0710678,17.25 12,17.25 C9.92893219,17.25 8.25,15.5710678 8.25,13.5 C8.25,11.4289322 9.92893219,9.75 12,9.75 C14.0710678,9.75 15.75,11.4289322 15.75,13.5 Z M6,5.25 C4.34314575,5.25 3,6.59314575 3,8.25 C3,9.90685425 4.34314575,11.25 6,11.25 C7.65685425,11.25 9,9.90685425 9,8.25 C9,7.45435053 8.68392948,6.69128879 8.12132034,6.12867966 C7.55871121,5.56607052 6.79564947,5.25 6,5.25 Z M18,5.25 C16.3431458,5.25 15,6.59314575 15,8.25 C15,9.90685425 16.3431458,11.25 18,11.25 C19.6568542,11.25 21,9.90685425 21,8.25 C21,7.45435053 20.6839295,6.69128879 20.1213203,6.12867966 C19.5587112,5.56607052 18.7956495,5.25 18,5.25 Z" id="Shape" fill="#000000" fill-rule="nonzero" opacity="0.2"></path>
                    <path d="M22.95,14.1 C22.7908701,14.2193474 22.5908472,14.2705926 22.393934,14.2424621 C22.1970208,14.2143317 22.0193474,14.1091299 21.9,13.95 C20.9832615,12.7177509 19.5358424,11.9940413 18,12 C17.5857864,12 17.25,11.6642136 17.25,11.25 C17.25,10.8357864 17.5857864,10.5 18,10.5 C19.1692363,10.4998977 20.1435414,9.60425257 20.241838,8.43915543 C20.3401346,7.27405829 19.5296606,6.22783539 18.3769688,6.03183724 C17.2242771,5.8358391 16.1135591,6.5553918 15.82125,7.6875 C15.7542627,7.94707579 15.5538819,8.15119642 15.295589,8.22297161 C15.0372961,8.2947468 14.760332,8.22327221 14.5690265,8.03547161 C14.3777209,7.84767101 14.3011377,7.57207578 14.368125,7.3125 C14.7686619,5.76265521 16.1088352,4.63793845 17.7046674,4.51236577 C19.3004995,4.38679309 20.8000928,5.28805458 21.4381073,6.75617794 C22.0761218,8.2243013 21.7118687,9.93554994 20.53125,11.0165625 C21.5510716,11.4581217 22.4376157,12.1588244 23.1028125,13.0490625 C23.2221573,13.2086016 23.2731175,13.409071 23.2444486,13.6062359 C23.2157797,13.8034007 23.1098379,13.9810557 22.95,14.1 Z M17.89875,19.875 C18.0412965,20.1074294 18.0464728,20.3989101 17.9122688,20.6362542 C17.7780649,20.8735984 17.5256246,21.0194122 17.2529757,21.0170734 C16.9803267,21.0147345 16.730425,20.8646115 16.6003125,20.625 C15.6389396,18.997781 13.8895259,17.9994251 11.9995312,17.9994251 C10.1095366,17.9994251 8.36012288,18.997781 7.39875,20.625 C7.27105286,20.8691088 7.019804,21.0235594 6.74433756,21.0273569 C6.46887112,21.0310165 6.21353396,20.8834227 6.07927659,20.6428596 C5.94501921,20.4022965 5.95345547,20.1074918 6.10125,19.875 C6.82837311,18.6256676 7.93705653,17.6425079 9.264375,17.07 C7.73297447,15.8975026 7.11905247,13.8794737 7.73804523,12.0527866 C8.35703799,10.2260995 10.071286,8.99699624 12,8.99699624 C13.928714,8.99699624 15.642962,10.2260995 16.2619548,12.0527866 C16.8809475,13.8794737 16.2670255,15.8975026 14.735625,17.07 C16.0629435,17.6425079 17.1716269,18.6256676 17.89875,19.875 Z M12,16.5 C13.6568542,16.5 15,15.1568542 15,13.5 C15,11.8431458 13.6568542,10.5 12,10.5 C10.3431458,10.5 9,11.8431458 9,13.5 C9,15.1568542 10.3431458,16.5 12,16.5 Z M6.75,11.25 C6.75,10.8357864 6.41421356,10.5 6,10.5 C4.83076368,10.4998977 3.85645865,9.60425257 3.75816203,8.43915543 C3.65986541,7.27405829 4.47033942,6.22783539 5.62303118,6.03183724 C6.77572295,5.8358391 7.88644092,6.5553918 8.17875,7.6875 C8.28230339,8.08876939 8.69154311,8.33011589 9.0928125,8.2265625 C9.49408189,8.12300911 9.73542839,7.71376939 9.631875,7.3125 C9.23133805,5.76265521 7.89116476,4.63793845 6.29533261,4.51236577 C4.69950047,4.38679309 3.1999072,5.28805458 2.56189267,6.75617794 C1.92387815,8.2243013 2.28813127,9.93554994 3.46875,11.0165625 C2.44995292,11.4585393 1.56441928,12.1592097 0.9,13.0490625 C0.739063003,13.2634219 0.704710442,13.5473569 0.809882596,13.7939121 C0.915054749,14.0404673 1.14377346,14.2121851 1.40988261,14.2443809 C1.67599176,14.2765767 1.93906302,14.1643594 2.1,13.95 C3.01673848,12.7177509 4.46415759,11.9940413 6,12 C6.41421356,12 6.75,11.6642136 6.75,11.25 Z" id="Shape" fill="#000000" fill-rule="nonzero"></path>
                    <rect id="Rectangle" x="0" y="0" width="24" height="24"></rect>
                </g>
            </g>
        </g>
    </g>
</svg>