<?xml version="1.0" encoding="UTF-8"?>
<svg width="24px" height="24px" viewBox="0 0 24 24" version="1.1" xmlns="http://www.w3.org/2000/svg" xmlns:xlink="http://www.w3.org/1999/xlink">
    <title>icon/input-popular-last</title>
    <g id="Main" stroke="none" stroke-width="1" fill="none" fill-rule="evenodd" opacity="0.65">
        <g id="Styleguide" transform="translate(-200, -2665)">
            <g id="Group-8-Copy-4" transform="translate(176, 2645)">
                <g id="icon/input-popular-last" transform="translate(24, 20)">
                    <path d="M12.75,10.125 C12.75,12.8173882 10.5673882,15 7.875,15 C5.18261184,15 3,12.8173882 3,10.125 C3,7.43261184 5.18261184,5.25 7.875,5.25 C9.16793039,5.25 10.4079057,5.7636146 11.3221456,6.67785444 C12.2363854,7.59209429 12.75,8.83206961 12.75,10.125 Z" id="Path" fill="#000000" fill-rule="nonzero" opacity="0.2"></path>
                    <path d="M10.9921875,14.805 C13.0560707,13.4309882 13.9769007,10.8676707 13.2591649,8.49440768 C12.541429,6.12114465 10.3544197,4.49771775 7.875,4.49771775 C5.39558027,4.49771775 3.20857097,6.12114465 2.49083513,8.49440768 C1.77309929,10.8676707 2.6939293,13.4309882 4.7578125,14.805 C2.93952376,15.4751596 1.38666161,16.7152788 0.3309375,18.3403125 C0.179931719,18.5647475 0.161484079,18.853109 0.282659893,19.0949566 C0.403835708,19.3368041 0.645856906,19.4946597 0.916031104,19.5080658 C1.1862053,19.5214719 1.44266482,19.388351 1.5871875,19.1596875 C2.97076277,17.0316965 5.33676711,15.7478917 7.875,15.7478917 C10.4132329,15.7478917 12.7792372,17.0316965 14.1628125,19.1596875 C14.3917044,19.4998822 14.8513704,19.5932032 15.194805,19.3692019 C15.5382396,19.1452005 15.6381275,18.6869167 15.4190625,18.3403125 C14.3633384,16.7152788 12.8104762,15.4751596 10.9921875,14.805 L10.9921875,14.805 Z M3.75,10.125 C3.75,7.84682541 5.59682541,6 7.875,6 C10.1531746,6 12,7.84682541 12,10.125 C12,12.4031746 10.1531746,14.25 7.875,14.25 C5.59789627,14.2474168 3.75258322,12.4021037 3.75,10.125 Z M23.450625,19.378125 C23.1037127,19.6043441 22.6391026,19.5065535 22.4128125,19.1596875 C21.0307985,17.0302774 18.6635702,15.7466022 16.125,15.75 C15.7107864,15.75 15.375,15.4142136 15.375,15 C15.375,14.5857864 15.7107864,14.25 16.125,14.25 C17.7863113,14.2484335 19.2845538,13.2504153 19.9261134,11.7179797 C20.5676729,10.185544 20.2273287,8.41779496 19.0626435,7.23311514 C17.8979584,6.04843533 16.1362581,5.67805307 14.593125,6.2934375 C14.3426546,6.40171394 14.0531399,6.36541064 13.8371582,6.19864408 C13.6211765,6.03187753 13.5128114,5.7609648 13.5542006,5.49124991 C13.5955897,5.22153501 13.7802015,4.9955811 14.03625,4.90125 C16.7108957,3.83456707 19.7592023,4.96000669 21.0989982,7.50882783 C22.4387941,10.057649 21.6373882,13.2067021 19.2421875,14.805 C21.0604762,15.4751596 22.6133384,16.7152788 23.6690625,18.3403125 C23.8952816,18.6872248 23.797491,19.1518349 23.450625,19.378125 Z" id="Shape" fill="#000000" fill-rule="nonzero"></path>
                    <rect id="Rectangle" x="0" y="0" width="24" height="24"></rect>
                </g>
            </g>
        </g>
    </g>
</svg>