<?xml version="1.0" encoding="UTF-8"?>
<svg width="24px" height="24px" viewBox="0 0 24 24" version="1.1" xmlns="http://www.w3.org/2000/svg" xmlns:xlink="http://www.w3.org/1999/xlink">
    <title>User</title>
    <g id="2.0" stroke="none" stroke-width="1" fill="none" fill-rule="evenodd" opacity="0.65">
        <g id="Online-Quote-Copy-7" transform="translate(-545, -780)">
            <g id="Hero" transform="translate(16, 16)">
                <g id="Group-2" transform="translate(433, 162)">
                    <g id="Group-14" transform="translate(72, 487)">
                        <g id="Group-8-Copy-4" transform="translate(0, 64)">
                            <g id="Group-6" transform="translate(0, 31)">
                                <g id="User" transform="translate(24, 20)">
                                    <path d="M18,9 C18,12.3137085 15.3137085,15 12,15 C8.6862915,15 6,12.3137085 6,9 C6,5.6862915 8.6862915,3 12,3 C13.5912989,3 15.1174224,3.63214104 16.2426407,4.75735931 C17.367859,5.88257758 18,7.40870106 18,9 Z" id="Path" fill="#2C2833" fill-rule="nonzero" opacity="0.2"></path>
                                    <path d="M21.64875,19.875 C20.2209375,17.4065625 18.020625,15.6365625 15.4528125,14.7975 C18.0635502,13.2433088 19.3141505,10.1363804 18.508181,7.20689663 C17.7022115,4.27741292 15.0383321,2.2474495 12,2.2474495 C8.96166794,2.2474495 6.29778847,4.27741292 5.49181896,7.20689663 C4.68584945,10.1363804 5.93644981,13.2433088 8.5471875,14.7975 C5.979375,15.635625 3.7790625,17.405625 2.35125,19.875 C2.20870351,20.1074294 2.20352721,20.3989101 2.33773116,20.6362542 C2.4719351,20.8735984 2.72437536,21.0194122 2.99702434,21.0171011 C3.26967332,21.0147345 3.51957497,20.8646115 3.6496875,20.625 C5.4159375,17.5725 8.5378125,15.75 12,15.75 C15.4621875,15.75 18.5840625,17.5725 20.3503125,20.625 C20.480425,20.8646115 20.7303267,21.0147345 21.0029757,21.0171011 C21.2756246,21.0194122 21.5280649,20.8735984 21.6622688,20.6362542 C21.7964728,20.3989101 21.7912965,20.1074294 21.64875,19.875 Z M6.75,9 C6.75,6.10050506 9.10050506,3.75 12,3.75 C14.8994949,3.75 17.25,6.10050506 17.25,9 C17.25,11.8994949 14.8994949,14.25 12,14.25 C9.1017902,14.2468998 6.75310024,11.8982098 6.75,9 L6.75,9 Z" id="Shape" fill="#2C2833" fill-rule="nonzero"></path>
                                    <rect id="Rectangle" x="0" y="0" width="24" height="24"></rect>
                                </g>
                            </g>
                        </g>
                    </g>
                </g>
            </g>
        </g>
    </g>
</svg>