<?xml version="1.0" encoding="UTF-8"?>
<svg width="24px" height="24px" viewBox="0 0 24 24" version="1.1" xmlns="http://www.w3.org/2000/svg" xmlns:xlink="http://www.w3.org/1999/xlink">
    <title>icont/website</title>
    <g id="Main" stroke="none" stroke-width="1" fill="none" fill-rule="evenodd">
        <g id="County" transform="translate(-1299, -3078)">
            <g id="desktop/Yards-List" transform="translate(16, 2781)">
                <g id="Group-30-Copy-19" transform="translate(224, 260)">
                    <g id="GlobeSimple" transform="translate(1059, 37)">
                        <rect id="Rectangle" x="0" y="0" width="24" height="24"></rect>
                        <path d="M21,12 C21,16.9705627 16.9705627,21 12,21 C7.02943725,21 3,16.9705627 3,12 C3,7.02943725 7.02943725,3 12,3 C14.3869484,3 16.6761336,3.94821156 18.363961,5.63603897 C20.0517884,7.32386638 21,9.61305159 21,12 Z" id="Path" fill="#1272F4" fill-rule="nonzero" opacity="0.2"></path>
                        <path d="M12,2.25 L12,2.25 C6.61522369,2.25 2.25,6.61522369 2.25,12 C2.25,17.3847763 6.61522369,21.75 12,21.75 C17.3847763,21.75 21.75,17.3847763 21.75,12 C21.7438005,6.6177937 17.3822063,2.25619951 12,2.25 L12,2.25 Z M20.214375,11.25 L16.4803125,11.25 C16.3125,7.8271875 14.994375,5.4065625 13.9134375,3.975 C17.3545687,4.80134879 19.888177,7.72619256 20.2153125,11.25 L20.214375,11.25 Z M9.0215625,12.75 L14.9784375,12.75 C14.761875,16.6509375 12.894375,19.0415625 12,19.96875 C11.1046875,19.040625 9.238125,16.65 9.0215625,12.75 Z M9.0215625,11.25 C9.238125,7.3490625 11.105625,4.9584375 12,4.03125 C12.8953125,4.9621875 14.761875,7.3528125 14.9784375,11.25 L9.0215625,11.25 Z M10.0865625,3.975 C9.005625,5.4065625 7.6875,7.8271875 7.5196875,11.25 L3.7846875,11.25 C4.11182303,7.72619256 6.64543126,4.80134879 10.0865625,3.975 L10.0865625,3.975 Z M3.7846875,12.75 L7.5196875,12.75 C7.6903125,16.1728125 9.005625,18.5934375 10.0865625,20.025 C6.64543126,19.1986512 4.11182303,16.2738074 3.7846875,12.75 L3.7846875,12.75 Z M13.9096875,20.025 C14.990625,18.5934375 16.3059375,16.1728125 16.4765625,12.75 L20.2115625,12.75 C19.8849241,16.2727388 17.3530949,19.1972691 13.9134375,20.025 L13.9096875,20.025 Z" id="Shape" fill="#1272F4" fill-rule="nonzero"></path>
                    </g>
                </g>
            </g>
        </g>
    </g>
</svg>