<?xml version="1.0" encoding="utf-8" ?>
<svg xmlns="http://www.w3.org/2000/svg" xmlns:xlink="http://www.w3.org/1999/xlink" width="20" height="20">
	<path fill="#1272F4" d="M9.75 0C4.3652239 0 0 4.3652239 0 9.75C0 15.134776 4.3652239 19.5 9.75 19.5C15.134776 19.5 19.5 15.134776 19.5 9.75C19.493284 4.3680077 15.131992 0.0067149079 9.75 0L9.75 0ZM13.5 10.5L10.5 10.5L10.5 13.5C10.5 13.914213 10.164213 14.25 9.75 14.25C9.3357868 14.25 9 13.914213 9 13.5L9 10.5L6 10.5C5.5857863 10.5 5.25 10.164213 5.25 9.75C5.25 9.3357868 5.5857863 9 6 9L9 9L9 6C9 5.5857863 9.3357868 5.25 9.75 5.25C10.164213 5.25 10.5 5.5857863 10.5 6L10.5 9L13.5 9C13.914213 9 14.25 9.3357868 14.25 9.75C14.25 10.164213 13.914213 10.5 13.5 10.5Z"/>
</svg>
