<?xml version="1.0" encoding="utf-8" ?>
<svg xmlns="http://www.w3.org/2000/svg" xmlns:xlink="http://www.w3.org/1999/xlink" width="33" height="33">
	<path fill="#2C2833" transform="translate(0.0712891 0)" d="M2.4975545 12.198983C3.2157683 11.489997 4.1181397 11.489997 4.8409572 12.19438C5.287539 12.631742 5.7249126 13.078311 6.1668906 13.520277C6.5950565 13.953035 7.0232224 14.376586 7.4513884 14.809344C8.2064333 15.568973 8.2064333 16.452904 7.4559922 17.20793C6.9173317 17.751179 6.3832755 18.294428 5.8354073 18.823866C5.6926851 18.966585 5.6788735 19.08168 5.7525363 19.256624C6.1162472 20.122141 6.6364918 20.890976 7.2211914 21.609171C8.3997984 23.054768 9.7303362 24.33923 11.318693 25.338257C11.659385 25.550032 12.036907 25.706562 12.39141 25.899921C12.570964 26.001205 12.69527 25.968979 12.842596 25.817053C13.381256 25.264597 13.929125 24.721346 14.476993 24.178097C15.195207 23.464506 16.097578 23.464506 16.820395 24.178097C17.699747 25.05282 18.579098 25.927546 19.453846 26.806873C20.185871 27.543482 20.181269 28.445829 19.444637 29.191647C18.947412 29.693462 18.417961 30.172258 17.948359 30.697092C17.262373 31.465929 16.406042 31.714535 15.420799 31.659288C13.988976 31.581024 12.67225 31.106831 11.401565 30.48992C8.5793524 29.117985 6.1668906 27.216612 4.1457634 24.813423C2.6494844 23.036352 1.41563 21.098148 0.60533744 18.915943C0.20939903 17.86167 -0.07144098 16.779774 0.016033776 15.633426C0.071280994 14.929043 0.33370528 14.325944 0.8539499 13.833336C1.41563 13.299294 1.9450824 12.742233 2.4975545 12.198983ZM18.096741 0C25.591204 0 31.666666 6.0754623 31.666666 13.569925C31.666666 18.926067 28.534678 23.713449 23.751549 25.90884L22.917257 24.09116C26.99637 22.218904 29.666666 18.137241 29.666666 13.569925C29.666666 7.1800318 24.486635 2 18.096741 2C13.529427 2 9.4477625 4.6702962 7.5755067 8.7494087L5.7578268 7.9151187C7.9532166 3.1319897 12.740599 0 18.096741 0ZM23.418612 7.8843536L20.277376 14.973696L22.750843 14.973696L22.750843 12.252607L24.413448 12.252607L24.413448 14.973696L25.333334 14.973696L25.333334 16.60635L24.413448 16.60635L24.413448 18.333334L22.750843 18.333334L22.750843 16.60635L18.403538 16.60635L18.403538 14.973696L21.544773 7.8843536L23.418612 7.8843536ZM14.121344 7.6666665C14.748227 7.6666665 15.311515 7.8154197 15.811205 8.1129255C16.310896 8.4104309 16.703833 8.8216171 16.990019 9.3464851C17.276207 9.8713531 17.4193 10.47483 17.4193 11.156916C17.4193 11.655178 17.355701 12.073621 17.228508 12.412245C17.101315 12.750869 16.911659 13.062887 16.659542 13.348299C16.407427 13.633711 16.095119 13.950567 15.722624 14.298866L13.213769 16.671656L17.4193 16.671656L17.4193 18.318821L10.666667 18.318821L10.666667 16.795012L14.864065 12.811337C15.191134 12.501739 15.418267 12.20907 15.545461 11.933333C15.672654 11.657597 15.736252 11.391535 15.736252 11.135147C15.736252 10.786848 15.66584 10.476039 15.525019 10.202721C15.384197 9.9294033 15.19 9.712925 14.942426 9.5532875C14.694852 9.393651 14.409801 9.3138323 14.087274 9.3138323C13.746575 9.3138323 13.445626 9.3972788 13.184424 9.5641727C12.923223 9.7310658 12.719939 9.9523811 12.574574 10.228118C12.429211 10.503855 12.361071 10.80136 12.370156 11.120635L10.680295 11.120635C10.680295 10.424036 10.826795 9.8169308 11.119795 9.2993193C11.412795 8.7817078 11.81709 8.3801966 12.33268 8.0947847C12.848269 7.8093724 13.44449 7.6666665 14.121344 7.6666665Z"/>
</svg>
