<?xml version="1.0" encoding="utf-8" ?>
<svg xmlns="http://www.w3.org/2000/svg" xmlns:xlink="http://www.w3.org/1999/xlink" width="14" height="12">
	<path fill="#1ABD1B" transform="translate(-0.000327587 -8.10623e-05)" d="M6.6636801 7.9980469C8.1364136 7.9980469 9.3303471 6.8041134 9.3303471 5.3313799C9.3303471 3.8586199 8.1364136 2.6647134 6.6636801 2.6647134C5.1908998 2.6647134 3.9969933 3.8586199 3.9969933 5.3313799C3.9969933 6.8041134 5.1908998 7.9980469 6.6636801 7.9980469ZM12.66668 0L0.66666669 0C0.29848 0 0 0.29847333 0 0.66666669L0 9.99998C0 10.36818 0.29848 10.666647 0.66666669 10.666647L12.66668 10.666647C13.03488 10.666647 13.333346 10.36818 13.333346 9.99998L13.333346 0.66666669C13.333346 0.29847333 13.03488 0 12.66668 0ZM1.3333334 7.7622466L1.3333334 2.9005201C2.0838466 2.6760466 2.6756532 2.0839934 2.89978 1.3333334L10.427547 1.3333334C10.65228 2.086 11.246614 2.6792133 12.000013 2.9023132L12.000013 7.7604465C11.245347 7.9839134 10.650213 8.5787802 10.426347 9.333313L2.9009466 9.333313C2.6777067 8.5808468 2.0851533 7.9871135 1.3333334 7.7622466Z"/>
</svg>
