<?xml version="1.0" encoding="utf-8" ?>
<svg xmlns="http://www.w3.org/2000/svg" xmlns:xlink="http://www.w3.org/1999/xlink" width="22" height="22">
	<path fill="#1272F4" d="M19.674376 8.1393747C19.320938 7.77 18.955313 7.3893752 18.817499 7.0546875C18.690001 6.7481251 18.682501 6.2399998 18.674999 5.7478123C18.660938 4.8328123 18.645937 3.7959375 17.924999 3.075C17.204063 2.3540626 16.167187 2.3390625 15.252188 2.325C14.76 2.3175001 14.251875 2.3099999 13.945312 2.1824999C13.611563 2.0446875 13.23 1.6790625 12.860625 1.3256249C12.21375 0.70406252 11.47875 0 10.5 0C9.5212498 0 8.7871876 0.70406252 8.1393747 1.3256249C7.77 1.6790625 7.3893752 2.0446875 7.0546875 2.1824999C6.75 2.3099999 6.2399998 2.3175001 5.7478123 2.325C4.8328123 2.3390625 3.7959375 2.3540626 3.075 3.075C2.3540626 3.7959375 2.34375 4.8328123 2.325 5.7478123C2.3175001 6.2399998 2.3099999 6.7481251 2.1824999 7.0546875C2.0446875 7.3884373 1.6790625 7.77 1.3256249 8.1393747C0.70406252 8.7862501 0 9.5212498 0 10.5C0 11.47875 0.70406252 12.212812 1.3256249 12.860625C1.6790625 13.23 2.0446875 13.610625 2.1824999 13.945312C2.3099999 14.251875 2.3175001 14.76 2.325 15.252188C2.3390625 16.167187 2.3540626 17.204063 3.075 17.924999C3.7959375 18.645937 4.8328123 18.660938 5.7478123 18.674999C6.2399998 18.682501 6.7481251 18.690001 7.0546875 18.817499C7.3884373 18.955313 7.77 19.320938 8.1393747 19.674376C8.7862501 20.295937 9.5212498 21 10.5 21C11.47875 21 12.212812 20.295937 12.860625 19.674376C13.23 19.320938 13.610625 18.955313 13.945312 18.817499C14.251875 18.690001 14.76 18.682501 15.252188 18.674999C16.167187 18.660938 17.204063 18.645937 17.924999 17.924999C18.645937 17.204063 18.660938 16.167187 18.674999 15.252188C18.682501 14.76 18.690001 14.251875 18.817499 13.945312C18.955313 13.611563 19.320938 13.23 19.674376 12.860625C20.295937 12.21375 21 11.47875 21 10.5C21 9.5212498 20.295937 8.7871876 19.674376 8.1393747ZM14.780625 8.7806253L9.5306253 14.030625C9.3899488 14.171458 9.1990566 14.25059 9 14.25059C8.8009434 14.25059 8.6100512 14.171458 8.4693747 14.030625L6.2193751 11.780625C5.9263191 11.487569 5.9263191 11.012431 6.2193751 10.719375C6.5124311 10.426319 6.9875689 10.426319 7.2806249 10.719375L9 12.439688L13.719375 7.7193751C13.908949 7.5298009 14.185259 7.4557638 14.444222 7.5251527C14.703185 7.5945415 14.905458 7.7968149 14.974847 8.0557775C15.044236 8.3147411 14.970199 8.5910511 14.780625 8.7806253L14.780625 8.7806253Z"/>
</svg>
