<?xml version="1.0" encoding="UTF-8"?>
<svg width="19px" height="22px" viewBox="0 0 19 22" version="1.1" xmlns="http://www.w3.org/2000/svg" xmlns:xlink="http://www.w3.org/1999/xlink">
    <title>Shape</title>
    <g id="Main" stroke="none" stroke-width="1" fill="none" fill-rule="evenodd">
        <g id="Styleguide" transform="translate(-1037, -5365)" fill="#1272F4">
            <g id="Group-2-Copy" transform="translate(1001, 5098)">
                <g id="Group-5" transform="translate(32, 258)" fill-rule="nonzero">
                    <g id="Dashboard" transform="translate(0, 8)">
                        <path d="M12,14 L12,22 L4,22 C4,17.5817 7.58172,14 12,14 Z M12,13 C8.685,13 6,10.315 6,7 C6,3.685 8.685,1 12,1 C15.315,1 18,3.685 18,7 C18,10.315 15.315,13 12,13 Z M14.5946,18.8115 C14.5327,18.5511 14.5,18.2794 14.5,18 C14.5,17.7207 14.5327,17.449 14.5945,17.1886 L13.6029,16.6161 L14.6029,14.884 L15.5952,15.4569 C15.9883,15.0851 16.4676,14.8034 17,14.6449 L17,13.5 L19,13.5 L19,14.6449 C19.5324,14.8034 20.0116,15.0851 20.4047,15.4569 L21.3971,14.8839 L22.3972,16.616 L21.4055,17.1885 C21.4673,17.449 21.5,17.7207 21.5,18 C21.5,18.2793 21.4673,18.551 21.4055,18.8114 L22.3972,19.3839 L21.3972,21.116 L20.4048,20.543 C20.0117,20.9149 19.5325,21.1966 19.0001,21.355 L19.0001,22.5 L17.0001,22.5 L17.0001,21.3551 C16.4677,21.1967 15.9884,20.915 15.5953,20.5431 L14.603,21.1161 L13.6029,19.384 L14.5946,18.8115 Z M18,17 C17.4477,17 17,17.4477 17,18 C17,18.5523 17.4477,19 18,19 C18.5523,19 19,18.5523 19,18 C19,17.4477 18.5523,17 18,17 Z" id="Shape"></path>
                    </g>
                </g>
            </g>
        </g>
    </g>
</svg>