<?xml version="1.0" encoding="utf-8" ?>
<svg xmlns="http://www.w3.org/2000/svg" xmlns:xlink="http://www.w3.org/1999/xlink" width="12" height="13">
	<path fill="white" transform="translate(0 0.0975704)" d="M12 5.9995365L12 11.999537C12 12.275679 11.776142 12.499537 11.5 12.499537L8 12.499537C7.7238574 12.499537 7.5 12.275679 7.5 11.999537L7.5 8.7495365C7.5 8.6114655 7.3880711 8.4995365 7.25 8.4995365L4.75 8.4995365C4.6119289 8.4995365 4.5 8.6114655 4.5 8.7495365L4.5 11.999537C4.5 12.275679 4.2761426 12.499537 4 12.499537L0.5 12.499537C0.22385763 12.499537 0 12.275679 0 11.999537L0 5.9995365C0.00012293093 5.7343669 0.10556041 5.480103 0.293125 5.2926617L5.2931252 0.29266152C5.6835961 -0.097553834 6.3164039 -0.097553834 6.7068748 0.29266152L11.706875 5.2926617C11.89444 5.480103 11.999877 5.7343669 12 5.9995365Z"/>
</svg>
