<?xml version="1.0" encoding="utf-8" ?>
<svg xmlns="http://www.w3.org/2000/svg" xmlns:xlink="http://www.w3.org/1999/xlink" width="21" height="21">
	<path fill="#1272F4" transform="translate(0.0012207 0.00125122)" d="M19.56596 9.6297455L10.370494 0.43427873C10.093616 0.15518431 9.7163935 -0.0012410815 9.3232603 7.4165946e-06L0.74076343 7.4165946e-06C0.33165932 7.4165946e-06 7.4165946e-06 0.33165932 7.4165946e-06 0.74076343L7.4165946e-06 9.3232603C-0.0012410815 9.7163935 0.15518431 10.093616 0.43427873 10.370494L9.6297455 19.56596C9.907589 19.843868 10.284465 20.000008 10.677442 20.000008C11.070417 20.000008 11.447293 19.843868 11.725138 19.56596L19.56596 11.725138C19.843868 11.447293 20.000008 11.070417 20.000008 10.677442C20.000008 10.284465 19.843868 9.907589 19.56596 9.6297455ZM5 6C4.4477153 6 4 5.5522847 4 5C4 4.4477153 4.4477153 4 5 4C5.5522847 4 6 4.4477153 6 5C6 5.5522847 5.5522847 6 5 6Z"/>
</svg>
