<?xml version="1.0" encoding="UTF-8"?>
<svg width="11px" height="9px" viewBox="0 0 11 9" version="1.1" xmlns="http://www.w3.org/2000/svg" xmlns:xlink="http://www.w3.org/1999/xlink">
    <title>Shape</title>
    <g id="2.0" stroke="none" stroke-width="1" fill="none" fill-rule="evenodd">
        <g id="Homepage" transform="translate(-1225, -2671)" fill="#1272F4" fill-rule="nonzero">
            <g id="desktop/map+cta" transform="translate(240, 2005)">
                <g id="Group-40-Copy-2" transform="translate(736, 488)">
                    <g id="Group-36" transform="translate(48, 66.7951)">
                        <g id="Group" transform="translate(48, 68.2049)">
                            <path d="M153,51.9170539 L153.294118,50.0415112 C153.882353,50.0853835 154.360294,50.0003808 154.727941,49.7865032 C155.095588,49.5726255 155.349877,49.2655191 155.490809,48.8651839 C155.63174,48.4648488 155.659314,48.0014472 155.573529,47.4749791 L153,47.4749791 L153,43 L158,43 L158,47.4749791 C158,49.0543834 157.589461,50.2499048 156.768382,51.0615431 C155.947304,51.8731815 154.691176,52.1583517 153,51.9170539 Z M159,51.9170539 L159.294118,50.0415112 C159.882353,50.0853835 160.360294,50.0003808 160.727941,49.7865032 C161.095588,49.5726255 161.349877,49.2655191 161.490809,48.8651839 C161.63174,48.4648488 161.659314,48.0014472 161.573529,47.4749791 L159,47.4749791 L159,43 L164,43 L164,47.4749791 C164,49.0543834 163.589461,50.2499048 162.768382,51.0615431 C161.947304,51.8731815 160.691176,52.1583517 159,51.9170539 Z" id="Shape"></path>
                        </g>
                    </g>
                </g>
            </g>
        </g>
    </g>
</svg>