<?xml version="1.0" encoding="utf-8" ?>
<svg xmlns="http://www.w3.org/2000/svg" xmlns:xlink="http://www.w3.org/1999/xlink" width="29" height="29">
	<path fill="#2C2833" transform="translate(1.14272 1.14278)" d="M26.586496 24.463997L20.650246 18.525246C24.343939 13.711886 23.6691 6.8582449 19.107553 2.8577323C14.546008 -1.1427799 7.6629076 -0.917512 3.3726978 3.3726978C-0.917512 7.6629076 -1.1427799 14.546008 2.8577323 19.107553C6.8582449 23.6691 13.711886 24.343939 18.525246 20.650246L24.466496 26.592747C25.053299 27.179548 26.004694 27.179548 26.591496 26.592747C27.178299 26.005943 27.178299 25.054548 26.591496 24.467747L26.586496 24.463997ZM3.0252461 11.525246C3.0252461 6.8308258 6.8308258 3.0252461 11.525246 3.0252461C16.219666 3.0252461 20.025246 6.8308258 20.025246 11.525246C20.025246 16.219666 16.219666 20.025246 11.525246 20.025246C6.8328247 20.020424 3.0300691 16.217667 3.0252461 11.525246Z"/>
</svg>
