<?xml version="1.0" encoding="UTF-8"?>
<svg width="64px" height="64px" viewBox="0 0 64 64" version="1.1" xmlns="http://www.w3.org/2000/svg" xmlns:xlink="http://www.w3.org/1999/xlink">
    <title>Group 20</title>
    <g id="2.0" stroke="none" stroke-width="1" fill="none" fill-rule="evenodd">
        <g id="Homepage" transform="translate(-976, -3551)">
            <g id="desktop/benefits" transform="translate(16, 3291)">
                <g id="Group-19" transform="translate(-40.5601, 112)">
                    <g id="Group-20" transform="translate(1000.5601, 148)">
                        <circle id="Oval" fill="#00BEDF" fill-rule="nonzero" opacity="0.2" cx="32" cy="32" r="32"></circle>
                        <g id="CalendarCheck" transform="translate(16, 16)">
                            <path d="M27,6 L27,11 L5,11 L5,6 C5,5.44771525 5.44771525,5 6,5 L26,5 C26.5522847,5 27,5.44771525 27,6 Z" id="Path" fill="#00BEDF" fill-rule="nonzero" opacity="0.2"></path>
                            <path d="M26,4 L23,4 L23,3 C23,2.44771525 22.5522847,2 22,2 C21.4477153,2 21,2.44771525 21,3 L21,4 L11,4 L11,3 C11,2.44771525 10.5522847,2 10,2 C9.44771525,2 9,2.44771525 9,3 L9,4 L6,4 C4.8954305,4 4,4.8954305 4,6 L4,26 C4,27.1045695 4.8954305,28 6,28 L26,28 C27.1045695,28 28,27.1045695 28,26 L28,6 C28,4.8954305 27.1045695,4 26,4 Z M9,6 L9,7 C9,7.55228475 9.44771525,8 10,8 C10.5522847,8 11,7.55228475 11,7 L11,6 L21,6 L21,7 C21,7.55228475 21.4477153,8 22,8 C22.5522847,8 23,7.55228475 23,7 L23,6 L26,6 L26,10 L6,10 L6,6 L9,6 Z M26,26 L6,26 L6,12 L26,12 L26,26 Z M21.2075,15.2925 C21.395277,15.4800683 21.5007867,15.7345908 21.5007867,16 C21.5007867,16.2654092 21.395277,16.5199317 21.2075,16.7075 L15.2075,22.7075 C15.0199317,22.895277 14.7654092,23.0007867 14.5,23.0007867 C14.2345908,23.0007867 13.9800683,22.895277 13.7925,22.7075 L10.7925,19.7075 C10.4017585,19.3167585 10.4017585,18.6832415 10.7925,18.2925 C11.1832415,17.9017585 11.8167585,17.9017585 12.2075,18.2925 L14.5,20.58625 L19.7925,15.2925 C19.9800683,15.104723 20.2345908,14.9992133 20.5,14.9992133 C20.7654092,14.9992133 21.0199317,15.104723 21.2075,15.2925 Z" id="Shape" fill="#00BEDF" fill-rule="nonzero"></path>
                            <rect id="Rectangle" x="0" y="0" width="32" height="32"></rect>
                        </g>
                    </g>
                </g>
            </g>
        </g>
    </g>
</svg>