<?xml version="1.0" encoding="UTF-8"?>
<svg width="64px" height="64px" viewBox="0 0 64 64" version="1.1" xmlns="http://www.w3.org/2000/svg" xmlns:xlink="http://www.w3.org/1999/xlink">
    <title>Group 20 Copy</title>
    <g id="2.0" stroke="none" stroke-width="1" fill="none" fill-rule="evenodd">
        <g id="Homepage" transform="translate(-976, -3835)">
            <g id="desktop/benefits" transform="translate(16, 3291)">
                <g id="Group-19" transform="translate(-40.5601, 112)">
                    <g id="Group-20-Copy" transform="translate(1000.5601, 432)">
                        <circle id="Oval" fill="#FFA500" fill-rule="nonzero" opacity="0.2" cx="32" cy="32" r="32"></circle>
                        <g id="MoneyWavy" transform="translate(16, 16)">
                            <path d="M2,8.65125 L2,23.65125 C13.455,18.055 18.545,28.945 30,23.34875 L30,8.34875 C18.545,13.945 13.455,3.055 2,8.65125 Z M16,19 C14.3431458,19 13,17.6568542 13,16 C13,14.3431458 14.3431458,13 16,13 C17.6568542,13 19,14.3431458 19,16 C19,17.6568542 17.6568542,19 16,19 Z" id="Shape" fill="#FFA500" fill-rule="nonzero" opacity="0.2"></path>
                            <path d="M30.53,7.5 C30.2373273,7.31734253 29.8711725,7.29844422 29.56125,7.45 C24.195,10.075 20.3625,8.845 16.31125,7.5475 C12.06125,6.18625 7.655,4.78 1.5675,7.7525 C1.22037643,7.91900969 0.999666639,8.27000631 0.999999623,8.655 L0.999999623,23.64625 C0.999999623,23.9911734 1.17766244,24.3117728 1.47019977,24.4945133 C1.7627371,24.6772538 2.12879863,24.6963352 2.43875,24.545 C7.805,21.92 11.6375,23.15 15.695,24.4475 C18.1,25.21625 20.55,26 23.32,26 C25.45625,26 27.78625,25.535 30.43375,24.2425 C30.7768168,24.0749964 30.9945764,23.726775 30.9950395,23.345 L30.9950395,8.35375 C30.9980688,8.00790249 30.8222101,7.68502209 30.53,7.5 Z M29,22.70875 C23.925,24.98 20.21875,23.795 16.305,22.54375 C13.9,21.775 11.45,20.99125 8.68,20.99125 C6.73387848,21.0007042 4.80755348,21.3825748 3.005,22.11625 L3.005,9.29125 C8.08,7.02 11.78625,8.205 15.7,9.45625 C19.61375,10.7075 23.6425,12 29,9.88625 L29,22.70875 Z M16,12 C13.790861,12 12,13.790861 12,16 C12,18.209139 13.790861,20 16,20 C18.209139,20 20,18.209139 20,16 C20,13.790861 18.209139,12 16,12 Z M16,18 C14.8954305,18 14,17.1045695 14,16 C14,14.8954305 14.8954305,14 16,14 C17.1045695,14 18,14.8954305 18,16 C18,17.1045695 17.1045695,18 16,18 Z M7,12 L7,18 C7,18.5522847 6.55228475,19 6,19 C5.44771525,19 5,18.5522847 5,18 L5,12 C5,11.4477153 5.44771525,11 6,11 C6.55228475,11 7,11.4477153 7,12 Z M25,20 L25,14 C25,13.4477153 25.4477153,13 26,13 C26.5522847,13 27,13.4477153 27,14 L27,20 C27,20.5522847 26.5522847,21 26,21 C25.4477153,21 25,20.5522847 25,20 Z" id="Shape" fill="#FFA500" fill-rule="nonzero"></path>
                            <rect id="Rectangle" x="0" y="0" width="32" height="32"></rect>
                        </g>
                    </g>
                </g>
            </g>
        </g>
    </g>
</svg>