<?xml version="1.0" encoding="UTF-8"?>
<svg width="64px" height="64px" viewBox="0 0 64 64" version="1.1" xmlns="http://www.w3.org/2000/svg" xmlns:xlink="http://www.w3.org/1999/xlink">
    <title>Group 20 Copy</title>
    <g id="2.0" stroke="none" stroke-width="1" fill="none" fill-rule="evenodd">
        <g id="Homepage" transform="translate(-976, -3679)">
            <g id="desktop/benefits" transform="translate(16, 3291)">
                <g id="Group-19" transform="translate(-40.5601, 112)">
                    <g id="Group-20-Copy" transform="translate(1000.5601, 276)">
                        <circle id="Oval" fill="#FF5100" fill-rule="nonzero" opacity="0.2" cx="32" cy="32" r="32"></circle>
                        <g id="Star" transform="translate(16, 16)">
                            <path d="M28.6325,13.59875 L22.545,18.84875 L24.405,26.6975 C24.505556,27.1099757 24.3478213,27.5424179 24.0053095,27.7932832 C23.6627977,28.0441484 23.2029175,28.0640648 22.84,27.84375 L16,23.63625 L9.16,27.8425 C8.79708247,28.0628148 8.33720229,28.0428984 7.99469047,27.7920332 C7.65217866,27.5411679 7.49444398,27.1087257 7.595,26.69625 L9.455,18.8475 L3.3675,13.5975 C3.05027343,13.3189561 2.92910428,12.8784255 3.05925635,12.4768289 C3.18940843,12.0752324 3.54594344,11.7895193 3.96625,11.75 L11.955,11.1 L15.0325,3.65 C15.1929741,3.25686908 15.575378,2.99992879 16,2.99992879 C16.424622,2.99992879 16.8070259,3.25686908 16.9675,3.65 L20.045,11.1 L28.03375,11.75 C28.4546486,11.7890553 28.8118561,12.0750067 28.9420969,12.4771488 C29.0723377,12.8792909 28.9505886,13.3203608 28.6325,13.59875 Z" id="Path" fill="#FF5100" fill-rule="nonzero" opacity="0.2"></path>
                            <path d="M29.8975,12.1575 C29.6418457,11.3715876 28.9387748,10.8164278 28.115,10.75 L20.74,10.155 L17.8925,3.26875 C17.5775442,2.50131227 16.8301778,2.00017384 16.000625,2.00017384 C15.1710722,2.00017384 14.4237058,2.50131227 14.10875,3.26875 L11.26375,10.15375 L3.885,10.75 C3.05996298,10.8197768 2.35713389,11.3773032 2.10145053,12.1648189 C1.84576717,12.9523345 2.08705113,13.8163869 2.71375,14.3575 L8.33875,19.21125 L6.625,26.46875 C6.4289791,27.2751301 6.73908197,28.1200813 7.41019864,28.6082159 C8.08131531,29.0963506 8.98070264,29.1311184 9.6875,28.69625 L16,24.81125 L22.31625,28.69625 C23.023167,29.1258879 23.9190388,29.0885444 24.5877475,28.6015649 C25.2564561,28.1145854 25.5669462,27.2734096 25.375,26.46875 L23.655,19.21 L29.28,14.35625 C29.9119364,13.8159013 30.1557233,12.9478424 29.8975,12.1575 Z M27.98,12.84125 L21.8925,18.09125 C21.6095031,18.3351768 21.4860859,18.7165166 21.5725,19.08 L23.4325,26.93 C23.4424942,26.9524689 23.4331581,26.9788299 23.41125,26.99 C23.38875,27.0075 23.3825,27.00375 23.36375,26.99 L16.52375,22.78375 C16.2025126,22.586246 15.7974874,22.586246 15.47625,22.78375 L8.63625,26.9925 C8.6175,27.00375 8.6125,27.0075 8.58875,26.9925 C8.56684193,26.9813299 8.55750575,26.9549689 8.5675,26.9325 L10.4275,19.0825 C10.5139141,18.7190166 10.3904969,18.3376768 10.1075,18.09375 L4.02,12.84375 C4.005,12.83125 3.99125,12.82 4.00375,12.78125 C4.01625,12.7425 4.02625,12.7475 4.045,12.745 L12.035,12.1 C12.4086339,12.0679514 12.7329322,11.8295536 12.875,11.4825 L15.9525,4.03125 C15.9625,4.01 15.96625,4 15.99625,4 C16.02625,4 16.03,4.01 16.04,4.03125 L19.125,11.4825 C19.2684092,11.8297083 19.5943104,12.0672541 19.96875,12.0975 L27.95875,12.7425 C27.9775,12.7425 27.98875,12.7425 28,12.77875 C28.01125,12.815 28,12.82875 27.98,12.84125 Z" id="Shape" fill="#FF5100" fill-rule="nonzero"></path>
                            <rect id="Rectangle" x="0" y="0" width="32" height="32"></rect>
                        </g>
                    </g>
                </g>
            </g>
        </g>
    </g>
</svg>