<?xml version="1.0" encoding="UTF-8"?>
<svg width="64px" height="64px" viewBox="0 0 64 64" version="1.1" xmlns="http://www.w3.org/2000/svg" xmlns:xlink="http://www.w3.org/1999/xlink">
    <title>Group 20 Copy</title>
    <g id="2.0" stroke="none" stroke-width="1" fill="none" fill-rule="evenodd">
        <g id="Homepage" transform="translate(-976, -3963)" fill="#0BBE00" fill-rule="nonzero">
            <g id="desktop/benefits" transform="translate(16, 3291)">
                <g id="Group-19" transform="translate(-40.5601, 112)">
                    <g id="Group-20-Copy" transform="translate(1000.5601, 560)">
                        <circle id="Oval" opacity="0.2" cx="32" cy="32" r="32"></circle>
                        <g id="Truck" transform="translate(16, 16)">
                            <path d="M31,15 L31,23 C31,23.5522847 30.5522847,24 30,24 L27,24 C27,22.3431458 25.6568542,21 24,21 C22.3431458,21 21,22.3431458 21,24 L13,24 C13,22.3431458 11.6568542,21 10,21 C8.34314575,21 7,22.3431458 7,24 L4,24 C3.44771525,24 3,23.5522847 3,23 L3,18 L23,18 L23,15 L31,15 Z" id="Path" opacity="0.2"></path>
                            <path d="M14.4434833,6.04453637 L20.0294697,11.6305228 L20.029,16.9995364 L22,17 L22,10.9999646 C22,9.89539515 22.8954305,8.99996465 24,8.99996465 L28.3225,8.99996465 C29.138556,8.99719094 29.8737232,9.49258662 30.1775,10.25 L31.9275,14.625 C31.9757175,14.7441272 32.00034,14.871485 32,15 L32,23 C32,24.1045695 31.1045695,25 30,25 L27.875,25 C27.4218302,26.7699148 25.8270089,28.0078433 24,28.0078433 C22.1729911,28.0078433 20.5781698,26.7699148 20.125,25 L13.875,25 C13.4218302,26.7699148 11.8270089,28.0078433 10,28.0078433 C8.17299115,28.0078433 6.57816979,26.7699148 6.125,25 L4,25 C2.8954305,25 2,24.1045695 2,23 L2,17 L13.029,16.9995364 L13.029,8.04453637 L4,8.04453637 L4,11 L3,11 C2.44771525,11 2,11.4477153 2,12 C2,12.5522847 2.44771525,13 3,13 C3.26158712,13 3.50494928,12.9004724 3.6903062,12.7235221 L5.07133397,14.1701603 C4.51754014,14.6988375 3.78114629,15 3,15 C1.34314575,15 0,13.6568542 0,12 C0,10.6937479 0.834850101,9.58248558 2.00008893,9.17067428 L2,6.04453637 L14.4434833,6.04453637 Z M10,22 C8.8954305,22 8,22.8954305 8,24 C8,25.1045695 8.8954305,26 10,26 C11.1045695,26 12,25.1045695 12,24 C12,22.8954305 11.1045695,22 10,22 Z M24,22 C22.8954305,22 22,22.8954305 22,24 C22,25.1045695 22.8954305,26 24,26 C25.1045695,26 26,25.1045695 26,24 C26,22.8954305 25.1045695,22 24,22 Z M22,19 L4,19 L4,23 L6.125,23 C6.57816979,21.2300852 8.17299115,19.9921567 10,19.9921567 C11.8270089,19.9921567 13.4218302,21.2300852 13.875,23 L20.125,23 C20.3959589,21.9619739 21.0711903,21.0756201 22,20.53875 L22,19 Z M30,16 L24,16 L24,20 C25.8238396,20.0017244 27.4164807,21.2347368 27.875,23 L30,23 L30,16 Z M15.029,9.45853637 L15.029,16.9995364 L18.029,16.9995364 L18.029,12.4585364 L15.029,9.45853637 Z M28.3225,11 L24,11 L24,14 L29.5225,14 L28.3225,11 Z" id="Shape"></path>
                        </g>
                    </g>
                </g>
            </g>
        </g>
    </g>
</svg>